999
DXF generated by GENSOLE
  0
SECTION
  2
HEADER
  0
ENDSEC
  0
SECTION
  2
TABLES
  0
TABLE
  2
LTYPE
  70
1
  0
LTYPE
  2
CONTINUOUS
  3
Solid Line
  72
65
  73
0
  40
0.0
  0
ENDTAB
  0
TABLE
  2
LAYER
  70
1
  0
LAYER
  2
ShapeRegion
  62
7
  6
Continuous
  0
ENDTAB
  0
TABLE
  2
STYLE
  70
0
  0
ENDTAB
  0
TABLE
  2
VIEW
  70
0
  0
ENDTAB
  0
ENDSEC
  0
SECTION
  2
BLOCKS
  0
ENDSEC
  0
SECTION
  2
ENTITIES
  0
LWPOLYLINE
  8
ShapeRegion
  90
31
  70
1
 10
9.84131360754062
 20
206.27482061638082
 30
0.0
 10
9.686524575039147
 20
205.85727655181904
 30
0.0
 10
9.726687758113082
 20
205.48777058908894
 30
0.0
 10
10.090632235882222
 20
200.903686293257
 30
0.0
 10
10.14362415783751
 20
200.41379080147718
 30
0.0
 10
10.52886910612178
 20
198.86740081702382
 30
0.0
 10
12.228737419898973
 20
196.09791455353053
 30
0.0
 10
12.206982415487252
 20
193.74055322764144
 30
0.0
 10
12.878570874232254
 20
191.90447190718209
 30
0.0
 10
13.981213790595456
 20
189.5242449571312
 30
0.0
 10
14.877494314226702
 20
188.6663009865704
 30
0.0
 10
16.236441234428057
 20
187.916568791426
 30
0.0
 10
18.243305927157607
 20
187.3386287611577
 30
0.0
 10
20.04452354399154
 20
187.08788934182567
 30
0.0
 10
22.487645839048962
 20
187.68405513832354
 30
0.0
 10
24.850883228505378
 20
186.47189713864208
 30
0.0
 10
27.42006998788433
 20
184.87479287177325
 30
0.0
 10
29.69776176187075
 20
184.9600143947386
 30
0.0
 10
30.84128471717385
 20
185.3217820758328
 30
0.0
 10
31.63993008835386
 20
187.56218248778043
 30
0.0
 10
31.46278546753477
 20
189.11829743108441
 30
0.0
 10
30.48987228106991
 20
192.7204829837931
 30
0.0
 10
29.474702134285444
 20
194.26554658189318
 30
0.0
 10
26.816792079739397
 20
196.9067629982695
 30
0.0
 10
25.34467899066674
 20
198.95855493894598
 30
0.0
 10
23.469942709230914
 20
201.58021474872362
 30
0.0
 10
20.125873931392434
 20
206.93416193169583
 30
0.0
 10
19.43638569212881
 20
207.36820571969724
 30
0.0
 10
14.084733741576539
 20
209.36271018609216
 30
0.0
 10
12.075026945127686
 20
208.49600876130873
 30
0.0
 10
9.84131360754062
 20
206.27482061638082
 30
0.0
  0
ENDSEC
  0
EOF
