solid insock
facet normal 0 0 -1
outer loop
vertex -13.571407136226235 31.98363942927446 0
vertex -14.453034782874091 33.25723629030295 0
vertex -14.775058130477191 34.06040262682918 0
endloop
endfacet
facet normal 0 0 -1
outer loop
vertex -6.423289430986824 28.823496555184754 0
vertex -7.196105562925357 29.123416243331448 0
vertex -13.571407136226235 31.98363942927446 0
endloop
endfacet
facet normal 0 0 -1
outer loop
vertex -5.671458505400817 29.12597974036547 0
vertex -6.078960221144109 28.919034149757422 0
vertex -6.423289430986824 28.823496555184754 0
endloop
endfacet
facet normal 0 0 -1
outer loop
vertex 0.3767112988602983 32.066971162216205 0
vertex -0.9368564456685193 31.331081983245163 0
vertex -5.671458505400817 29.12597974036547 0
endloop
endfacet
facet normal 0 0 -1
outer loop
vertex 3.469440156220779 34.42243024493985 0
vertex 2.988888856781762 33.820052238538764 0
vertex 0.3767112988602983 32.066971162216205 0
endloop
endfacet
facet normal 0 0 -1
outer loop
vertex 4.571402664002064 38.0980565709133 0
vertex 3.9358119915569807 35.42612076340245 0
vertex 3.469440156220779 34.42243024493985 0
endloop
endfacet
facet normal 0 0 -1
outer loop
vertex 5.358450891247751 42.14747925155389 0
vertex 4.845756681896987 39.00260899081853 0
vertex 4.571402664002064 38.0980565709133 0
endloop
endfacet
facet normal 0 0 -1
outer loop
vertex 5.00232524549836 47.31012568652782 0
vertex 5.745591506540203 44.201012067147474 0
vertex 5.358450891247751 42.14747925155389 0
endloop
endfacet
facet normal 0 0 -1
outer loop
vertex 3.1292810568452 52.57317359780253 0
vertex 4.765979387606447 49.20687794839595 0
vertex 5.00232524549836 47.31012568652782 0
endloop
endfacet
facet normal 0 0 -1
outer loop
vertex -5.6911751201250755 54.15585738287405 0
vertex -3.030678010988966 54.365120713696356 0
vertex -2.478173579463677 54.090290756223354 0
endloop
endfacet
facet normal 0 0 -1
outer loop
vertex -12.005059970347622 52.26488987162638 0
vertex -10.15886034048108 53.72097474656706 0
vertex -5.6911751201250755 54.15585738287405 0
endloop
endfacet
facet normal 0 0 -1
outer loop
vertex -14.064366142788096 50.11277942833454 0
vertex -13.545843718344537 50.827803141105 0
vertex -12.005059970347622 52.26488987162638 0
endloop
endfacet
facet normal 0 0 -0.9999999999999999
outer loop
vertex -15.68721364754245 44.246193120532695 0
vertex -14.82367084478652 47.81927238309403 0
vertex -14.700214451931883 48.1481252622906 0
endloop
endfacet
facet normal 0 0 -1
outer loop
vertex -15.642448592499152 39.42658762837002 0
vertex -15.894652544626801 43.10710772750068 0
vertex -15.68721364754245 44.246193120532695 0
endloop
endfacet
facet normal 0 0 -1
outer loop
vertex -14.775058130477191 34.06040262682918 0
vertex -15.850458979195441 38.120864215751496 0
vertex -15.642448592499152 39.42658762837002 0
endloop
endfacet
facet normal 0 0 -1
outer loop
vertex -6.423289430986824 28.823496555184754 0
vertex -13.571407136226235 31.98363942927446 0
vertex -14.775058130477191 34.06040262682918 0
endloop
endfacet
facet normal 0 0 -1
outer loop
vertex 0.3767112988602983 32.066971162216205 0
vertex -5.671458505400817 29.12597974036547 0
vertex -6.423289430986824 28.823496555184754 0
endloop
endfacet
facet normal 0 0 -0.9999999999999999
outer loop
vertex 4.571402664002064 38.0980565709133 0
vertex 3.469440156220779 34.42243024493985 0
vertex 0.3767112988602983 32.066971162216205 0
endloop
endfacet
facet normal 0 0 -1
outer loop
vertex 5.00232524549836 47.31012568652782 0
vertex 5.358450891247751 42.14747925155389 0
vertex 4.571402664002064 38.0980565709133 0
endloop
endfacet
facet normal 0 0 -1
outer loop
vertex -2.478173579463677 54.090290756223354 0
vertex 3.1292810568452 52.57317359780253 0
vertex 5.00232524549836 47.31012568652782 0
endloop
endfacet
facet normal 0 0 -0.9999999999999999
outer loop
vertex -12.005059970347622 52.26488987162638 0
vertex -5.6911751201250755 54.15585738287405 0
vertex -2.478173579463677 54.090290756223354 0
endloop
endfacet
facet normal 0 0 -1
outer loop
vertex -14.700214451931883 48.1481252622906 0
vertex -14.064366142788096 50.11277942833454 0
vertex -12.005059970347622 52.26488987162638 0
endloop
endfacet
facet normal 0 0 -1
outer loop
vertex -15.642448592499152 39.42658762837002 0
vertex -15.68721364754245 44.246193120532695 0
vertex -14.700214451931883 48.1481252622906 0
endloop
endfacet
facet normal 0 0 -1
outer loop
vertex -6.423289430986824 28.823496555184754 0
vertex -14.775058130477191 34.06040262682918 0
vertex -15.642448592499152 39.42658762837002 0
endloop
endfacet
facet normal 0 0 -1
outer loop
vertex 4.571402664002064 38.0980565709133 0
vertex 0.3767112988602983 32.066971162216205 0
vertex -6.423289430986824 28.823496555184754 0
endloop
endfacet
facet normal 0 0 -1
outer loop
vertex -2.478173579463677 54.090290756223354 0
vertex 5.00232524549836 47.31012568652782 0
vertex 4.571402664002064 38.0980565709133 0
endloop
endfacet
facet normal 0 0 -1
outer loop
vertex -14.700214451931883 48.1481252622906 0
vertex -12.005059970347622 52.26488987162638 0
vertex -2.478173579463677 54.090290756223354 0
endloop
endfacet
facet normal 0 0 -1
outer loop
vertex -6.423289430986824 28.823496555184754 0
vertex -15.642448592499152 39.42658762837002 0
vertex -14.700214451931883 48.1481252622906 0
endloop
endfacet
facet normal 0 0 -1
outer loop
vertex -2.478173579463677 54.090290756223354 0
vertex 4.571402664002064 38.0980565709133 0
vertex -6.423289430986824 28.823496555184754 0
endloop
endfacet
facet normal 0 0 -1
outer loop
vertex -6.423289430986824 28.823496555184754 0
vertex -14.700214451931883 48.1481252622906 0
vertex -2.478173579463677 54.090290756223354 0
endloop
endfacet
facet normal 0 0 1
outer loop
vertex -14.775058130477191 34.06040262682918 4.4399999999999995
vertex -14.453034782874091 33.25723629030295 4.4399999999999995
vertex -13.571407136226235 31.98363942927446 4.4399999999999995
endloop
endfacet
facet normal 0 0 1
outer loop
vertex -6.423289430986824 28.823496555184754 4.4399999999999995
vertex -6.078960221144109 28.919034149757422 4.4399999999999995
vertex -5.671458505400817 29.12597974036547 4.4399999999999995
endloop
endfacet
facet normal 0 0 1
outer loop
vertex 0.3767112988602983 32.066971162216205 4.4399999999999995
vertex 2.988888856781762 33.820052238538764 4.4399999999999995
vertex 3.469440156220779 34.42243024493985 4.4399999999999995
endloop
endfacet
facet normal 0 0 1
outer loop
vertex 3.469440156220779 34.42243024493985 4.4399999999999995
vertex 3.9358119915569807 35.42612076340245 4.4399999999999995
vertex 4.571402664002064 38.0980565709133 4.4399999999999995
endloop
endfacet
facet normal 0 0 1
outer loop
vertex -2.478173579463677 54.090290756223354 4.4399999999999995
vertex -3.030678010988966 54.365120713696356 4.4399999999999995
vertex -5.6911751201250755 54.15585738287405 4.4399999999999995
endloop
endfacet
facet normal 0 0 1
outer loop
vertex -12.005059970347622 52.26488987162638 4.4399999999999995
vertex -13.545843718344537 50.827803141105 4.4399999999999995
vertex -14.064366142788096 50.11277942833454 4.4399999999999995
endloop
endfacet
facet normal -0.8222203669519172 -0.569169279010607 0
outer loop
vertex -14.453034782874091 33.25723629030295 0
vertex -13.571407136226235 31.98363942927446 0
vertex -14.453034782874091 33.25723629030295 4.4399999999999995
endloop
endfacet
facet normal -0.8222203669519172 -0.569169279010607 0
outer loop
vertex -13.571407136226235 31.98363942927446 0
vertex -13.571407136226235 31.98363942927446 4.4399999999999995
vertex -14.453034782874091 33.25723629030295 4.4399999999999995
endloop
endfacet
facet normal -0.40933346747188976 -0.9123848488480283 0
outer loop
vertex -13.571407136226235 31.98363942927446 0
vertex -7.196105562925357 29.123416243331448 0
vertex -13.571407136226235 31.98363942927446 4.4399999999999995
endloop
endfacet
facet normal -0.40933346747188976 -0.9123848488480283 0
outer loop
vertex -7.196105562925357 29.123416243331448 0
vertex -7.196105562925357 29.123416243331448 4.4399999999999995
vertex -13.571407136226235 31.98363942927446 4.4399999999999995
endloop
endfacet
facet normal -0.3617965964369992 -0.9322570583302672 0
outer loop
vertex -7.196105562925357 29.123416243331448 0
vertex -6.423289430986824 28.823496555184754 0
vertex -7.196105562925357 29.123416243331448 4.4399999999999995
endloop
endfacet
facet normal -0.3617965964369992 -0.9322570583302672 0
outer loop
vertex -6.423289430986824 28.823496555184754 0
vertex -6.423289430986824 28.823496555184754 4.4399999999999995
vertex -7.196105562925357 29.123416243331448 4.4399999999999995
endloop
endfacet
facet normal 0.26735960847284734 -0.963596824277273 0
outer loop
vertex -6.423289430986824 28.823496555184754 0
vertex -6.078960221144109 28.919034149757422 0
vertex -6.423289430986824 28.823496555184754 4.4399999999999995
endloop
endfacet
facet normal 0.26735960847284734 -0.963596824277273 0
outer loop
vertex -6.078960221144109 28.919034149757422 0
vertex -6.078960221144109 28.919034149757422 4.4399999999999995
vertex -6.423289430986824 28.823496555184754 4.4399999999999995
endloop
endfacet
facet normal 0.45279691458408194 -0.8916136798766244 0
outer loop
vertex -6.078960221144109 28.919034149757422 0
vertex -5.671458505400817 29.12597974036547 0
vertex -6.078960221144109 28.919034149757422 4.4399999999999995
endloop
endfacet
facet normal 0.45279691458408194 -0.8916136798766244 0
outer loop
vertex -5.671458505400817 29.12597974036547 0
vertex -5.671458505400817 29.12597974036547 4.4399999999999995
vertex -6.078960221144109 28.919034149757422 4.4399999999999995
endloop
endfacet
facet normal 0.422196904590305 -0.9065041498825942 0
outer loop
vertex -5.671458505400817 29.12597974036547 0
vertex -0.9368564456685193 31.331081983245163 0
vertex -5.671458505400817 29.12597974036547 4.4399999999999995
endloop
endfacet
facet normal 0.422196904590305 -0.9065041498825942 0
outer loop
vertex -0.9368564456685193 31.331081983245163 0
vertex -0.9368564456685193 31.331081983245163 4.4399999999999995
vertex -5.671458505400817 29.12597974036547 4.4399999999999995
endloop
endfacet
facet normal 0.48875061553816923 -0.8724235415273137 0
outer loop
vertex -0.9368564456685193 31.331081983245163 0
vertex 0.3767112988602983 32.066971162216205 0
vertex -0.9368564456685193 31.331081983245163 4.4399999999999995
endloop
endfacet
facet normal 0.48875061553816923 -0.8724235415273137 0
outer loop
vertex 0.3767112988602983 32.066971162216205 0
vertex 0.3767112988602983 32.066971162216205 4.4399999999999995
vertex -0.9368564456685193 31.331081983245163 4.4399999999999995
endloop
endfacet
facet normal 0.557256799025279 -0.830340207348831 0
outer loop
vertex 0.3767112988602983 32.066971162216205 0
vertex 2.988888856781762 33.820052238538764 0
vertex 0.3767112988602983 32.066971162216205 4.4399999999999995
endloop
endfacet
facet normal 0.557256799025279 -0.830340207348831 0
outer loop
vertex 2.988888856781762 33.820052238538764 0
vertex 2.988888856781762 33.820052238538764 4.4399999999999995
vertex 0.3767112988602983 32.066971162216205 4.4399999999999995
endloop
endfacet
facet normal 0.781723379476726 -0.623625334619663 0
outer loop
vertex 2.988888856781762 33.820052238538764 0
vertex 3.469440156220779 34.42243024493985 0
vertex 2.988888856781762 33.820052238538764 4.4399999999999995
endloop
endfacet
facet normal 0.781723379476726 -0.623625334619663 0
outer loop
vertex 3.469440156220779 34.42243024493985 0
vertex 3.469440156220779 34.42243024493985 4.4399999999999995
vertex 2.988888856781762 33.820052238538764 4.4399999999999995
endloop
endfacet
facet normal 0.9068803143439523 -0.42138829534695693 0
outer loop
vertex 3.469440156220779 34.42243024493985 0
vertex 3.9358119915569807 35.42612076340245 0
vertex 3.469440156220779 34.42243024493985 4.4399999999999995
endloop
endfacet
facet normal 0.9068803143439523 -0.42138829534695693 0
outer loop
vertex 3.9358119915569807 35.42612076340245 0
vertex 3.9358119915569807 35.42612076340245 4.4399999999999995
vertex 3.469440156220779 34.42243024493985 4.4399999999999995
endloop
endfacet
facet normal 0.9728541477808409 -0.23141911577398644 0
outer loop
vertex 3.9358119915569807 35.42612076340245 0
vertex 4.571402664002064 38.0980565709133 0
vertex 3.9358119915569807 35.42612076340245 4.4399999999999995
endloop
endfacet
facet normal 0.9728541477808409 -0.23141911577398644 0
outer loop
vertex 4.571402664002064 38.0980565709133 0
vertex 4.571402664002064 38.0980565709133 4.4399999999999995
vertex 3.9358119915569807 35.42612076340245 4.4399999999999995
endloop
endfacet
facet normal 0.9569517840845482 -0.29024693441516314 0
outer loop
vertex 4.571402664002064 38.0980565709133 0
vertex 4.845756681896987 39.00260899081853 0
vertex 4.571402664002064 38.0980565709133 4.4399999999999995
endloop
endfacet
facet normal 0.9569517840845482 -0.29024693441516314 0
outer loop
vertex 4.845756681896987 39.00260899081853 0
vertex 4.845756681896987 39.00260899081853 4.4399999999999995
vertex 4.571402664002064 38.0980565709133 4.4399999999999995
endloop
endfacet
facet normal 0.98697048435382 -0.16090140774519646 0
outer loop
vertex 4.845756681896987 39.00260899081853 0
vertex 5.358450891247751 42.14747925155389 0
vertex 4.845756681896987 39.00260899081853 4.4399999999999995
endloop
endfacet
facet normal 0.98697048435382 -0.16090140774519646 0
outer loop
vertex 5.358450891247751 42.14747925155389 0
vertex 5.358450891247751 42.14747925155389 4.4399999999999995
vertex 4.845756681896987 39.00260899081853 4.4399999999999995
endloop
endfacet
facet normal 0.982689403325687 -0.1852607259820736 0
outer loop
vertex 5.358450891247751 42.14747925155389 0
vertex 5.745591506540203 44.201012067147474 0
vertex 5.358450891247751 42.14747925155389 4.4399999999999995
endloop
endfacet
facet normal 0.982689403325687 -0.1852607259820736 0
outer loop
vertex 5.745591506540203 44.201012067147474 0
vertex 5.745591506540203 44.201012067147474 4.4399999999999995
vertex 5.358450891247751 42.14747925155389 4.4399999999999995
endloop
endfacet
facet normal 0.9725942746224073 0.2325088750385954 0
outer loop
vertex 5.745591506540203 44.201012067147474 0
vertex 5.00232524549836 47.31012568652782 0
vertex 5.745591506540203 44.201012067147474 4.4399999999999995
endloop
endfacet
facet normal 0.9725942746224073 0.2325088750385954 0
outer loop
vertex 5.00232524549836 47.31012568652782 0
vertex 5.00232524549836 47.31012568652782 4.4399999999999995
vertex 5.745591506540203 44.201012067147474 4.4399999999999995
endloop
endfacet
facet normal 0.992325977063442 0.123649323674193 0
outer loop
vertex 5.00232524549836 47.31012568652782 0
vertex 4.765979387606447 49.20687794839595 0
vertex 5.00232524549836 47.31012568652782 4.4399999999999995
endloop
endfacet
facet normal 0.992325977063442 0.123649323674193 0
outer loop
vertex 4.765979387606447 49.20687794839595 0
vertex 4.765979387606447 49.20687794839595 4.4399999999999995
vertex 5.00232524549836 47.31012568652782 4.4399999999999995
endloop
endfacet
facet normal 0.8993358533961799 0.4372585308443562 0
outer loop
vertex 4.765979387606447 49.20687794839595 0
vertex 3.1292810568452 52.57317359780253 0
vertex 4.765979387606447 49.20687794839595 4.4399999999999995
endloop
endfacet
facet normal 0.8993358533961799 0.4372585308443562 0
outer loop
vertex 3.1292810568452 52.57317359780253 0
vertex 3.1292810568452 52.57317359780253 4.4399999999999995
vertex 4.765979387606447 49.20687794839595 4.4399999999999995
endloop
endfacet
facet normal 0.2611639139988094 0.9652944680380297 0
outer loop
vertex 3.1292810568452 52.57317359780253 0
vertex -2.478173579463677 54.090290756223354 0
vertex 3.1292810568452 52.57317359780253 4.4399999999999995
endloop
endfacet
facet normal 0.2611639139988094 0.9652944680380297 0
outer loop
vertex -2.478173579463677 54.090290756223354 0
vertex -2.478173579463677 54.090290756223354 4.4399999999999995
vertex 3.1292810568452 52.57317359780253 4.4399999999999995
endloop
endfacet
facet normal 0.4453688012097445 0.8953472124874211 0
outer loop
vertex -2.478173579463677 54.090290756223354 0
vertex -3.030678010988966 54.365120713696356 0
vertex -2.478173579463677 54.090290756223354 4.4399999999999995
endloop
endfacet
facet normal 0.4453688012097445 0.8953472124874211 0
outer loop
vertex -3.030678010988966 54.365120713696356 0
vertex -3.030678010988966 54.365120713696356 4.4399999999999995
vertex -2.478173579463677 54.090290756223354 4.4399999999999995
endloop
endfacet
facet normal -0.0784135382741012 0.9969209181351028 0
outer loop
vertex -3.030678010988966 54.365120713696356 0
vertex -5.6911751201250755 54.15585738287405 0
vertex -3.030678010988966 54.365120713696356 4.4399999999999995
endloop
endfacet
facet normal -0.0784135382741012 0.9969209181351028 0
outer loop
vertex -5.6911751201250755 54.15585738287405 0
vertex -5.6911751201250755 54.15585738287405 4.4399999999999995
vertex -3.030678010988966 54.365120713696356 4.4399999999999995
endloop
endfacet
facet normal -0.09688169276177709 0.9952959045467898 0
outer loop
vertex -5.6911751201250755 54.15585738287405 0
vertex -10.15886034048108 53.72097474656706 0
vertex -5.6911751201250755 54.15585738287405 4.4399999999999995
endloop
endfacet
facet normal -0.09688169276177709 0.9952959045467898 0
outer loop
vertex -10.15886034048108 53.72097474656706 0
vertex -10.15886034048108 53.72097474656706 4.4399999999999995
vertex -5.6911751201250755 54.15585738287405 4.4399999999999995
endloop
endfacet
facet normal -0.6192666365556483 0.785180764441574 0
outer loop
vertex -10.15886034048108 53.72097474656706 0
vertex -12.005059970347622 52.26488987162638 0
vertex -10.15886034048108 53.72097474656706 4.4399999999999995
endloop
endfacet
facet normal -0.6192666365556483 0.785180764441574 0
outer loop
vertex -12.005059970347622 52.26488987162638 0
vertex -12.005059970347622 52.26488987162638 4.4399999999999995
vertex -10.15886034048108 53.72097474656706 4.4399999999999995
endloop
endfacet
facet normal -0.6820701091396147 0.7312867879418266 0
outer loop
vertex -12.005059970347622 52.26488987162638 0
vertex -13.545843718344537 50.827803141105 0
vertex -12.005059970347622 52.26488987162638 4.4399999999999995
endloop
endfacet
facet normal -0.6820701091396147 0.7312867879418266 0
outer loop
vertex -13.545843718344537 50.827803141105 0
vertex -13.545843718344537 50.827803141105 4.4399999999999995
vertex -12.005059970347622 52.26488987162638 4.4399999999999995
endloop
endfacet
facet normal -0.8095403682465934 0.5870642146981626 0
outer loop
vertex -13.545843718344537 50.827803141105 0
vertex -14.064366142788096 50.11277942833454 0
vertex -13.545843718344537 50.827803141105 4.4399999999999995
endloop
endfacet
facet normal -0.8095403682465934 0.5870642146981626 0
outer loop
vertex -14.064366142788096 50.11277942833454 0
vertex -14.064366142788096 50.11277942833454 4.4399999999999995
vertex -13.545843718344537 50.827803141105 4.4399999999999995
endloop
endfacet
facet normal -0.9514126158653022 0.30791887628455483 0
outer loop
vertex -14.064366142788096 50.11277942833454 0
vertex -14.700214451931883 48.1481252622906 0
vertex -14.064366142788096 50.11277942833454 4.4399999999999995
endloop
endfacet
facet normal -0.9514126158653022 0.30791887628455483 0
outer loop
vertex -14.700214451931883 48.1481252622906 0
vertex -14.700214451931883 48.1481252622906 4.4399999999999995
vertex -14.064366142788096 50.11277942833454 4.4399999999999995
endloop
endfacet
facet normal -0.9362012982671174 0.3514642643612064 0
outer loop
vertex -14.700214451931883 48.1481252622906 0
vertex -14.82367084478652 47.81927238309403 0
vertex -14.700214451931883 48.1481252622906 4.4399999999999995
endloop
endfacet
facet normal -0.9362012982671174 0.3514642643612064 0
outer loop
vertex -14.82367084478652 47.81927238309403 0
vertex -14.82367084478652 47.81927238309403 4.4399999999999995
vertex -14.700214451931883 48.1481252622906 4.4399999999999995
endloop
endfacet
facet normal -0.9720154418390413 0.23491696581229157 0
outer loop
vertex -14.82367084478652 47.81927238309403 0
vertex -15.68721364754245 44.246193120532695 0
vertex -14.82367084478652 47.81927238309403 4.4399999999999995
endloop
endfacet
facet normal -0.9720154418390413 0.23491696581229157 0
outer loop
vertex -15.68721364754245 44.246193120532695 0
vertex -15.68721364754245 44.246193120532695 4.4399999999999995
vertex -14.82367084478652 47.81927238309403 4.4399999999999995
endloop
endfacet
facet normal -0.9838193333390276 0.1791633872987207 0
outer loop
vertex -15.68721364754245 44.246193120532695 0
vertex -15.894652544626801 43.10710772750068 0
vertex -15.68721364754245 44.246193120532695 4.4399999999999995
endloop
endfacet
facet normal -0.9838193333390276 0.1791633872987207 0
outer loop
vertex -15.894652544626801 43.10710772750068 0
vertex -15.894652544626801 43.10710772750068 4.4399999999999995
vertex -15.68721364754245 44.246193120532695 4.4399999999999995
endloop
endfacet
facet normal -0.9976604666550238 -0.06836368388026007 0
outer loop
vertex -15.894652544626801 43.10710772750068 0
vertex -15.642448592499152 39.42658762837002 0
vertex -15.894652544626801 43.10710772750068 4.4399999999999995
endloop
endfacet
facet normal -0.9976604666550238 -0.06836368388026007 0
outer loop
vertex -15.642448592499152 39.42658762837002 0
vertex -15.642448592499152 39.42658762837002 4.4399999999999995
vertex -15.894652544626801 43.10710772750068 4.4399999999999995
endloop
endfacet
facet normal -0.9875472303986667 0.15732281376813328 0
outer loop
vertex -15.642448592499152 39.42658762837002 0
vertex -15.850458979195441 38.120864215751496 0
vertex -15.642448592499152 39.42658762837002 4.4399999999999995
endloop
endfacet
facet normal -0.9875472303986667 0.15732281376813328 0
outer loop
vertex -15.850458979195441 38.120864215751496 0
vertex -15.850458979195441 38.120864215751496 4.4399999999999995
vertex -15.642448592499152 39.42658762837002 4.4399999999999995
endloop
endfacet
facet normal -0.9666714873234444 -0.25601999061768577 0
outer loop
vertex -15.850458979195441 38.120864215751496 0
vertex -14.775058130477191 34.06040262682918 0
vertex -15.850458979195441 38.120864215751496 4.4399999999999995
endloop
endfacet
facet normal -0.9666714873234444 -0.25601999061768577 0
outer loop
vertex -14.775058130477191 34.06040262682918 0
vertex -14.775058130477191 34.06040262682918 4.4399999999999995
vertex -15.850458979195441 38.120864215751496 4.4399999999999995
endloop
endfacet
facet normal -0.9281747961990318 -0.3721445252867307 0
outer loop
vertex -14.775058130477191 34.06040262682918 0
vertex -14.453034782874091 33.25723629030295 0
vertex -14.775058130477191 34.06040262682918 4.4399999999999995
endloop
endfacet
facet normal -0.9281747961990318 -0.3721445252867307 0
outer loop
vertex -14.453034782874091 33.25723629030295 0
vertex -14.453034782874091 33.25723629030295 4.4399999999999995
vertex -14.775058130477191 34.06040262682918 4.4399999999999995
endloop
endfacet
facet normal 0 0 0.9999999999999999
outer loop
vertex 0.3767112988602983 32.066971162216205 4.4399999999999995
vertex 3.469440156220779 34.42243024493985 4.4399999999999995
vertex 0.45559193991949587 35.52255293921486 4.2124296995206505
endloop
endfacet
facet normal 0 0 1
outer loop
vertex 1.862569829490195 41.7019698558296 4.14581901592219
vertex 3.3063889709588437 43.66029770943082 4.341419972414299
vertex -0.3335068950896806 43.40535435972736 3.94236961009645
endloop
endfacet
facet normal 0 0 1
outer loop
vertex -5.758781151927693 49.451574958068704 4.077550770051806
vertex -8.427724217785963 51.57797428748837 4.381419582039675
vertex -8.338315763532954 48.35712521434132 4.067029753740547
endloop
endfacet
facet normal 0 0 1
outer loop
vertex -1.77643826420513 36.97393341136885 3.9315364668283195
vertex 0.45559193991949587 35.52255293921486 4.2124296995206505
vertex 0.9714566486089674 39.123038334222755 4.0933632434664595
endloop
endfacet
facet normal 0 0 1
outer loop
vertex 2.373614202276873 48.92107960614233 4.408163662632748
vertex 4.765979387606447 49.20687794839595 4.4399999999999995
vertex 3.1292810568452 52.57317359780253 4.4399999999999995
endloop
endfacet
facet normal 0 0 1
outer loop
vertex 5.00232524549836 47.31012568652782 4.4399999999999995
vertex 4.765979387606447 49.20687794839595 4.4399999999999995
vertex 2.373614202276873 48.92107960614233 4.408163662632748
endloop
endfacet
facet normal 0 0 1
outer loop
vertex 3.3063889709588437 43.66029770943082 4.341419972414299
vertex 5.745591506540203 44.201012067147474 4.4399999999999995
vertex 5.00232524549836 47.31012568652782 4.4399999999999995
endloop
endfacet
facet normal 0 0 1
outer loop
vertex 5.358450891247751 42.14747925155389 4.4399999999999995
vertex 5.745591506540203 44.201012067147474 4.4399999999999995
vertex 3.3063889709588437 43.66029770943082 4.341419972414299
endloop
endfacet
facet normal 0 0 1
outer loop
vertex 3.3063889709588437 43.66029770943082 4.341419972414299
vertex 5.00232524549836 47.31012568652782 4.4399999999999995
vertex 1.964931300395124 46.1768442765208 4.215217982524521
endloop
endfacet
facet normal 0 0 1
outer loop
vertex 3.3063889709588437 43.66029770943082 4.341419972414299
vertex 1.964931300395124 46.1768442765208 4.215217982524521
vertex -0.3335068950896806 43.40535435972736 3.94236961009645
endloop
endfacet
facet normal 0 0 1
outer loop
vertex 1.964931300395124 46.1768442765208 4.215217982524521
vertex 5.00232524549836 47.31012568652782 4.4399999999999995
vertex 2.373614202276873 48.92107960614233 4.408163662632748
endloop
endfacet
facet normal 0 0 1
outer loop
vertex -5.367149281106707 33.223196186826975 4.028628506015447
vertex -2.5649867723744806 33.93432013239515 4.065378880491948
vertex -4.824111148326003 36.4649498748156 3.8099228865695443
endloop
endfacet
facet normal 0 0 1
outer loop
vertex -4.824111148326003 36.4649498748156 3.8099228865695443
vertex -7.493861902653093 34.492392403739665 3.928322460211241
vertex -5.367149281106707 33.223196186826975 4.028628506015447
endloop
endfacet
facet normal 0 0 1
outer loop
vertex -9.164656162637815 31.108618228067563 4.337544957676576
vertex -7.196105562925357 29.123416243331448 4.4399999999999995
vertex -6.423289430986824 28.823496555184754 4.4399999999999995
endloop
endfacet
facet normal 0 0 1
outer loop
vertex -10.861536687625934 35.23816233480073 4.038092570448346
vertex -11.015663832506682 32.909475252684665 4.250585177991945
vertex -8.906894969734381 32.77865271583572 4.124163888715049
endloop
endfacet
facet normal 0 0 1
outer loop
vertex -7.493861902653093 34.492392403739665 3.928322460211241
vertex -10.861536687625934 35.23816233480073 4.038092570448346
vertex -8.906894969734381 32.77865271583572 4.124163888715049
endloop
endfacet
facet normal 0 0 1
outer loop
vertex -6.423289430986824 28.823496555184754 4.4399999999999995
vertex -5.671458505400817 29.12597974036547 4.4399999999999995
vertex -4.4032933200049165 31.369129363700946 4.256266158232843
endloop
endfacet
facet normal 0 0 1
outer loop
vertex -2.9434366084189705 50.12113624163577 4.142131011069311
vertex -5.758781151927693 49.451574958068704 4.077550770051806
vertex -3.968540923797466 46.87286696287095 3.8890658186774374
endloop
endfacet
facet normal 0 0 1
outer loop
vertex -3.968540923797466 46.87286696287095 3.8890658186774374
vertex -0.6648098717977092 47.42671244651898 4.05620314124581
vertex -2.9434366084189705 50.12113624163577 4.142131011069311
endloop
endfacet
facet normal 0 0 1
outer loop
vertex -11.289877815858588 47.965539175942844 4.26301187300908
vertex -14.700214451931883 48.1481252622906 4.4399999999999995
vertex -12.19373649030107 45.17846326593023 4.188754040693231
endloop
endfacet
facet normal 0 0 1
outer loop
vertex -9.63986376944914 43.892863095461855 3.895060951074985
vertex -12.19373649030107 45.17846326593023 4.188754040693231
vertex -11.849038288020887 41.94576033931868 4.035041682099575
endloop
endfacet
facet normal 0 0 1
outer loop
vertex -13.487178960108249 37.63589376602752 4.260300315689163
vertex -14.775058130477191 34.06040262682918 4.4399999999999995
vertex -10.861536687625934 35.23816233480073 4.038092570448346
endloop
endfacet
facet normal 0 0 1
outer loop
vertex -10.66093621112593 39.179456041446855 3.912959287158788
vertex -13.487178960108249 37.63589376602752 4.260300315689163
vertex -10.861536687625934 35.23816233480073 4.038092570448346
endloop
endfacet
facet normal 0 0 1
outer loop
vertex 2.373614202276873 48.92107960614233 4.408163662632748
vertex 3.1292810568452 52.57317359780253 4.4399999999999995
vertex -0.09006942001880472 50.657077911758854 4.3191588763087845
endloop
endfacet
facet normal 0 0 1
outer loop
vertex -0.6648098717977092 47.42671244651898 4.05620314124581
vertex 2.373614202276873 48.92107960614233 4.408163662632748
vertex -0.09006942001880472 50.657077911758854 4.3191588763087845
endloop
endfacet
facet normal 0 0 1
outer loop
vertex 3.484409829431845 40.61929118977415 4.385863325796216
vertex 5.358450891247751 42.14747925155389 4.4399999999999995
vertex 3.3063889709588437 43.66029770943082 4.341419972414299
endloop
endfacet
facet normal 0 0 1
outer loop
vertex 3.484409829431845 40.61929118977415 4.385863325796216
vertex 3.3063889709588437 43.66029770943082 4.341419972414299
vertex 1.862569829490195 41.7019698558296 4.14581901592219
endloop
endfacet
facet normal 0 0 1
outer loop
vertex -5.180181994309183 42.46841454449761 3.710379358725147
vertex -7.800702651554239 40.48365346070018 3.7438083621416975
vertex -5.709739089027535 39.36086969573776 3.71177880175441
endloop
endfacet
facet normal 0 0 1
outer loop
vertex -5.709739089027535 39.36086969573776 3.71177880175441
vertex -2.807634022349473 40.031215878067 3.7816523658316727
vertex -5.180181994309183 42.46841454449761 3.710379358725147
endloop
endfacet
facet normal 0 0 1
outer loop
vertex -4.824111148326003 36.4649498748156 3.8099228865695443
vertex -2.807634022349473 40.031215878067 3.7816523658316727
vertex -5.709739089027535 39.36086969573776 3.71177880175441
endloop
endfacet
facet normal 0 0 1
outer loop
vertex -0.3335068950896806 43.40535435972736 3.94236961009645
vertex 0.9714566486089674 39.123038334222755 4.0933632434664595
vertex 1.862569829490195 41.7019698558296 4.14581901592219
endloop
endfacet
facet normal 0 0 1
outer loop
vertex -8.427724217785963 51.57797428748837 4.381419582039675
vertex -10.487423814089182 50.00375510988872 4.352837914647368
vertex -8.338315763532954 48.35712521434132 4.067029753740547
endloop
endfacet
facet normal 0 0 1
outer loop
vertex -8.338315763532954 48.35712521434132 4.067029753740547
vertex -10.487423814089182 50.00375510988872 4.352837914647368
vertex -11.289877815858588 47.965539175942844 4.26301187300908
endloop
endfacet
facet normal 0 0 1
outer loop
vertex -7.800702651554239 40.48365346070018 3.7438083621416975
vertex -9.548201000384337 41.667357139595 3.8383371751515103
vertex -10.66093621112593 39.179456041446855 3.912959287158788
endloop
endfacet
facet normal 0 0 1
outer loop
vertex -9.63986376944914 43.892863095461855 3.895060951074985
vertex -11.849038288020887 41.94576033931868 4.035041682099575
vertex -9.548201000384337 41.667357139595 3.8383371751515103
endloop
endfacet
facet normal 0 0 1
outer loop
vertex -4.730475037396146 44.78964312746329 3.787313388229557
vertex -3.116499265335717 44.295599116149596 3.8008600804208434
vertex -3.968540923797466 46.87286696287095 3.8890658186774374
endloop
endfacet
facet normal 0 0 1
outer loop
vertex -5.180181994309183 42.46841454449761 3.710379358725147
vertex -3.116499265335717 44.295599116149596 3.8008600804208434
vertex -4.730475037396146 44.78964312746329 3.787313388229557
endloop
endfacet
facet normal 0 0 1
outer loop
vertex -4.730475037396146 44.78964312746329 3.787313388229557
vertex -6.888005720386997 45.40594432193674 3.8243586961108145
vertex -5.180181994309183 42.46841454449761 3.710379358725147
endloop
endfacet
facet normal 0 0 1
outer loop
vertex -3.968540923797466 46.87286696287095 3.8890658186774374
vertex -6.888005720386997 45.40594432193674 3.8243586961108145
vertex -4.730475037396146 44.78964312746329 3.787313388229557
endloop
endfacet
facet normal 0 0 1
outer loop
vertex -5.180181994309183 42.46841454449761 3.710379358725147
vertex -7.788254981921722 42.79843148201492 3.755986727799524
vertex -7.800702651554239 40.48365346070018 3.7438083621416975
endloop
endfacet
facet normal 0 0 1
outer loop
vertex -6.888005720386997 45.40594432193674 3.8243586961108145
vertex -9.63986376944914 43.892863095461855 3.895060951074985
vertex -7.788254981921722 42.79843148201492 3.755986727799524
endloop
endfacet
facet normal 0 0 1
outer loop
vertex -6.888005720386997 45.40594432193674 3.8243586961108145
vertex -7.788254981921722 42.79843148201492 3.755986727799524
vertex -5.180181994309183 42.46841454449761 3.710379358725147
endloop
endfacet
facet normal 0 0 1
outer loop
vertex -7.800702651554239 40.48365346070018 3.7438083621416975
vertex -10.66093621112593 39.179456041446855 3.912959287158788
vertex -7.91031531814775 37.50383220160691 3.795159341107092
endloop
endfacet
facet normal 0 0 1
outer loop
vertex -4.824111148326003 36.4649498748156 3.8099228865695443
vertex -7.91031531814775 37.50383220160691 3.795159341107092
vertex -7.493861902653093 34.492392403739665 3.928322460211241
endloop
endfacet
facet normal 0 0 1
outer loop
vertex -12.496230060538146 49.716884001611405 4.4399999999999995
vertex -14.064366142788096 50.11277942833454 4.4399999999999995
vertex -14.700214451931883 48.1481252622906 4.4399999999999995
endloop
endfacet
facet normal 0 0 1
outer loop
vertex -12.005059970347622 52.26488987162638 4.4399999999999995
vertex -14.064366142788096 50.11277942833454 4.4399999999999995
vertex -12.496230060538146 49.716884001611405 4.4399999999999995
endloop
endfacet
facet normal 0 0 1
outer loop
vertex -11.289877815858588 47.965539175942844 4.26301187300908
vertex -12.496230060538146 49.716884001611405 4.4399999999999995
vertex -14.700214451931883 48.1481252622906 4.4399999999999995
endloop
endfacet
facet normal 0 0 0.9999999999999999
outer loop
vertex -5.021531781897572 51.91675879447206 4.321719565251978
vertex -5.6911751201250755 54.15585738287405 4.4399999999999995
vertex -8.427724217785963 51.57797428748837 4.381419582039675
endloop
endfacet
facet normal 0 0 0.9999999999999999
outer loop
vertex -2.478173579463677 54.090290756223354 4.4399999999999995
vertex -5.6911751201250755 54.15585738287405 4.4399999999999995
vertex -5.021531781897572 51.91675879447206 4.321719565251978
endloop
endfacet
facet normal 0 0 1
outer loop
vertex -5.021531781897572 51.91675879447206 4.321719565251978
vertex -8.427724217785963 51.57797428748837 4.381419582039675
vertex -5.758781151927693 49.451574958068704 4.077550770051806
endloop
endfacet
facet normal 0 0 1
outer loop
vertex -2.5649867723744806 33.93432013239515 4.065378880491948
vertex 0.45559193991949587 35.52255293921486 4.2124296995206505
vertex -1.77643826420513 36.97393341136885 3.9315364668283195
endloop
endfacet
facet normal 0 0 1
outer loop
vertex -5.180181994309183 42.46841454449761 3.710379358725147
vertex -2.825708212060737 42.552496337101715 3.7647889285515665
vertex -3.116499265335717 44.295599116149596 3.8008600804208434
endloop
endfacet
facet normal 0 0 1
outer loop
vertex -2.825708212060737 42.552496337101715 3.7647889285515665
vertex -0.3335068950896806 43.40535435972736 3.94236961009645
vertex -3.116499265335717 44.295599116149596 3.8008600804208434
endloop
endfacet
facet normal 0 0 1
outer loop
vertex -2.807634022349473 40.031215878067 3.7816523658316727
vertex -0.3335068950896806 43.40535435972736 3.94236961009645
vertex -2.825708212060737 42.552496337101715 3.7647889285515665
endloop
endfacet
facet normal 0 0 1
outer loop
vertex -2.807634022349473 40.031215878067 3.7816523658316727
vertex -2.825708212060737 42.552496337101715 3.7647889285515665
vertex -5.180181994309183 42.46841454449761 3.710379358725147
endloop
endfacet
facet normal 0 0 1
outer loop
vertex -3.116499265335717 44.295599116149596 3.8008600804208434
vertex -0.3335068950896806 43.40535435972736 3.94236961009645
vertex -1.9636210746740517 45.538141192285266 3.8927812071946706
endloop
endfacet
facet normal 0 0 1
outer loop
vertex -3.116499265335717 44.295599116149596 3.8008600804208434
vertex -1.9636210746740517 45.538141192285266 3.8927812071946706
vertex -3.968540923797466 46.87286696287095 3.8890658186774374
endloop
endfacet
facet normal 0 0 1
outer loop
vertex -3.968540923797466 46.87286696287095 3.8890658186774374
vertex -1.9636210746740517 45.538141192285266 3.8927812071946706
vertex -0.6648098717977092 47.42671244651898 4.05620314124581
endloop
endfacet
facet normal 0 0 1
outer loop
vertex -1.9636210746740517 45.538141192285266 3.8927812071946706
vertex -0.3335068950896806 43.40535435972736 3.94236961009645
vertex -0.6648098717977092 47.42671244651898 4.05620314124581
endloop
endfacet
facet normal 0 0 1
outer loop
vertex -8.338315763532954 48.35712521434132 4.067029753740547
vertex -9.636860961335048 46.209145439301246 3.9922119423615454
vertex -6.888005720386997 45.40594432193674 3.8243586961108145
endloop
endfacet
facet normal 0 0 1
outer loop
vertex -9.636860961335048 46.209145439301246 3.9922119423615454
vertex -9.63986376944914 43.892863095461855 3.895060951074985
vertex -6.888005720386997 45.40594432193674 3.8243586961108145
endloop
endfacet
facet normal 0 0 1
outer loop
vertex -8.338315763532954 48.35712521434132 4.067029753740547
vertex -11.289877815858588 47.965539175942844 4.26301187300908
vertex -9.636860961335048 46.209145439301246 3.9922119423615454
endloop
endfacet
facet normal 0 0 1
outer loop
vertex -3.968540923797466 46.87286696287095 3.8890658186774374
vertex -6.177317118119664 47.57292390361266 3.9384471414597035
vertex -6.888005720386997 45.40594432193674 3.8243586961108145
endloop
endfacet
facet normal 0 0 1
outer loop
vertex -6.177317118119664 47.57292390361266 3.9384471414597035
vertex -8.338315763532954 48.35712521434132 4.067029753740547
vertex -6.888005720386997 45.40594432193674 3.8243586961108145
endloop
endfacet
facet normal 0 0 1
outer loop
vertex -5.758781151927693 49.451574958068704 4.077550770051806
vertex -8.338315763532954 48.35712521434132 4.067029753740547
vertex -6.177317118119664 47.57292390361266 3.9384471414597035
endloop
endfacet
facet normal 0 0 1
outer loop
vertex -5.758781151927693 49.451574958068704 4.077550770051806
vertex -6.177317118119664 47.57292390361266 3.9384471414597035
vertex -3.968540923797466 46.87286696287095 3.8890658186774374
endloop
endfacet
facet normal 0 0 1
outer loop
vertex -4.824111148326003 36.4649498748156 3.8099228865695443
vertex -1.77643826420513 36.97393341136885 3.9315364668283195
vertex -2.807634022349473 40.031215878067 3.7816523658316727
endloop
endfacet
facet normal 0 0 1
outer loop
vertex -2.5649867723744806 33.93432013239515 4.065378880491948
vertex -1.77643826420513 36.97393341136885 3.9315364668283195
vertex -4.824111148326003 36.4649498748156 3.8099228865695443
endloop
endfacet
facet normal 0 0 1
outer loop
vertex -1.77643826420513 36.97393341136885 3.9315364668283195
vertex 0.9714566486089674 39.123038334222755 4.0933632434664595
vertex -2.807634022349473 40.031215878067 3.7816523658316727
endloop
endfacet
facet normal 0 0 1
outer loop
vertex 0.9714566486089674 39.123038334222755 4.0933632434664595
vertex -0.3335068950896806 43.40535435972736 3.94236961009645
vertex -2.807634022349473 40.031215878067 3.7816523658316727
endloop
endfacet
facet normal 0 0 1
outer loop
vertex -0.3335068950896806 43.40535435972736 3.94236961009645
vertex 1.964931300395124 46.1768442765208 4.215217982524521
vertex -0.6648098717977092 47.42671244651898 4.05620314124581
endloop
endfacet
facet normal 0 0 1
outer loop
vertex 1.964931300395124 46.1768442765208 4.215217982524521
vertex 2.373614202276873 48.92107960614233 4.408163662632748
vertex -0.6648098717977092 47.42671244651898 4.05620314124581
endloop
endfacet
facet normal 0 0 1
outer loop
vertex -2.5914277709306437 31.194456795528353 4.372708991256011
vertex -0.9368564456685193 31.331081983245163 4.4399999999999995
vertex 0.3767112988602983 32.066971162216205 4.4399999999999995
endloop
endfacet
facet normal 0 0 1
outer loop
vertex -4.4032933200049165 31.369129363700946 4.256266158232843
vertex -5.671458505400817 29.12597974036547 4.4399999999999995
vertex -2.5914277709306437 31.194456795528353 4.372708991256011
endloop
endfacet
facet normal 0 0 1
outer loop
vertex -7.493861902653093 34.492392403739665 3.928322460211241
vertex -8.906894969734381 32.77865271583572 4.124163888715049
vertex -6.990117636230567 31.934486791960413 4.158996050407498
endloop
endfacet
facet normal 0 0 1
outer loop
vertex -5.367149281106707 33.223196186826975 4.028628506015447
vertex -7.493861902653093 34.492392403739665 3.928322460211241
vertex -6.990117636230567 31.934486791960413 4.158996050407498
endloop
endfacet
facet normal 0 0 1
outer loop
vertex -4.4032933200049165 31.369129363700946 4.256266158232843
vertex -2.5649867723744806 33.93432013239515 4.065378880491948
vertex -5.367149281106707 33.223196186826975 4.028628506015447
endloop
endfacet
facet normal 0 0 1
outer loop
vertex -0.6648098717977092 47.42671244651898 4.05620314124581
vertex -0.09006942001880472 50.657077911758854 4.3191588763087845
vertex -2.9434366084189705 50.12113624163577 4.142131011069311
endloop
endfacet
facet normal 0 0 1
outer loop
vertex -12.19373649030107 45.17846326593023 4.188754040693231
vertex -14.087850096258311 42.768515199845005 4.359687643445137
vertex -11.849038288020887 41.94576033931868 4.035041682099575
endloop
endfacet
facet normal 0 0 1
outer loop
vertex -15.642448592499152 39.42658762837002 4.4399999999999995
vertex -15.850458979195441 38.120864215751496 4.4399999999999995
vertex -13.487178960108249 37.63589376602752 4.260300315689163
endloop
endfacet
facet normal 0 0 1
outer loop
vertex -8.906894969734381 32.77865271583572 4.124163888715049
vertex -11.015663832506682 32.909475252684665 4.250585177991945
vertex -9.164656162637815 31.108618228067563 4.337544957676576
endloop
endfacet
facet normal 0 0 1
outer loop
vertex -11.849038288020887 41.94576033931868 4.035041682099575
vertex -13.077097455171227 39.83813166499848 4.168262709720563
vertex -10.66093621112593 39.179456041446855 3.912959287158788
endloop
endfacet
facet normal 0 0 1
outer loop
vertex -10.66093621112593 39.179456041446855 3.912959287158788
vertex -13.077097455171227 39.83813166499848 4.168262709720563
vertex -13.487178960108249 37.63589376602752 4.260300315689163
endloop
endfacet
facet normal 0 0 1
outer loop
vertex -13.077097455171227 39.83813166499848 4.168262709720563
vertex -15.642448592499152 39.42658762837002 4.4399999999999995
vertex -13.487178960108249 37.63589376602752 4.260300315689163
endloop
endfacet
facet normal 0 0 1
outer loop
vertex -9.548201000384337 41.667357139595 3.8383371751515103
vertex -11.849038288020887 41.94576033931868 4.035041682099575
vertex -10.66093621112593 39.179456041446855 3.912959287158788
endloop
endfacet
facet normal 0 0 1
outer loop
vertex -15.330874444543111 42.393160234943906 4.4399999999999995
vertex -15.894652544626801 43.10710772750068 4.4399999999999995
vertex -15.642448592499152 39.42658762837002 4.4399999999999995
endloop
endfacet
facet normal 0 0 1
outer loop
vertex -15.68721364754245 44.246193120532695 4.4399999999999995
vertex -15.894652544626801 43.10710772750068 4.4399999999999995
vertex -15.330874444543111 42.393160234943906 4.4399999999999995
endloop
endfacet
facet normal 0 0 1
outer loop
vertex -14.087850096258311 42.768515199845005 4.359687643445137
vertex -15.68721364754245 44.246193120532695 4.4399999999999995
vertex -15.330874444543111 42.393160234943906 4.4399999999999995
endloop
endfacet
facet normal 0 0 1
outer loop
vertex -7.91031531814775 37.50383220160691 3.795159341107092
vertex -10.861536687625934 35.23816233480073 4.038092570448346
vertex -7.493861902653093 34.492392403739665 3.928322460211241
endloop
endfacet
facet normal 0 0 1
outer loop
vertex -10.66093621112593 39.179456041446855 3.912959287158788
vertex -10.861536687625934 35.23816233480073 4.038092570448346
vertex -7.91031531814775 37.50383220160691 3.795159341107092
endloop
endfacet
facet normal 0 0 1
outer loop
vertex -10.861536687625934 35.23816233480073 4.038092570448346
vertex -14.775058130477191 34.06040262682918 4.4399999999999995
vertex -12.557903330694772 33.53500994667404 4.358074354435733
endloop
endfacet
facet normal 0 0 1
outer loop
vertex -10.861536687625934 35.23816233480073 4.038092570448346
vertex -12.557903330694772 33.53500994667404 4.358074354435733
vertex -11.015663832506682 32.909475252684665 4.250585177991945
endloop
endfacet
facet normal 0 0 1
outer loop
vertex -12.557903330694772 33.53500994667404 4.358074354435733
vertex -13.571407136226235 31.98363942927446 4.4399999999999995
vertex -11.015663832506682 32.909475252684665 4.250585177991945
endloop
endfacet
facet normal 0 0 1
outer loop
vertex -14.775058130477191 34.06040262682918 4.4399999999999995
vertex -13.571407136226235 31.98363942927446 4.4399999999999995
vertex -12.557903330694772 33.53500994667404 4.358074354435733
endloop
endfacet
facet normal 0 0 1
outer loop
vertex -2.478173579463677 54.090290756223354 4.4399999999999995
vertex -5.021531781897572 51.91675879447206 4.321719565251978
vertex -2.9434366084189705 50.12113624163577 4.142131011069311
endloop
endfacet
facet normal 0 0 1
outer loop
vertex -5.021531781897572 51.91675879447206 4.321719565251978
vertex -5.758781151927693 49.451574958068704 4.077550770051806
vertex -2.9434366084189705 50.12113624163577 4.142131011069311
endloop
endfacet
facet normal 0 0 1
outer loop
vertex 0.9714566486089674 39.123038334222755 4.0933632434664595
vertex 4.571402664002064 38.0980565709133 4.4399999999999995
vertex 3.484409829431845 40.61929118977415 4.385863325796216
endloop
endfacet
facet normal 0 0 1
outer loop
vertex 0.9714566486089674 39.123038334222755 4.0933632434664595
vertex 3.484409829431845 40.61929118977415 4.385863325796216
vertex 1.862569829490195 41.7019698558296 4.14581901592219
endloop
endfacet
facet normal 0 0 1
outer loop
vertex -7.800702651554239 40.48365346070018 3.7438083621416975
vertex -7.788254981921722 42.79843148201492 3.755986727799524
vertex -9.548201000384337 41.667357139595 3.8383371751515103
endloop
endfacet
facet normal 0 0 1
outer loop
vertex -7.788254981921722 42.79843148201492 3.755986727799524
vertex -9.63986376944914 43.892863095461855 3.895060951074985
vertex -9.548201000384337 41.667357139595 3.8383371751515103
endloop
endfacet
facet normal 0 0 1
outer loop
vertex -5.709739089027535 39.36086969573776 3.71177880175441
vertex -7.91031531814775 37.50383220160691 3.795159341107092
vertex -4.824111148326003 36.4649498748156 3.8099228865695443
endloop
endfacet
facet normal 0 0 1
outer loop
vertex -7.800702651554239 40.48365346070018 3.7438083621416975
vertex -7.91031531814775 37.50383220160691 3.795159341107092
vertex -5.709739089027535 39.36086969573776 3.71177880175441
endloop
endfacet
facet normal 0 0 0.9999999999999999
outer loop
vertex 2.359171990928347 36.77752546593946 4.372067749088057
vertex 3.469440156220779 34.42243024493985 4.4399999999999995
vertex 4.571402664002064 38.0980565709133 4.4399999999999995
endloop
endfacet
facet normal 0 0 0.9999999999999999
outer loop
vertex 0.45559193991949587 35.52255293921486 4.2124296995206505
vertex 3.469440156220779 34.42243024493985 4.4399999999999995
vertex 2.359171990928347 36.77752546593946 4.372067749088057
endloop
endfacet
facet normal 0 0 1
outer loop
vertex 0.9714566486089674 39.123038334222755 4.0933632434664595
vertex 0.45559193991949587 35.52255293921486 4.2124296995206505
vertex 2.359171990928347 36.77752546593946 4.372067749088057
endloop
endfacet
facet normal 0 0 1
outer loop
vertex 0.9714566486089674 39.123038334222755 4.0933632434664595
vertex 2.359171990928347 36.77752546593946 4.372067749088057
vertex 4.571402664002064 38.0980565709133 4.4399999999999995
endloop
endfacet
facet normal 0 0 1
outer loop
vertex -9.636860961335048 46.209145439301246 3.9922119423615454
vertex -12.19373649030107 45.17846326593023 4.188754040693231
vertex -9.63986376944914 43.892863095461855 3.895060951074985
endloop
endfacet
facet normal 0 0 1
outer loop
vertex -11.289877815858588 47.965539175942844 4.26301187300908
vertex -12.19373649030107 45.17846326593023 4.188754040693231
vertex -9.636860961335048 46.209145439301246 3.9922119423615454
endloop
endfacet
facet normal 0 0 1
outer loop
vertex 3.484409829431845 40.61929118977415 4.385863325796216
vertex 4.845756681896987 39.00260899081853 4.4399999999999995
vertex 5.358450891247751 42.14747925155389 4.4399999999999995
endloop
endfacet
facet normal 0 0 1
outer loop
vertex 4.571402664002064 38.0980565709133 4.4399999999999995
vertex 4.845756681896987 39.00260899081853 4.4399999999999995
vertex 3.484409829431845 40.61929118977415 4.385863325796216
endloop
endfacet
facet normal 0 0 0.9999999999999999
outer loop
vertex -8.427724217785963 51.57797428748837 4.381419582039675
vertex -10.186790700091741 52.53116671352963 4.4399999999999995
vertex -12.005059970347622 52.26488987162638 4.4399999999999995
endloop
endfacet
facet normal 0 0 1
outer loop
vertex -10.186790700091741 52.53116671352963 4.4399999999999995
vertex -10.15886034048108 53.72097474656706 4.4399999999999995
vertex -12.005059970347622 52.26488987162638 4.4399999999999995
endloop
endfacet
facet normal 0 0 1
outer loop
vertex -8.427724217785963 51.57797428748837 4.381419582039675
vertex -10.15886034048108 53.72097474656706 4.4399999999999995
vertex -10.186790700091741 52.53116671352963 4.4399999999999995
endloop
endfacet
facet normal 0 0 1
outer loop
vertex -8.427724217785963 51.57797428748837 4.381419582039675
vertex -12.005059970347622 52.26488987162638 4.4399999999999995
vertex -10.487423814089182 50.00375510988872 4.352837914647368
endloop
endfacet
facet normal 0 0 1
outer loop
vertex -10.487423814089182 50.00375510988872 4.352837914647368
vertex -12.005059970347622 52.26488987162638 4.4399999999999995
vertex -12.496230060538146 49.716884001611405 4.4399999999999995
endloop
endfacet
facet normal 0 0 1
outer loop
vertex -10.487423814089182 50.00375510988872 4.352837914647368
vertex -12.496230060538146 49.716884001611405 4.4399999999999995
vertex -11.289877815858588 47.965539175942844 4.26301187300908
endloop
endfacet
facet normal 0 0 1
outer loop
vertex -2.5649867723744806 33.93432013239515 4.065378880491948
vertex 0.3767112988602983 32.066971162216205 4.4399999999999995
vertex 0.45559193991949587 35.52255293921486 4.2124296995206505
endloop
endfacet
facet normal 0 0 1
outer loop
vertex -13.571407136226235 31.98363942927446 4.4399999999999995
vertex -7.196105562925357 29.123416243331448 4.4399999999999995
vertex -9.164656162637815 31.108618228067563 4.337544957676576
endloop
endfacet
facet normal 0 0 1
outer loop
vertex -0.09006942001880472 50.657077911758854 4.3191588763087845
vertex 3.1292810568452 52.57317359780253 4.4399999999999995
vertex -2.478173579463677 54.090290756223354 4.4399999999999995
endloop
endfacet
facet normal 0 0 1
outer loop
vertex -5.671458505400817 29.12597974036547 4.4399999999999995
vertex -0.9368564456685193 31.331081983245163 4.4399999999999995
vertex -2.5914277709306437 31.194456795528353 4.372708991256011
endloop
endfacet
facet normal 0 0 1
outer loop
vertex -14.17103969212883 45.09956432842538 4.4399999999999995
vertex -15.68721364754245 44.246193120532695 4.4399999999999995
vertex -14.087850096258311 42.768515199845005 4.359687643445137
endloop
endfacet
facet normal 0 0 1
outer loop
vertex -14.700214451931883 48.1481252622906 4.4399999999999995
vertex -15.68721364754245 44.246193120532695 4.4399999999999995
vertex -14.17103969212883 45.09956432842538 4.4399999999999995
endloop
endfacet
facet normal 0 0 1
outer loop
vertex -14.700214451931883 48.1481252622906 4.4399999999999995
vertex -14.17103969212883 45.09956432842538 4.4399999999999995
vertex -12.19373649030107 45.17846326593023 4.188754040693231
endloop
endfacet
facet normal 0 0 1
outer loop
vertex -14.17103969212883 45.09956432842538 4.4399999999999995
vertex -14.087850096258311 42.768515199845005 4.359687643445137
vertex -12.19373649030107 45.17846326593023 4.188754040693231
endloop
endfacet
facet normal 0 0 1
outer loop
vertex -5.6911751201250755 54.15585738287405 4.4399999999999995
vertex -10.15886034048108 53.72097474656706 4.4399999999999995
vertex -8.427724217785963 51.57797428748837 4.381419582039675
endloop
endfacet
facet normal 0 0 1
outer loop
vertex -14.087850096258311 42.768515199845005 4.359687643445137
vertex -15.642448592499152 39.42658762837002 4.4399999999999995
vertex -13.67627023256643 41.00660098072981 4.265797956638573
endloop
endfacet
facet normal 0 0 1
outer loop
vertex -14.087850096258311 42.768515199845005 4.359687643445137
vertex -13.67627023256643 41.00660098072981 4.265797956638573
vertex -11.849038288020887 41.94576033931868 4.035041682099575
endloop
endfacet
facet normal 0 0 1
outer loop
vertex -11.849038288020887 41.94576033931868 4.035041682099575
vertex -13.67627023256643 41.00660098072981 4.265797956638573
vertex -13.077097455171227 39.83813166499848 4.168262709720563
endloop
endfacet
facet normal 0 0 1
outer loop
vertex -13.67627023256643 41.00660098072981 4.265797956638573
vertex -15.642448592499152 39.42658762837002 4.4399999999999995
vertex -13.077097455171227 39.83813166499848 4.168262709720563
endloop
endfacet
facet normal 0 0 1
outer loop
vertex -11.015663832506682 32.909475252684665 4.250585177991945
vertex -13.571407136226235 31.98363942927446 4.4399999999999995
vertex -9.164656162637815 31.108618228067563 4.337544957676576
endloop
endfacet
facet normal 0 0 1
outer loop
vertex -14.087850096258311 42.768515199845005 4.359687643445137
vertex -15.330874444543111 42.393160234943906 4.4399999999999995
vertex -15.642448592499152 39.42658762837002 4.4399999999999995
endloop
endfacet
facet normal 0 0 1
outer loop
vertex -13.487178960108249 37.63589376602752 4.260300315689163
vertex -15.850458979195441 38.120864215751496 4.4399999999999995
vertex -14.775058130477191 34.06040262682918 4.4399999999999995
endloop
endfacet
facet normal 0 0 1
outer loop
vertex -4.4032933200049165 31.369129363700946 4.256266158232843
vertex -2.307750796168225 32.12437882815635 4.270273660555976
vertex -2.5649867723744806 33.93432013239515 4.065378880491948
endloop
endfacet
facet normal 0 0 1
outer loop
vertex -2.307750796168225 32.12437882815635 4.270273660555976
vertex 0.3767112988602983 32.066971162216205 4.4399999999999995
vertex -2.5649867723744806 33.93432013239515 4.065378880491948
endloop
endfacet
facet normal 0 0 1
outer loop
vertex -2.307750796168225 32.12437882815635 4.270273660555976
vertex -2.5914277709306437 31.194456795528353 4.372708991256011
vertex 0.3767112988602983 32.066971162216205 4.4399999999999995
endloop
endfacet
facet normal 0 0 1
outer loop
vertex -4.4032933200049165 31.369129363700946 4.256266158232843
vertex -2.5914277709306437 31.194456795528353 4.372708991256011
vertex -2.307750796168225 32.12437882815635 4.270273660555976
endloop
endfacet
facet normal 0 0 1
outer loop
vertex -5.807837271465296 31.318513940237903 4.230049790555812
vertex -4.4032933200049165 31.369129363700946 4.256266158232843
vertex -5.367149281106707 33.223196186826975 4.028628506015447
endloop
endfacet
facet normal 0 0 1
outer loop
vertex -6.423289430986824 28.823496555184754 4.4399999999999995
vertex -4.4032933200049165 31.369129363700946 4.256266158232843
vertex -5.807837271465296 31.318513940237903 4.230049790555812
endloop
endfacet
facet normal 0 0 1
outer loop
vertex -5.807837271465296 31.318513940237903 4.230049790555812
vertex -6.990117636230567 31.934486791960413 4.158996050407498
vertex -6.423289430986824 28.823496555184754 4.4399999999999995
endloop
endfacet
facet normal 0 0 1
outer loop
vertex -5.367149281106707 33.223196186826975 4.028628506015447
vertex -6.990117636230567 31.934486791960413 4.158996050407498
vertex -5.807837271465296 31.318513940237903 4.230049790555812
endloop
endfacet
facet normal 0 0 1
outer loop
vertex -7.875452252907156 31.14404225986897 4.27211471241339
vertex -9.164656162637815 31.108618228067563 4.337544957676576
vertex -6.423289430986824 28.823496555184754 4.4399999999999995
endloop
endfacet
facet normal 0 0 1
outer loop
vertex -8.906894969734381 32.77865271583572 4.124163888715049
vertex -9.164656162637815 31.108618228067563 4.337544957676576
vertex -7.875452252907156 31.14404225986897 4.27211471241339
endloop
endfacet
facet normal 0 0 1
outer loop
vertex -6.990117636230567 31.934486791960413 4.158996050407498
vertex -8.906894969734381 32.77865271583572 4.124163888715049
vertex -7.875452252907156 31.14404225986897 4.27211471241339
endloop
endfacet
facet normal 0 0 1
outer loop
vertex -6.990117636230567 31.934486791960413 4.158996050407498
vertex -7.875452252907156 31.14404225986897 4.27211471241339
vertex -6.423289430986824 28.823496555184754 4.4399999999999995
endloop
endfacet
facet normal 0 0 1
outer loop
vertex -2.9434366084189705 50.12113624163577 4.142131011069311
vertex -0.09006942001880472 50.657077911758854 4.3191588763087845
vertex -2.478173579463677 54.090290756223354 4.4399999999999995
endloop
endfacet
facet normal 0 0 0.9999999999999999
outer loop
vertex -14.700214451931883 48.1481252622906 4.4399999999999995
vertex -14.82367084478652 47.81927238309403 4.4399999999999995
vertex -15.68721364754245 44.246193120532695 4.4399999999999995
endloop
endfacet
endsolid insock
