999
DXF generated by GENSOLE
  0
SECTION
  2
HEADER
  0
ENDSEC
  0
SECTION
  2
TABLES
  0
TABLE
  2
LTYPE
  70
1
  0
LTYPE
  2
CONTINUOUS
  3
Solid Line
  72
65
  73
0
  40
0.0
  0
ENDTAB
  0
TABLE
  2
LAYER
  70
1
  0
LAYER
  2
ShapeRegion
  62
7
  6
Continuous
  0
ENDTAB
  0
TABLE
  2
STYLE
  70
0
  0
ENDTAB
  0
TABLE
  2
VIEW
  70
0
  0
ENDTAB
  0
ENDSEC
  0
SECTION
  2
BLOCKS
  0
ENDSEC
  0
SECTION
  2
ENTITIES
  0
LWPOLYLINE
  8
ShapeRegion
  90
88
  70
1
 10
-38.9437093610579
 20
256.2907975754808
 30
0.0
 10
-41.08194832107712
 20
255.08417432834284
 30
0.0
 10
-43.22447398320876
 20
253.86827968164386
 30
0.0
 10
-45.515104081069985
 20
252.1665670676859
 30
0.0
 10
-45.616361094975865
 20
250.91988534489374
 30
0.0
 10
-45.989084899370276
 20
247.95807605277997
 30
0.0
 10
-45.82709865225184
 20
245.3511040551159
 30
0.0
 10
-45.90688068809859
 20
243.04788047321324
 30
0.0
 10
-45.279854686445205
 20
240.74220627874024
 30
0.0
 10
-44.533779076397515
 20
239.44910745892443
 30
0.0
 10
-42.25254500527429
 20
235.135663229756
 30
0.0
 10
-42.02517972184934
 20
234.6493684724197
 30
0.0
 10
-41.734925643426614
 20
234.1320338361667
 30
0.0
 10
-38.970336916042335
 20
230.59948001901134
 30
0.0
 10
-38.21870189557756
 20
229.24256585206138
 30
0.0
 10
-36.347978872665195
 20
227.5819988516202
 30
0.0
 10
-34.802152321805096
 20
226.96435840905727
 30
0.0
 10
-31.56372805336141
 20
225.7260795555324
 30
0.0
 10
-26.157564192789977
 20
225.27379401493326
 30
0.0
 10
-25.718684839520616
 20
225.32932478009243
 30
0.0
 10
-22.381752133880582
 20
227.64607078184866
 30
0.0
 10
-20.76721563867936
 20
230.6102740872551
 30
0.0
 10
-20.550684089399923
 20
231.43454574074266
 30
0.0
 10
-20.50674671034654
 20
232.0394008915847
 30
0.0
 10
-18.68053645843455
 20
234.47953131787028
 30
0.0
 10
-16.956714758338645
 20
236.81963569972825
 30
0.0
 10
-16.609911462322053
 20
237.38938488277307
 30
0.0
 10
-15.957401257604136
 20
238.5523450830101
 30
0.0
 10
-14.781824719910158
 20
241.23545563218863
 30
0.0
 10
-13.859972718358225
 20
243.0448339125631
 30
0.0
 10
-12.232525532033131
 20
246.58954102699767
 30
0.0
 10
-7.9341782627509625
 20
247.97954471009083
 30
0.0
 10
-6.36896280944407
 20
249.84798553854105
 30
0.0
 10
-3.4523109543356223
 20
248.89446067094556
 30
0.0
 10
-1.2377839422757344
 20
248.21147361232056
 30
0.0
 10
-0.9017988677250074
 20
248.1438851426419
 30
0.0
 10
1.7606787991131794
 20
248.29344995653796
 30
0.0
 10
5.262175330377437
 20
246.77879731039312
 30
0.0
 10
8.61789809282647
 20
244.40780132790016
 30
0.0
 10
9.691543410914338
 20
243.50598842341833
 30
0.0
 10
12.765184571331655
 20
240.96709987111507
 30
0.0
 10
12.924971710550603
 20
238.97653672240028
 30
0.0
 10
13.626980954463804
 20
236.46145552276874
 30
0.0
 10
14.718776319484592
 20
233.57440363552507
 30
0.0
 10
14.188134722399566
 20
231.85200672483703
 30
0.0
 10
16.747469837873926
 20
230.69885448919393
 30
0.0
 10
17.938450786814137
 20
229.64628383216112
 30
0.0
 10
18.96185594685987
 20
229.04288973297284
 30
0.0
 10
21.017229493084137
 20
224.25641773561884
 30
0.0
 10
26.58399545557146
 20
225.6892550062008
 30
0.0
 10
27.71797214988347
 20
226.2819202528401
 30
0.0
 10
29.708651665917753
 20
228.71678396661548
 30
0.0
 10
30.230133418870427
 20
228.93959658158957
 30
0.0
 10
30.00225862167364
 20
233.7057127462648
 30
0.0
 10
29.56378774604921
 20
235.45780045660814
 30
0.0
 10
27.86897605168607
 20
238.9275140392711
 30
0.0
 10
25.54755967040627
 20
241.34109377144193
 30
0.0
 10
21.73134139925446
 20
243.90640771929836
 30
0.0
 10
20.467904975432972
 20
245.79245603487902
 30
0.0
 10
19.770347795196617
 20
248.94115567539322
 30
0.0
 10
19.109361106206837
 20
252.64115103522934
 30
0.0
 10
18.666662104879965
 20
253.44312450692976
 30
0.0
 10
18.328583425025094
 20
253.76954648258797
 30
0.0
 10
14.504495280524077
 20
256.0320953613781
 30
0.0
 10
13.544960172302966
 20
255.83913569798267
 30
0.0
 10
12.401449255745813
 20
256.7663558638058
 30
0.0
 10
8.228004158353937
 20
255.56784121506476
 30
0.0
 10
7.399239529413638
 20
258.796688582373
 30
0.0
 10
5.012942188936492
 20
261.2974902715573
 30
0.0
 10
3.2517446160027736
 20
262.56590523910467
 30
0.0
 10
1.5140231370998298
 20
264.231461085059
 30
0.0
 10
0.2176539634356192
 20
264.75294888002344
 30
0.0
 10
-0.6292708779864906
 20
265.3238413746462
 30
0.0
 10
-3.241523753937955
 20
265.05960104022455
 30
0.0
 10
-7.68330822922715
 20
266.95477931478354
 30
0.0
 10
-13.003105278613123
 20
267.4434178519887
 30
0.0
 10
-13.696884024051093
 20
267.5171697563666
 30
0.0
 10
-17.826442545755103
 20
266.74174581680757
 30
0.0
 10
-18.705632410095596
 20
266.31538088282554
 30
0.0
 10
-19.13167259815082
 20
266.1865014176546
 30
0.0
 10
-19.833511560622185
 20
265.98037987418
 30
0.0
 10
-24.636152720313763
 20
264.3177632289717
 30
0.0
 10
-28.69675612905906
 20
261.28214694902795
 30
0.0
 10
-29.23137715495389
 20
260.98710861798287
 30
0.0
 10
-29.559302454487288
 20
260.72060492919275
 30
0.0
 10
-34.963779520681896
 20
258.6544326666736
 30
0.0
 10
-36.41879697687882
 20
257.7917883952735
 30
0.0
 10
-38.9437093610579
 20
256.2907975754808
 30
0.0
  0
ENDSEC
  0
EOF
