solid insock
facet normal 0 0 -1
outer loop
vertex 9.686524575039147 205.85727655181904 0
vertex 9.84131360754062 206.27482061638082 0
vertex 12.075026945127686 208.49600876130873 0
endloop
endfacet
facet normal 0 0 -1
outer loop
vertex 10.14362415783751 200.41379080147718 0
vertex 10.090632235882222 200.903686293257 0
vertex 9.726687758113082 205.48777058908894 0
endloop
endfacet
facet normal 0 0 -1
outer loop
vertex 12.228737419898973 196.09791455353053 0
vertex 10.52886910612178 198.86740081702382 0
vertex 10.14362415783751 200.41379080147718 0
endloop
endfacet
facet normal 0 0 -1
outer loop
vertex 12.878570874232254 191.90447190718209 0
vertex 12.206982415487252 193.74055322764144 0
vertex 12.228737419898973 196.09791455353053 0
endloop
endfacet
facet normal 0 0 -1
outer loop
vertex 14.877494314226702 188.6663009865704 0
vertex 13.981213790595456 189.5242449571312 0
vertex 12.878570874232254 191.90447190718209 0
endloop
endfacet
facet normal 0 0 -1
outer loop
vertex 18.243305927157607 187.3386287611577 0
vertex 16.236441234428057 187.916568791426 0
vertex 14.877494314226702 188.6663009865704 0
endloop
endfacet
facet normal 0 0 -1
outer loop
vertex 22.487645839048962 187.68405513832354 0
vertex 20.04452354399154 187.08788934182567 0
vertex 18.243305927157607 187.3386287611577 0
endloop
endfacet
facet normal 0 0 -0.9999999999999999
outer loop
vertex 29.69776176187075 184.9600143947386 0
vertex 27.42006998788433 184.87479287177325 0
vertex 24.850883228505378 186.47189713864208 0
endloop
endfacet
facet normal 0 0 -1
outer loop
vertex 31.63993008835386 187.56218248778043 0
vertex 30.84128471717385 185.3217820758328 0
vertex 29.69776176187075 184.9600143947386 0
endloop
endfacet
facet normal 0 0 -0.9999999999999999
outer loop
vertex 30.48987228106991 192.7204829837931 0
vertex 31.46278546753477 189.11829743108441 0
vertex 31.63993008835386 187.56218248778043 0
endloop
endfacet
facet normal 0 0 -1
outer loop
vertex 26.816792079739397 196.9067629982695 0
vertex 29.474702134285444 194.26554658189318 0
vertex 30.48987228106991 192.7204829837931 0
endloop
endfacet
facet normal 0 0 -1
outer loop
vertex 19.43638569212881 207.36820571969724 0
vertex 20.125873931392434 206.93416193169583 0
vertex 23.469942709230914 201.58021474872362 0
endloop
endfacet
facet normal 0 0 -1
outer loop
vertex 12.075026945127686 208.49600876130873 0
vertex 14.084733741576539 209.36271018609216 0
vertex 19.43638569212881 207.36820571969724 0
endloop
endfacet
facet normal 0 0 -1
outer loop
vertex 9.726687758113082 205.48777058908894 0
vertex 9.686524575039147 205.85727655181904 0
vertex 12.075026945127686 208.49600876130873 0
endloop
endfacet
facet normal 0 0 -1
outer loop
vertex 12.228737419898973 196.09791455353053 0
vertex 10.14362415783751 200.41379080147718 0
vertex 9.726687758113082 205.48777058908894 0
endloop
endfacet
facet normal 0 0 -1
outer loop
vertex 14.877494314226702 188.6663009865704 0
vertex 12.878570874232254 191.90447190718209 0
vertex 12.228737419898973 196.09791455353053 0
endloop
endfacet
facet normal 0 0 -0.9999999999999999
outer loop
vertex 22.487645839048962 187.68405513832354 0
vertex 18.243305927157607 187.3386287611577 0
vertex 14.877494314226702 188.6663009865704 0
endloop
endfacet
facet normal 0 0 -1
outer loop
vertex 29.69776176187075 184.9600143947386 0
vertex 24.850883228505378 186.47189713864208 0
vertex 22.487645839048962 187.68405513832354 0
endloop
endfacet
facet normal 0 0 -1
outer loop
vertex 30.48987228106991 192.7204829837931 0
vertex 31.63993008835386 187.56218248778043 0
vertex 29.69776176187075 184.9600143947386 0
endloop
endfacet
facet normal 0 0 -1
outer loop
vertex 12.075026945127686 208.49600876130873 0
vertex 19.43638569212881 207.36820571969724 0
vertex 23.469942709230914 201.58021474872362 0
endloop
endfacet
facet normal 0 0 -1
outer loop
vertex 12.228737419898973 196.09791455353053 0
vertex 9.726687758113082 205.48777058908894 0
vertex 12.075026945127686 208.49600876130873 0
endloop
endfacet
facet normal 0 0 -1
outer loop
vertex 22.487645839048962 187.68405513832354 0
vertex 14.877494314226702 188.6663009865704 0
vertex 12.228737419898973 196.09791455353053 0
endloop
endfacet
facet normal 0 0 -1
outer loop
vertex 30.48987228106991 192.7204829837931 0
vertex 29.69776176187075 184.9600143947386 0
vertex 22.487645839048962 187.68405513832354 0
endloop
endfacet
facet normal 0 0 -1
outer loop
vertex 12.075026945127686 208.49600876130873 0
vertex 23.469942709230914 201.58021474872362 0
vertex 25.34467899066674 198.95855493894598 0
endloop
endfacet
facet normal 0 0 -1
outer loop
vertex 22.487645839048962 187.68405513832354 0
vertex 12.228737419898973 196.09791455353053 0
vertex 12.075026945127686 208.49600876130873 0
endloop
endfacet
facet normal 0 0 -1
outer loop
vertex 26.816792079739397 196.9067629982695 0
vertex 30.48987228106991 192.7204829837931 0
vertex 22.487645839048962 187.68405513832354 0
endloop
endfacet
facet normal 0 0 -1
outer loop
vertex 12.075026945127686 208.49600876130873 0
vertex 25.34467899066674 198.95855493894598 0
vertex 26.816792079739397 196.9067629982695 0
endloop
endfacet
facet normal 0 0 -1
outer loop
vertex 26.816792079739397 196.9067629982695 0
vertex 22.487645839048962 187.68405513832354 0
vertex 12.075026945127686 208.49600876130873 0
endloop
endfacet
facet normal 0 0 1
outer loop
vertex 12.075026945127686 208.49600876130873 0.615125092004436
vertex 9.84131360754062 206.27482061638082 0.5964008255018658
vertex 9.686524575039147 205.85727655181904 0.5949140632031258
endloop
endfacet
facet normal 0 0 1
outer loop
vertex 12.878570874232254 191.90447190718209 0.6009412854632745
vertex 13.981213790595456 189.5242449571312 0.615473760782743
vertex 14.877494314226702 188.6663009865704 0.6124261067182148
endloop
endfacet
facet normal 0 0 1
outer loop
vertex 14.877494314226702 188.6663009865704 0.6124261067182148
vertex 16.236441234428057 187.916568791426 0.601782811358416
vertex 18.243305927157607 187.3386287611577 0.6001115071628165
endloop
endfacet
facet normal 0 0 1
outer loop
vertex 29.69776176187075 184.9600143947386 0.5958301120624434
vertex 30.84128471717385 185.3217820758328 0.5984885102406752
vertex 31.63993008835386 187.56218248778043 0.5954167369677943
endloop
endfacet
facet normal 0 0 1
outer loop
vertex 12.075026945127686 208.49600876130873 0.615125092004436
vertex 9.686524575039147 205.85727655181904 0.5949140632031258
vertex 9.726687758113082 205.48777058908894 0.5919200997432106
endloop
endfacet
facet normal -0.9376440699120482 0.3475968903180378 0
outer loop
vertex 9.84131360754062 206.27482061638082 0
vertex 9.686524575039147 205.85727655181904 0
vertex 9.84131360754062 206.27482061638082 0.5964008255018658
endloop
endfacet
facet normal -0.9376440699120482 0.3475968903180378 0
outer loop
vertex 9.686524575039147 205.85727655181904 0
vertex 9.686524575039147 205.85727655181904 0.5949140632031258
vertex 9.84131360754062 206.27482061638082 0.5964008255018658
endloop
endfacet
facet normal -0.9941446100469102 -0.10805782856728557 0
outer loop
vertex 9.686524575039147 205.85727655181904 0
vertex 9.726687758113082 205.48777058908894 0
vertex 9.686524575039147 205.85727655181904 0.5949140632031258
endloop
endfacet
facet normal -0.9941446100469102 -0.10805782856728557 0
outer loop
vertex 9.726687758113082 205.48777058908894 0
vertex 9.726687758113082 205.48777058908894 0.5919200997432106
vertex 9.686524575039147 205.85727655181904 0.5949140632031258
endloop
endfacet
facet normal -0.9968631923585124 -0.0791440188567375 0
outer loop
vertex 9.726687758113082 205.48777058908894 0
vertex 10.090632235882222 200.903686293257 0
vertex 9.726687758113082 205.48777058908894 0.5919200997432106
endloop
endfacet
facet normal -0.9968631923585124 -0.0791440188567375 0
outer loop
vertex 10.090632235882222 200.903686293257 0
vertex 10.090632235882222 200.903686293257 0.594433715966211
vertex 9.726687758113082 205.48777058908894 0.5919200997432106
endloop
endfacet
facet normal -0.994200486267925 -0.10754251765986082 0
outer loop
vertex 10.090632235882222 200.903686293257 0
vertex 10.14362415783751 200.41379080147718 0
vertex 10.090632235882222 200.903686293257 0.594433715966211
endloop
endfacet
facet normal -0.994200486267925 -0.10754251765986082 0
outer loop
vertex 10.14362415783751 200.41379080147718 0
vertex 10.14362415783751 200.41379080147718 0.5977333991092268
vertex 10.090632235882222 200.903686293257 0.594433715966211
endloop
endfacet
facet normal -0.9703418673344715 -0.24173675868152705 0
outer loop
vertex 10.14362415783751 200.41379080147718 0
vertex 10.52886910612178 198.86740081702382 0
vertex 10.14362415783751 200.41379080147718 0.5977333991092268
endloop
endfacet
facet normal -0.9703418673344715 -0.24173675868152705 0
outer loop
vertex 10.52886910612178 198.86740081702382 0
vertex 10.52886910612178 198.86740081702382 0.5952108278045412
vertex 10.14362415783751 200.41379080147718 0.5977333991092268
endloop
endfacet
facet normal -0.8522663649128963 -0.5231080607658021 0
outer loop
vertex 10.52886910612178 198.86740081702382 0
vertex 12.228737419898973 196.09791455353053 0
vertex 10.52886910612178 198.86740081702382 0.5952108278045412
endloop
endfacet
facet normal -0.8522663649128963 -0.5231080607658021 0
outer loop
vertex 12.228737419898973 196.09791455353053 0
vertex 12.228737419898973 196.09791455353053 0.5793620069855927
vertex 10.52886910612178 198.86740081702382 0.5952108278045412
endloop
endfacet
facet normal -0.9999574197401169 0.00922814752200754 0
outer loop
vertex 12.228737419898973 196.09791455353053 0
vertex 12.206982415487252 193.74055322764144 0
vertex 12.228737419898973 196.09791455353053 0.5793620069855927
endloop
endfacet
facet normal -0.9999574197401169 0.00922814752200754 0
outer loop
vertex 12.206982415487252 193.74055322764144 0
vertex 12.206982415487252 193.74055322764144 0.597178490906114
vertex 12.228737419898973 196.09791455353053 0.5793620069855927
endloop
endfacet
facet normal -0.9391473765484015 -0.343514490410892 0
outer loop
vertex 12.206982415487252 193.74055322764144 0
vertex 12.878570874232254 191.90447190718209 0
vertex 12.206982415487252 193.74055322764144 0.597178490906114
endloop
endfacet
facet normal -0.9391473765484015 -0.343514490410892 0
outer loop
vertex 12.878570874232254 191.90447190718209 0
vertex 12.878570874232254 191.90447190718209 0.6009412854632745
vertex 12.206982415487252 193.74055322764144 0.597178490906114
endloop
endfacet
facet normal -0.9073671819437096 -0.4203389074681655 0
outer loop
vertex 12.878570874232254 191.90447190718209 0
vertex 13.981213790595456 189.5242449571312 0
vertex 12.878570874232254 191.90447190718209 0.6009412854632745
endloop
endfacet
facet normal -0.9073671819437096 -0.4203389074681655 0
outer loop
vertex 13.981213790595456 189.5242449571312 0
vertex 13.981213790595456 189.5242449571312 0.615473760782743
vertex 12.878570874232254 191.90447190718209 0.6009412854632745
endloop
endfacet
facet normal -0.6914886734924942 -0.722387302235851 0
outer loop
vertex 13.981213790595456 189.5242449571312 0
vertex 14.877494314226702 188.6663009865704 0
vertex 13.981213790595456 189.5242449571312 0.615473760782743
endloop
endfacet
facet normal -0.6914886734924942 -0.722387302235851 0
outer loop
vertex 14.877494314226702 188.6663009865704 0
vertex 14.877494314226702 188.6663009865704 0.6124261067182148
vertex 13.981213790595456 189.5242449571312 0.615473760782743
endloop
endfacet
facet normal -0.4830617226018715 -0.8755863019468227 0
outer loop
vertex 14.877494314226702 188.6663009865704 0
vertex 16.236441234428057 187.916568791426 0
vertex 14.877494314226702 188.6663009865704 0.6124261067182148
endloop
endfacet
facet normal -0.4830617226018715 -0.8755863019468227 0
outer loop
vertex 16.236441234428057 187.916568791426 0
vertex 16.236441234428057 187.916568791426 0.601782811358416
vertex 14.877494314226702 188.6663009865704 0.6124261067182148
endloop
endfacet
facet normal -0.27673482396185384 -0.9609463237906694 0
outer loop
vertex 16.236441234428057 187.916568791426 0
vertex 18.243305927157607 187.3386287611577 0
vertex 16.236441234428057 187.916568791426 0.601782811358416
endloop
endfacet
facet normal -0.27673482396185384 -0.9609463237906694 0
outer loop
vertex 18.243305927157607 187.3386287611577 0
vertex 18.243305927157607 187.3386287611577 0.6001115071628165
vertex 16.236441234428057 187.916568791426 0.601782811358416
endloop
endfacet
facet normal -0.13787602828538695 -0.9904494943328747 0
outer loop
vertex 18.243305927157607 187.3386287611577 0
vertex 20.04452354399154 187.08788934182567 0
vertex 18.243305927157607 187.3386287611577 0.6001115071628165
endloop
endfacet
facet normal -0.13787602828538695 -0.9904494943328747 0
outer loop
vertex 20.04452354399154 187.08788934182567 0
vertex 20.04452354399154 187.08788934182567 0.5930816561654206
vertex 18.243305927157607 187.3386287611577 0.6001115071628165
endloop
endfacet
facet normal 0.237062134654921 -0.9714944901093633 0
outer loop
vertex 20.04452354399154 187.08788934182567 0
vertex 22.487645839048962 187.68405513832354 0
vertex 20.04452354399154 187.08788934182567 0.5930816561654206
endloop
endfacet
facet normal 0.237062134654921 -0.9714944901093633 0
outer loop
vertex 22.487645839048962 187.68405513832354 0
vertex 22.487645839048962 187.68405513832354 0.5779754717307941
vertex 20.04452354399154 187.08788934182567 0.5930816561654206
endloop
endfacet
facet normal -0.4563886069323459 -0.8897805569140925 0
outer loop
vertex 22.487645839048962 187.68405513832354 0
vertex 24.850883228505378 186.47189713864208 0
vertex 22.487645839048962 187.68405513832354 0.5779754717307941
endloop
endfacet
facet normal -0.4563886069323459 -0.8897805569140925 0
outer loop
vertex 24.850883228505378 186.47189713864208 0
vertex 24.850883228505378 186.47189713864208 0.5853961272762616
vertex 22.487645839048962 187.68405513832354 0.5779754717307941
endloop
endfacet
facet normal -0.5279441893580736 -0.8492790665753198 0
outer loop
vertex 24.850883228505378 186.47189713864208 0
vertex 27.42006998788433 184.87479287177325 0
vertex 24.850883228505378 186.47189713864208 0.5853961272762616
endloop
endfacet
facet normal -0.5279441893580736 -0.8492790665753198 0
outer loop
vertex 27.42006998788433 184.87479287177325 0
vertex 27.42006998788433 184.87479287177325 0.5960601178568277
vertex 24.850883228505378 186.47189713864208 0.5853961272762616
endloop
endfacet
facet normal 0.037389577505808964 -0.9993007652823734 0
outer loop
vertex 27.42006998788433 184.87479287177325 0
vertex 29.69776176187075 184.9600143947386 0
vertex 27.42006998788433 184.87479287177325 0.5960601178568277
endloop
endfacet
facet normal 0.037389577505808964 -0.9993007652823734 0
outer loop
vertex 29.69776176187075 184.9600143947386 0
vertex 29.69776176187075 184.9600143947386 0.5958301120624434
vertex 27.42006998788433 184.87479287177325 0.5960601178568277
endloop
endfacet
facet normal 0.30162804739691185 -0.9534256767171346 0
outer loop
vertex 29.69776176187075 184.9600143947386 0
vertex 30.84128471717385 185.3217820758328 0
vertex 29.69776176187075 184.9600143947386 0.5958301120624434
endloop
endfacet
facet normal 0.30162804739691185 -0.9534256767171346 0
outer loop
vertex 30.84128471717385 185.3217820758328 0
vertex 30.84128471717385 185.3217820758328 0.5984885102406752
vertex 29.69776176187075 184.9600143947386 0.5958301120624434
endloop
endfacet
facet normal 0.9419411846823496 -0.33577790963553833 0
outer loop
vertex 30.84128471717385 185.3217820758328 0
vertex 31.63993008835386 187.56218248778043 0
vertex 30.84128471717385 185.3217820758328 0.5984885102406752
endloop
endfacet
facet normal 0.9419411846823496 -0.33577790963553833 0
outer loop
vertex 31.63993008835386 187.56218248778043 0
vertex 31.63993008835386 187.56218248778043 0.5954167369677943
vertex 30.84128471717385 185.3217820758328 0.5984885102406752
endloop
endfacet
facet normal 0.993582787292396 0.11310722698516355 0
outer loop
vertex 31.63993008835386 187.56218248778043 0
vertex 31.46278546753477 189.11829743108441 0
vertex 31.63993008835386 187.56218248778043 0.5954167369677943
endloop
endfacet
facet normal 0.993582787292396 0.11310722698516355 0
outer loop
vertex 31.46278546753477 189.11829743108441 0
vertex 31.46278546753477 189.11829743108441 0.5912060570347137
vertex 31.63993008835386 187.56218248778043 0.5954167369677943
endloop
endfacet
facet normal 0.9654072886040606 0.26074655723548096 0
outer loop
vertex 31.46278546753477 189.11829743108441 0
vertex 30.48987228106991 192.7204829837931 0
vertex 31.46278546753477 189.11829743108441 0.5912060570347137
endloop
endfacet
facet normal 0.9654072886040606 0.26074655723548096 0
outer loop
vertex 30.48987228106991 192.7204829837931 0
vertex 30.48987228106991 192.7204829837931 0.6088819833569503
vertex 31.46278546753477 189.11829743108441 0.5912060570347137
endloop
endfacet
facet normal 0.8357445427204554 0.5491184383290886 0
outer loop
vertex 30.48987228106991 192.7204829837931 0
vertex 29.474702134285444 194.26554658189318 0
vertex 30.48987228106991 192.7204829837931 0.6088819833569503
endloop
endfacet
facet normal 0.8357445427204554 0.5491184383290886 0
outer loop
vertex 29.474702134285444 194.26554658189318 0
vertex 29.474702134285444 194.26554658189318 0.60638107844566
vertex 30.48987228106991 192.7204829837931 0.6088819833569503
endloop
endfacet
facet normal 0.7048757117366953 0.7093308332532057 0
outer loop
vertex 29.474702134285444 194.26554658189318 0
vertex 26.816792079739397 196.9067629982695 0
vertex 29.474702134285444 194.26554658189318 0.60638107844566
endloop
endfacet
facet normal 0.7048757117366953 0.7093308332532057 0
outer loop
vertex 26.816792079739397 196.9067629982695 0
vertex 26.816792079739397 196.9067629982695 0.592809315066904
vertex 29.474702134285444 194.26554658189318 0.60638107844566
endloop
endfacet
facet normal 0.8125053529891848 0.5829537300368876 0
outer loop
vertex 26.816792079739397 196.9067629982695 0
vertex 25.34467899066674 198.95855493894598 0
vertex 26.816792079739397 196.9067629982695 0.592809315066904
endloop
endfacet
facet normal 0.8125053529891848 0.5829537300368876 0
outer loop
vertex 25.34467899066674 198.95855493894598 0
vertex 25.34467899066674 198.95855493894598 0.5960111019702432
vertex 26.816792079739397 196.9067629982695 0.592809315066904
endloop
endfacet
facet normal 0.8134219332043522 0.5816740999753166 0
outer loop
vertex 25.34467899066674 198.95855493894598 0
vertex 23.469942709230914 201.58021474872362 0
vertex 25.34467899066674 198.95855493894598 0.5960111019702432
endloop
endfacet
facet normal 0.8134219332043522 0.5816740999753166 0
outer loop
vertex 23.469942709230914 201.58021474872362 0
vertex 23.469942709230914 201.58021474872362 0.6018177490933818
vertex 25.34467899066674 198.95855493894598 0.5960111019702432
endloop
endfacet
facet normal 0.8481512175503226 0.5297541997642919 0
outer loop
vertex 23.469942709230914 201.58021474872362 0
vertex 20.125873931392434 206.93416193169583 0
vertex 23.469942709230914 201.58021474872362 0.6018177490933818
endloop
endfacet
facet normal 0.8481512175503226 0.5297541997642919 0
outer loop
vertex 20.125873931392434 206.93416193169583 0
vertex 20.125873931392434 206.93416193169583 0.666849553120884
vertex 23.469942709230914 201.58021474872362 0.6018177490933818
endloop
endfacet
facet normal 0.5327443258250423 0.846276245265824 0
outer loop
vertex 20.125873931392434 206.93416193169583 0
vertex 19.43638569212881 207.36820571969724 0
vertex 20.125873931392434 206.93416193169583 0.666849553120884
endloop
endfacet
facet normal 0.5327443258250423 0.846276245265824 0
outer loop
vertex 19.43638569212881 207.36820571969724 0
vertex 19.43638569212881 207.36820571969724 0.6578873354022159
vertex 20.125873931392434 206.93416193169583 0.666849553120884
endloop
endfacet
facet normal 0.349224609189825 0.9370390452570341 0
outer loop
vertex 19.43638569212881 207.36820571969724 0
vertex 14.084733741576539 209.36271018609216 0
vertex 19.43638569212881 207.36820571969724 0.6578873354022159
endloop
endfacet
facet normal 0.349224609189825 0.9370390452570341 0
outer loop
vertex 14.084733741576539 209.36271018609216 0
vertex 14.084733741576539 209.36271018609216 0.6463516294780429
vertex 19.43638569212881 207.36820571969724 0.6578873354022159
endloop
endfacet
facet normal -0.39600215414222667 0.918249581494441 0
outer loop
vertex 14.084733741576539 209.36271018609216 0
vertex 12.075026945127686 208.49600876130873 0
vertex 14.084733741576539 209.36271018609216 0.6463516294780429
endloop
endfacet
facet normal -0.39600215414222667 0.918249581494441 0
outer loop
vertex 12.075026945127686 208.49600876130873 0
vertex 12.075026945127686 208.49600876130873 0.615125092004436
vertex 14.084733741576539 209.36271018609216 0.6463516294780429
endloop
endfacet
facet normal -0.7051159259250807 0.7090920469211429 0
outer loop
vertex 12.075026945127686 208.49600876130873 0
vertex 9.84131360754062 206.27482061638082 0
vertex 12.075026945127686 208.49600876130873 0.615125092004436
endloop
endfacet
facet normal -0.7051159259250807 0.7090920469211429 0
outer loop
vertex 9.84131360754062 206.27482061638082 0
vertex 9.84131360754062 206.27482061638082 0.5964008255018658
vertex 12.075026945127686 208.49600876130873 0.615125092004436
endloop
endfacet
facet normal 0 0 1
outer loop
vertex 15.540091935211283 191.44471173843476 0.5710617772653563
vertex 12.878570874232254 191.90447190718209 0.6009412854632745
vertex 14.877494314226702 188.6663009865704 0.6124261067182148
endloop
endfacet
facet normal 0 0 0.9999999999999999
outer loop
vertex 14.877494314226702 188.6663009865704 0.6124261067182148
vertex 18.243305927157607 187.3386287611577 0.6001115071628165
vertex 17.372802244136523 190.0623967234509 0.5709551992702184
endloop
endfacet
facet normal 0 0 1
outer loop
vertex 26.816792079739397 196.9067629982695 0.592809315066904
vertex 25.34467899066674 198.95855493894598 0.5960111019702432
vertex 22.95203129949682 197.08032184743618 0.5625600930804595
endloop
endfacet
facet normal 0 0 1
outer loop
vertex 25.34467899066674 198.95855493894598 0.5960111019702432
vertex 23.469942709230914 201.58021474872362 0.6018177490933818
vertex 21.963590339855358 199.93360951477416 0.5682779434921017
endloop
endfacet
facet normal 0 0 1
outer loop
vertex 22.487645839048962 187.68405513832354 0.5779754717307941
vertex 24.850883228505378 186.47189713864208 0.5853961272762616
vertex 26.073305702365115 187.61752584338072 0.5712655074871316
endloop
endfacet
facet normal 0 0 1
outer loop
vertex 15.567313230665293 206.97429001943726 0.5902797945336618
vertex 14.084733741576539 209.36271018609216 0.6463516294780429
vertex 12.075026945127686 208.49600876130873 0.615125092004436
endloop
endfacet
facet normal 0 0 1
outer loop
vertex 17.716965776658533 204.83195015180667 0.5747716545880381
vertex 19.43638569212881 207.36820571969724 0.6578873354022159
vertex 15.567313230665293 206.97429001943726 0.5902797945336618
endloop
endfacet
facet normal 0 0 1
outer loop
vertex 20.068815846816715 204.0312342523037 0.586623447772535
vertex 20.125873931392434 206.93416193169583 0.666849553120884
vertex 19.43638569212881 207.36820571969724 0.6578873354022159
endloop
endfacet
facet normal 0 0 1
outer loop
vertex 20.068815846816715 204.0312342523037 0.586623447772535
vertex 19.43638569212881 207.36820571969724 0.6578873354022159
vertex 17.716965776658533 204.83195015180667 0.5747716545880381
endloop
endfacet
facet normal 0 0 1
outer loop
vertex 14.605105294748913 193.77373253557 0.5667816736150086
vertex 15.540091935211283 191.44471173843476 0.5710617772653563
vertex 17.885318182020526 192.95621857818668 0.5618174588185887
endloop
endfacet
facet normal 0 0 1
outer loop
vertex 16.015130037804315 196.52724839157443 0.5609495058405336
vertex 14.605105294748913 193.77373253557 0.5667816736150086
vertex 17.885318182020526 192.95621857818668 0.5618174588185887
endloop
endfacet
facet normal 0 0 1
outer loop
vertex 17.885318182020526 192.95621857818668 0.5618174588185887
vertex 17.372802244136523 190.0623967234509 0.5709551992702184
vertex 20.243308298445726 190.00957968559322 0.5665833816923138
endloop
endfacet
facet normal 0 0 1
outer loop
vertex 21.381126357210224 193.1855667197803 0.5606447576146916
vertex 17.885318182020526 192.95621857818668 0.5618174588185887
vertex 20.243308298445726 190.00957968559322 0.5665833816923138
endloop
endfacet
facet normal 0 0 1
outer loop
vertex 18.031621602128936 198.59136907255686 0.5603775770983923
vertex 19.848818392063524 195.95525405951895 0.5602725429084032
vertex 20.299098832645832 198.6141951983611 0.5613613763357335
endloop
endfacet
facet normal 0 0 1
outer loop
vertex 18.031621602128936 198.59136907255686 0.5603775770983923
vertex 16.015130037804315 196.52724839157443 0.5609495058405336
vertex 19.848818392063524 195.95525405951895 0.5602725429084032
endloop
endfacet
facet normal 0 0 1
outer loop
vertex 21.381126357210224 193.1855667197803 0.5606447576146916
vertex 23.91571310945062 190.98031141996753 0.5623328222285888
vertex 24.094057384809126 194.3299790490102 0.5616282734446585
endloop
endfacet
facet normal 0 0 1
outer loop
vertex 22.95203129949682 197.08032184743618 0.5625600930804595
vertex 25.34467899066674 198.95855493894598 0.5960111019702432
vertex 21.963590339855358 199.93360951477416 0.5682779434921017
endloop
endfacet
facet normal 0 0 1
outer loop
vertex 22.95203129949682 197.08032184743618 0.5625600930804595
vertex 21.963590339855358 199.93360951477416 0.5682779434921017
vertex 20.299098832645832 198.6141951983611 0.5613613763357335
endloop
endfacet
facet normal 0 0 1
outer loop
vertex 19.848818392063524 195.95525405951895 0.5602725429084032
vertex 16.015130037804315 196.52724839157443 0.5609495058405336
vertex 17.885318182020526 192.95621857818668 0.5618174588185887
endloop
endfacet
facet normal 0 0 1
outer loop
vertex 19.848818392063524 195.95525405951895 0.5602725429084032
vertex 17.885318182020526 192.95621857818668 0.5618174588185887
vertex 21.381126357210224 193.1855667197803 0.5606447576146916
endloop
endfacet
facet normal 0 0 1
outer loop
vertex 15.486388779282667 203.36685856789276 0.5637451574343215
vertex 15.255582759903138 200.40294953081684 0.5609631366093275
vertex 18.552414809121125 201.68721297424952 0.5628053524142596
endloop
endfacet
facet normal 0 0 1
outer loop
vertex 17.885318182020526 192.95621857818668 0.5618174588185887
vertex 15.540091935211283 191.44471173843476 0.5710617772653563
vertex 17.372802244136523 190.0623967234509 0.5709551992702184
endloop
endfacet
facet normal 0 0 1
outer loop
vertex 15.540091935211283 191.44471173843476 0.5710617772653563
vertex 14.877494314226702 188.6663009865704 0.6124261067182148
vertex 17.372802244136523 190.0623967234509 0.5709551992702184
endloop
endfacet
facet normal 0 0 1
outer loop
vertex 20.299098832645832 198.6141951983611 0.5613613763357335
vertex 19.848818392063524 195.95525405951895 0.5602725429084032
vertex 22.95203129949682 197.08032184743618 0.5625600930804595
endloop
endfacet
facet normal 0 0 1
outer loop
vertex 15.690140405515715 205.19222779725476 0.5718828447226747
vertex 17.716965776658533 204.83195015180667 0.5747716545880381
vertex 15.567313230665293 206.97429001943726 0.5902797945336618
endloop
endfacet
facet normal 0 0 1
outer loop
vertex 18.552414809121125 201.68721297424952 0.5628053524142596
vertex 20.068815846816715 204.0312342523037 0.586623447772535
vertex 17.716965776658533 204.83195015180667 0.5747716545880381
endloop
endfacet
facet normal 0 0 1
outer loop
vertex 12.561950760236178 202.73631373286966 0.5659316536745498
vertex 12.889428000181173 199.63933814088944 0.5652505452667775
vertex 15.255582759903138 200.40294953081684 0.5609631366093275
endloop
endfacet
facet normal 0 0 1
outer loop
vertex 12.561950760236178 202.73631373286966 0.5659316536745498
vertex 11.473268171481545 201.19348343447678 0.5732925863351499
vertex 12.889428000181173 199.63933814088944 0.5652505452667775
endloop
endfacet
facet normal 0 0 1
outer loop
vertex 15.486388779282667 203.36685856789276 0.5637451574343215
vertex 15.690140405515715 205.19222779725476 0.5718828447226747
vertex 14.039282055580765 205.6448649317398 0.5738635185223149
endloop
endfacet
facet normal 0 0 1
outer loop
vertex 14.039282055580765 205.6448649317398 0.5738635185223149
vertex 13.595274761778251 204.2858011906692 0.5672856652425757
vertex 15.486388779282667 203.36685856789276 0.5637451574343215
endloop
endfacet
facet normal 0 0 1
outer loop
vertex 12.191272121299345 205.38719952408894 0.5743709878037533
vertex 9.726687758113082 205.48777058908894 0.5919200997432106
vertex 12.561950760236178 202.73631373286966 0.5659316536745498
endloop
endfacet
facet normal 0 0 1
outer loop
vertex 12.075026945127686 208.49600876130873 0.615125092004436
vertex 9.726687758113082 205.48777058908894 0.5919200997432106
vertex 12.191272121299345 205.38719952408894 0.5743709878037533
endloop
endfacet
facet normal 0 0 1
outer loop
vertex 12.191272121299345 205.38719952408894 0.5743709878037533
vertex 12.561950760236178 202.73631373286966 0.5659316536745498
vertex 13.595274761778251 204.2858011906692 0.5672856652425757
endloop
endfacet
facet normal 0 0 1
outer loop
vertex 26.073305702365115 187.61752584338072 0.5712655074871316
vertex 28.33497400628997 187.61970315928744 0.5722353552860211
vertex 26.952980420659394 189.8186860959983 0.564628712451607
endloop
endfacet
facet normal 0 0 1
outer loop
vertex 26.952980420659394 189.8186860959983 0.564628712451607
vertex 28.33497400628997 187.61970315928744 0.5722353552860211
vertex 29.615393600523923 189.35165303595858 0.5718036743193249
endloop
endfacet
facet normal 0 0 1
outer loop
vertex 27.20356274234216 192.88850480206807 0.5667989470826478
vertex 29.474702134285444 194.26554658189318 0.60638107844566
vertex 26.816792079739397 196.9067629982695 0.592809315066904
endloop
endfacet
facet normal 0 0 1
outer loop
vertex 30.48987228106991 192.7204829837931 0.6088819833569503
vertex 29.474702134285444 194.26554658189318 0.60638107844566
vertex 27.20356274234216 192.88850480206807 0.5667989470826478
endloop
endfacet
facet normal 0 0 0.9999999999999999
outer loop
vertex 29.615393600523923 189.35165303595858 0.5718036743193249
vertex 31.46278546753477 189.11829743108441 0.5912060570347137
vertex 30.48987228106991 192.7204829837931 0.6088819833569503
endloop
endfacet
facet normal 0 0 0.9999999999999999
outer loop
vertex 31.63993008835386 187.56218248778043 0.5954167369677943
vertex 31.46278546753477 189.11829743108441 0.5912060570347137
vertex 29.615393600523923 189.35165303595858 0.5718036743193249
endloop
endfacet
facet normal 0 0 1
outer loop
vertex 10.497240552523015 202.1766557477025 0.5821390330161471
vertex 10.090632235882222 200.903686293257 0.594433715966211
vertex 10.14362415783751 200.41379080147718 0.5977333991092268
endloop
endfacet
facet normal 0 0 1
outer loop
vertex 10.497240552523015 202.1766557477025 0.5821390330161471
vertex 10.14362415783751 200.41379080147718 0.5977333991092268
vertex 11.473268171481545 201.19348343447678 0.5732925863351499
endloop
endfacet
facet normal 0 0 0.9999999999999999
outer loop
vertex 27.17389511699545 186.09974858234116 0.5846676293418125
vertex 27.42006998788433 184.87479287177325 0.5960601178568277
vertex 29.69776176187075 184.9600143947386 0.5958301120624434
endloop
endfacet
facet normal 0 0 0.9999999999999999
outer loop
vertex 24.850883228505378 186.47189713864208 0.5853961272762616
vertex 27.42006998788433 184.87479287177325 0.5960601178568277
vertex 27.17389511699545 186.09974858234116 0.5846676293418125
endloop
endfacet
facet normal 0 0 1
outer loop
vertex 26.073305702365115 187.61752584338072 0.5712655074871316
vertex 24.850883228505378 186.47189713864208 0.5853961272762616
vertex 27.17389511699545 186.09974858234116 0.5846676293418125
endloop
endfacet
facet normal 0 0 1
outer loop
vertex 26.952980420659394 189.8186860959983 0.564628712451607
vertex 28.57499186492652 191.20091094559598 0.5691348818738211
vertex 27.20356274234216 192.88850480206807 0.5667989470826478
endloop
endfacet
facet normal 0 0 1
outer loop
vertex 28.57499186492652 191.20091094559598 0.5691348818738211
vertex 30.48987228106991 192.7204829837931 0.6088819833569503
vertex 27.20356274234216 192.88850480206807 0.5667989470826478
endloop
endfacet
facet normal 0 0 1
outer loop
vertex 28.57499186492652 191.20091094559598 0.5691348818738211
vertex 29.615393600523923 189.35165303595858 0.5718036743193249
vertex 30.48987228106991 192.7204829837931 0.6088819833569503
endloop
endfacet
facet normal 0 0 1
outer loop
vertex 26.952980420659394 189.8186860959983 0.564628712451607
vertex 29.615393600523923 189.35165303595858 0.5718036743193249
vertex 28.57499186492652 191.20091094559598 0.5691348818738211
endloop
endfacet
facet normal 0 0 1
outer loop
vertex 22.487645839048962 187.68405513832354 0.5779754717307941
vertex 24.870213472012203 189.0261337062437 0.5664868775054352
vertex 23.91571310945062 190.98031141996753 0.5623328222285888
endloop
endfacet
facet normal 0 0 1
outer loop
vertex 24.870213472012203 189.0261337062437 0.5664868775054352
vertex 26.952980420659394 189.8186860959983 0.564628712451607
vertex 23.91571310945062 190.98031141996753 0.5623328222285888
endloop
endfacet
facet normal 0 0 1
outer loop
vertex 24.870213472012203 189.0261337062437 0.5664868775054352
vertex 26.073305702365115 187.61752584338072 0.5712655074871316
vertex 26.952980420659394 189.8186860959983 0.564628712451607
endloop
endfacet
facet normal 0 0 1
outer loop
vertex 22.487645839048962 187.68405513832354 0.5779754717307941
vertex 26.073305702365115 187.61752584338072 0.5712655074871316
vertex 24.870213472012203 189.0261337062437 0.5664868775054352
endloop
endfacet
facet normal 0 0 1
outer loop
vertex 14.605105294748913 193.77373253557 0.5667816736150086
vertex 12.878570874232254 191.90447190718209 0.6009412854632745
vertex 15.540091935211283 191.44471173843476 0.5710617772653563
endloop
endfacet
facet normal 0 0 0.9999999999999999
outer loop
vertex 17.372802244136523 190.0623967234509 0.5709551992702184
vertex 18.243305927157607 187.3386287611577 0.6001115071628165
vertex 20.243308298445726 190.00957968559322 0.5665833816923138
endloop
endfacet
facet normal 0 0 1
outer loop
vertex 21.381126357210224 193.1855667197803 0.5606447576146916
vertex 20.243308298445726 190.00957968559322 0.5665833816923138
vertex 23.91571310945062 190.98031141996753 0.5623328222285888
endloop
endfacet
facet normal 0 0 1
outer loop
vertex 20.243308298445726 190.00957968559322 0.5665833816923138
vertex 22.487645839048962 187.68405513832354 0.5779754717307941
vertex 23.91571310945062 190.98031141996753 0.5623328222285888
endloop
endfacet
facet normal 0 0 1
outer loop
vertex 23.91571310945062 190.98031141996753 0.5623328222285888
vertex 27.20356274234216 192.88850480206807 0.5667989470826478
vertex 24.094057384809126 194.3299790490102 0.5616282734446585
endloop
endfacet
facet normal 0 0 1
outer loop
vertex 26.952980420659394 189.8186860959983 0.564628712451607
vertex 27.20356274234216 192.88850480206807 0.5667989470826478
vertex 23.91571310945062 190.98031141996753 0.5623328222285888
endloop
endfacet
facet normal 0 0 1
outer loop
vertex 24.094057384809126 194.3299790490102 0.5616282734446585
vertex 27.20356274234216 192.88850480206807 0.5667989470826478
vertex 26.816792079739397 196.9067629982695 0.592809315066904
endloop
endfacet
facet normal 0 0 1
outer loop
vertex 22.95203129949682 197.08032184743618 0.5625600930804595
vertex 24.094057384809126 194.3299790490102 0.5616282734446585
vertex 26.816792079739397 196.9067629982695 0.592809315066904
endloop
endfacet
facet normal 0 0 1
outer loop
vertex 18.552414809121125 201.68721297424952 0.5628053524142596
vertex 15.255582759903138 200.40294953081684 0.5609631366093275
vertex 18.031621602128936 198.59136907255686 0.5603775770983923
endloop
endfacet
facet normal 0 0 1
outer loop
vertex 18.552414809121125 201.68721297424952 0.5628053524142596
vertex 18.031621602128936 198.59136907255686 0.5603775770983923
vertex 20.299098832645832 198.6141951983611 0.5613613763357335
endloop
endfacet
facet normal 0 0 1
outer loop
vertex 22.103436892334397 195.09544070655141 0.5604717294847765
vertex 21.381126357210224 193.1855667197803 0.5606447576146916
vertex 24.094057384809126 194.3299790490102 0.5616282734446585
endloop
endfacet
facet normal 0 0 1
outer loop
vertex 19.848818392063524 195.95525405951895 0.5602725429084032
vertex 21.381126357210224 193.1855667197803 0.5606447576146916
vertex 22.103436892334397 195.09544070655141 0.5604717294847765
endloop
endfacet
facet normal 0 0 1
outer loop
vertex 19.848818392063524 195.95525405951895 0.5602725429084032
vertex 22.103436892334397 195.09544070655141 0.5604717294847765
vertex 22.95203129949682 197.08032184743618 0.5625600930804595
endloop
endfacet
facet normal 0 0 1
outer loop
vertex 22.103436892334397 195.09544070655141 0.5604717294847765
vertex 24.094057384809126 194.3299790490102 0.5616282734446585
vertex 22.95203129949682 197.08032184743618 0.5625600930804595
endloop
endfacet
facet normal 0 0 1
outer loop
vertex 23.469942709230914 201.58021474872362 0.6018177490933818
vertex 20.125873931392434 206.93416193169583 0.666849553120884
vertex 20.068815846816715 204.0312342523037 0.586623447772535
endloop
endfacet
facet normal 0 0 1
outer loop
vertex 19.43638569212881 207.36820571969724 0.6578873354022159
vertex 14.084733741576539 209.36271018609216 0.6463516294780429
vertex 15.567313230665293 206.97429001943726 0.5902797945336618
endloop
endfacet
facet normal 0 0 1
outer loop
vertex 15.255582759903138 200.40294953081684 0.5609631366093275
vertex 14.113681207409584 198.14769686919126 0.5631645159826697
vertex 16.015130037804315 196.52724839157443 0.5609495058405336
endloop
endfacet
facet normal 0 0 1
outer loop
vertex 14.113681207409584 198.14769686919126 0.5631645159826697
vertex 12.228737419898973 196.09791455353053 0.5793620069855927
vertex 16.015130037804315 196.52724839157443 0.5609495058405336
endloop
endfacet
facet normal 0 0 1
outer loop
vertex 12.889428000181173 199.63933814088944 0.5652505452667775
vertex 12.228737419898973 196.09791455353053 0.5793620069855927
vertex 14.113681207409584 198.14769686919126 0.5631645159826697
endloop
endfacet
facet normal 0 0 1
outer loop
vertex 12.889428000181173 199.63933814088944 0.5652505452667775
vertex 14.113681207409584 198.14769686919126 0.5631645159826697
vertex 15.255582759903138 200.40294953081684 0.5609631366093275
endloop
endfacet
facet normal 0 0 1
outer loop
vertex 11.685271353326126 199.33243290546696 0.5742700330463757
vertex 10.14362415783751 200.41379080147718 0.5977333991092268
vertex 12.228737419898973 196.09791455353053 0.5793620069855927
endloop
endfacet
facet normal 0 0 1
outer loop
vertex 11.473268171481545 201.19348343447678 0.5732925863351499
vertex 10.14362415783751 200.41379080147718 0.5977333991092268
vertex 11.685271353326126 199.33243290546696 0.5742700330463757
endloop
endfacet
facet normal 0 0 1
outer loop
vertex 12.889428000181173 199.63933814088944 0.5652505452667775
vertex 11.473268171481545 201.19348343447678 0.5732925863351499
vertex 11.685271353326126 199.33243290546696 0.5742700330463757
endloop
endfacet
facet normal 0 0 1
outer loop
vertex 12.889428000181173 199.63933814088944 0.5652505452667775
vertex 11.685271353326126 199.33243290546696 0.5742700330463757
vertex 12.228737419898973 196.09791455353053 0.5793620069855927
endloop
endfacet
facet normal 0 0 1
outer loop
vertex 14.039282055580765 205.6448649317398 0.5738635185223149
vertex 15.690140405515715 205.19222779725476 0.5718828447226747
vertex 14.35458551815891 206.5725382863441 0.5803375490359273
endloop
endfacet
facet normal 0 0 1
outer loop
vertex 14.039282055580765 205.6448649317398 0.5738635185223149
vertex 14.35458551815891 206.5725382863441 0.5803375490359273
vertex 12.075026945127686 208.49600876130873 0.615125092004436
endloop
endfacet
facet normal 0 0 1
outer loop
vertex 14.35458551815891 206.5725382863441 0.5803375490359273
vertex 15.567313230665293 206.97429001943726 0.5902797945336618
vertex 12.075026945127686 208.49600876130873 0.615125092004436
endloop
endfacet
facet normal 0 0 1
outer loop
vertex 15.690140405515715 205.19222779725476 0.5718828447226747
vertex 15.567313230665293 206.97429001943726 0.5902797945336618
vertex 14.35458551815891 206.5725382863441 0.5803375490359273
endloop
endfacet
facet normal 0 0 1
outer loop
vertex 10.14362415783751 200.41379080147718 0.5977333991092268
vertex 10.52886910612178 198.86740081702382 0.5952108278045412
vertex 12.228737419898973 196.09791455353053 0.5793620069855927
endloop
endfacet
facet normal 0 0 1
outer loop
vertex 16.015130037804315 196.52724839157443 0.5609495058405336
vertex 12.228737419898973 196.09791455353053 0.5793620069855927
vertex 14.605105294748913 193.77373253557 0.5667816736150086
endloop
endfacet
facet normal 0 0 1
outer loop
vertex 21.963590339855358 199.93360951477416 0.5682779434921017
vertex 23.469942709230914 201.58021474872362 0.6018177490933818
vertex 21.030693508042894 201.798619302718 0.5714574540385811
endloop
endfacet
facet normal 0 0 1
outer loop
vertex 21.963590339855358 199.93360951477416 0.5682779434921017
vertex 21.030693508042894 201.798619302718 0.5714574540385811
vertex 18.552414809121125 201.68721297424952 0.5628053524142596
endloop
endfacet
facet normal 0 0 1
outer loop
vertex 18.552414809121125 201.68721297424952 0.5628053524142596
vertex 21.030693508042894 201.798619302718 0.5714574540385811
vertex 20.068815846816715 204.0312342523037 0.586623447772535
endloop
endfacet
facet normal 0 0 1
outer loop
vertex 21.030693508042894 201.798619302718 0.5714574540385811
vertex 23.469942709230914 201.58021474872362 0.6018177490933818
vertex 20.068815846816715 204.0312342523037 0.586623447772535
endloop
endfacet
facet normal 0 0 1
outer loop
vertex 12.561950760236178 202.73631373286966 0.5659316536745498
vertex 9.726687758113082 205.48777058908894 0.5919200997432106
vertex 11.062683770529722 202.893950909453 0.5729198435883198
endloop
endfacet
facet normal 0 0 1
outer loop
vertex 12.561950760236178 202.73631373286966 0.5659316536745498
vertex 11.062683770529722 202.893950909453 0.5729198435883198
vertex 11.473268171481545 201.19348343447678 0.5732925863351499
endloop
endfacet
facet normal 0 0 1
outer loop
vertex 11.062683770529722 202.893950909453 0.5729198435883198
vertex 10.497240552523015 202.1766557477025 0.5821390330161471
vertex 11.473268171481545 201.19348343447678 0.5732925863351499
endloop
endfacet
facet normal 0 0 1
outer loop
vertex 9.726687758113082 205.48777058908894 0.5919200997432106
vertex 10.497240552523015 202.1766557477025 0.5821390330161471
vertex 11.062683770529722 202.893950909453 0.5729198435883198
endloop
endfacet
facet normal 0 0 1
outer loop
vertex 15.255582759903138 200.40294953081684 0.5609631366093275
vertex 16.015130037804315 196.52724839157443 0.5609495058405336
vertex 18.031621602128936 198.59136907255686 0.5603775770983923
endloop
endfacet
facet normal 0 0 1
outer loop
vertex 9.726687758113082 205.48777058908894 0.5919200997432106
vertex 10.090632235882222 200.903686293257 0.594433715966211
vertex 10.497240552523015 202.1766557477025 0.5821390330161471
endloop
endfacet
facet normal 0 0 1
outer loop
vertex 12.984302501364247 205.94378047494166 0.574874212255646
vertex 12.191272121299345 205.38719952408894 0.5743709878037533
vertex 13.595274761778251 204.2858011906692 0.5672856652425757
endloop
endfacet
facet normal 0 0 1
outer loop
vertex 12.075026945127686 208.49600876130873 0.615125092004436
vertex 12.191272121299345 205.38719952408894 0.5743709878037533
vertex 12.984302501364247 205.94378047494166 0.574874212255646
endloop
endfacet
facet normal 0 0 1
outer loop
vertex 12.075026945127686 208.49600876130873 0.615125092004436
vertex 12.984302501364247 205.94378047494166 0.574874212255646
vertex 14.039282055580765 205.6448649317398 0.5738635185223149
endloop
endfacet
facet normal 0 0 1
outer loop
vertex 12.984302501364247 205.94378047494166 0.574874212255646
vertex 13.595274761778251 204.2858011906692 0.5672856652425757
vertex 14.039282055580765 205.6448649317398 0.5738635185223149
endloop
endfacet
facet normal 0 0 1
outer loop
vertex 16.882036430978694 203.76865460513903 0.5657420945888143
vertex 17.716965776658533 204.83195015180667 0.5747716545880381
vertex 15.690140405515715 205.19222779725476 0.5718828447226747
endloop
endfacet
facet normal 0 0 1
outer loop
vertex 18.552414809121125 201.68721297424952 0.5628053524142596
vertex 17.716965776658533 204.83195015180667 0.5747716545880381
vertex 16.882036430978694 203.76865460513903 0.5657420945888143
endloop
endfacet
facet normal 0 0 1
outer loop
vertex 15.486388779282667 203.36685856789276 0.5637451574343215
vertex 18.552414809121125 201.68721297424952 0.5628053524142596
vertex 16.882036430978694 203.76865460513903 0.5657420945888143
endloop
endfacet
facet normal 0 0 1
outer loop
vertex 15.486388779282667 203.36685856789276 0.5637451574343215
vertex 16.882036430978694 203.76865460513903 0.5657420945888143
vertex 15.690140405515715 205.19222779725476 0.5718828447226747
endloop
endfacet
facet normal 0 0 1
outer loop
vertex 13.595274761778251 204.2858011906692 0.5672856652425757
vertex 14.237580974033897 202.68697050391432 0.563201034625092
vertex 15.486388779282667 203.36685856789276 0.5637451574343215
endloop
endfacet
facet normal 0 0 1
outer loop
vertex 14.237580974033897 202.68697050391432 0.563201034625092
vertex 15.255582759903138 200.40294953081684 0.5609631366093275
vertex 15.486388779282667 203.36685856789276 0.5637451574343215
endloop
endfacet
facet normal 0 0 1
outer loop
vertex 14.237580974033897 202.68697050391432 0.563201034625092
vertex 12.561950760236178 202.73631373286966 0.5659316536745498
vertex 15.255582759903138 200.40294953081684 0.5609631366093275
endloop
endfacet
facet normal 0 0 1
outer loop
vertex 13.595274761778251 204.2858011906692 0.5672856652425757
vertex 12.561950760236178 202.73631373286966 0.5659316536745498
vertex 14.237580974033897 202.68697050391432 0.563201034625092
endloop
endfacet
facet normal 0 0 1
outer loop
vertex 20.26144596728295 188.02373723408311 0.5808998372896563
vertex 20.04452354399154 187.08788934182567 0.5930816561654206
vertex 22.487645839048962 187.68405513832354 0.5779754717307941
endloop
endfacet
facet normal 0 0 1
outer loop
vertex 18.243305927157607 187.3386287611577 0.6001115071628165
vertex 20.04452354399154 187.08788934182567 0.5930816561654206
vertex 20.26144596728295 188.02373723408311 0.5808998372896563
endloop
endfacet
facet normal 0 0 0.9999999999999999
outer loop
vertex 20.243308298445726 190.00957968559322 0.5665833816923138
vertex 18.243305927157607 187.3386287611577 0.6001115071628165
vertex 20.26144596728295 188.02373723408311 0.5808998372896563
endloop
endfacet
facet normal 0 0 0.9999999999999999
outer loop
vertex 20.243308298445726 190.00957968559322 0.5665833816923138
vertex 20.26144596728295 188.02373723408311 0.5808998372896563
vertex 22.487645839048962 187.68405513832354 0.5779754717307941
endloop
endfacet
facet normal 0 0 1
outer loop
vertex 27.82037715536751 186.57808851513187 0.5806251877028761
vertex 27.17389511699545 186.09974858234116 0.5846676293418125
vertex 29.69776176187075 184.9600143947386 0.5958301120624434
endloop
endfacet
facet normal 0 0 1
outer loop
vertex 26.073305702365115 187.61752584338072 0.5712655074871316
vertex 27.17389511699545 186.09974858234116 0.5846676293418125
vertex 27.82037715536751 186.57808851513187 0.5806251877028761
endloop
endfacet
facet normal 0 0 1
outer loop
vertex 26.073305702365115 187.61752584338072 0.5712655074871316
vertex 27.82037715536751 186.57808851513187 0.5806251877028761
vertex 28.33497400628997 187.61970315928744 0.5722353552860211
endloop
endfacet
facet normal 0 0 1
outer loop
vertex 27.82037715536751 186.57808851513187 0.5806251877028761
vertex 29.69776176187075 184.9600143947386 0.5958301120624434
vertex 28.33497400628997 187.61970315928744 0.5722353552860211
endloop
endfacet
facet normal 0 0 1
outer loop
vertex 12.983255107038326 193.8713165145238 0.5821080092573843
vertex 12.206982415487252 193.74055322764144 0.597178490906114
vertex 12.878570874232254 191.90447190718209 0.6009412854632745
endloop
endfacet
facet normal 0 0 1
outer loop
vertex 12.228737419898973 196.09791455353053 0.5793620069855927
vertex 12.206982415487252 193.74055322764144 0.597178490906114
vertex 12.983255107038326 193.8713165145238 0.5821080092573843
endloop
endfacet
facet normal 0 0 1
outer loop
vertex 12.228737419898973 196.09791455353053 0.5793620069855927
vertex 12.983255107038326 193.8713165145238 0.5821080092573843
vertex 14.605105294748913 193.77373253557 0.5667816736150086
endloop
endfacet
facet normal 0 0 1
outer loop
vertex 12.983255107038326 193.8713165145238 0.5821080092573843
vertex 12.878570874232254 191.90447190718209 0.6009412854632745
vertex 14.605105294748913 193.77373253557 0.5667816736150086
endloop
endfacet
facet normal 0 0 1
outer loop
vertex 28.33497400628997 187.61970315928744 0.5722353552860211
vertex 29.69776176187075 184.9600143947386 0.5958301120624434
vertex 29.823025778039664 187.3784774583865 0.5780977206842441
endloop
endfacet
facet normal 0 0 1
outer loop
vertex 28.33497400628997 187.61970315928744 0.5722353552860211
vertex 29.823025778039664 187.3784774583865 0.5780977206842441
vertex 29.615393600523923 189.35165303595858 0.5718036743193249
endloop
endfacet
facet normal 0 0 1
outer loop
vertex 29.823025778039664 187.3784774583865 0.5780977206842441
vertex 31.63993008835386 187.56218248778043 0.5954167369677943
vertex 29.615393600523923 189.35165303595858 0.5718036743193249
endloop
endfacet
facet normal 0 0 1
outer loop
vertex 29.69776176187075 184.9600143947386 0.5958301120624434
vertex 31.63993008835386 187.56218248778043 0.5954167369677943
vertex 29.823025778039664 187.3784774583865 0.5780977206842441
endloop
endfacet
facet normal 0 0 1
outer loop
vertex 20.299098832645832 198.6141951983611 0.5613613763357335
vertex 21.963590339855358 199.93360951477416 0.5682779434921017
vertex 18.552414809121125 201.68721297424952 0.5628053524142596
endloop
endfacet
endsolid insock
