999
DXF generated by GENSOLE
  0
SECTION
  2
HEADER
  0
ENDSEC
  0
SECTION
  2
TABLES
  0
TABLE
  2
LTYPE
  70
1
  0
LTYPE
  2
CONTINUOUS
  3
Solid Line
  72
65
  73
0
  40
0.0
  0
ENDTAB
  0
TABLE
  2
LAYER
  70
1
  0
LAYER
  2
ShapeRegion
  62
7
  6
Continuous
  0
ENDTAB
  0
TABLE
  2
STYLE
  70
0
  0
ENDTAB
  0
TABLE
  2
VIEW
  70
0
  0
ENDTAB
  0
ENDSEC
  0
SECTION
  2
BLOCKS
  0
ENDSEC
  0
SECTION
  2
ENTITIES
  0
LWPOLYLINE
  8
ShapeRegion
  90
145
  70
1
 10
-27.113158822841594
 20
255.44189249790043
 30
0.0
 10
-25.96404241237666
 20
255.6949756020444
 30
0.0
 10
-21.897007327857807
 20
257.07380891253274
 30
0.0
 10
-21.478899317350415
 20
257.2562727374199
 30
0.0
 10
-16.088879054322927
 20
258.02926372402965
 30
0.0
 10
-15.299310021507972
 20
258.45208034006885
 30
0.0
 10
-11.098013279576456
 20
259.10541673246115
 30
0.0
 10
-9.357379018904075
 20
259.37608374499166
 30
0.0
 10
-5.915457345617292
 20
259.91138027525335
 30
0.0
 10
-3.7457450567964528
 20
260.06696248365535
 30
0.0
 10
-0.444451137411618
 20
260.6094514212232
 30
0.0
 10
1.7593085223786145
 20
259.9860424265334
 30
0.0
 10
2.5116185095992423
 20
259.3718042926531
 30
0.0
 10
4.901375431172395
 20
258.55076857849843
 30
0.0
 10
8.199824220347242
 20
257.0426597158474
 30
0.0
 10
10.505613589068654
 20
256.3669913030938
 30
0.0
 10
13.45072131221256
 20
253.9789395303637
 30
0.0
 10
14.800436482180555
 20
254.2503632465418
 30
0.0
 10
18.548609075650546
 20
252.74741181259046
 30
0.0
 10
19.4194194060504
 20
252.32826578019396
 30
0.0
 10
20.27265843808126
 20
251.60241494394776
 30
0.0
 10
22.47406056204097
 20
248.2998279328376
 30
0.0
 10
23.265562580065442
 20
247.092851008767
 30
0.0
 10
24.539649324141283
 20
243.00025854642777
 30
0.0
 10
26.45527271977992
 20
241.99549000093282
 30
0.0
 10
29.892618777573702
 20
238.74989406563765
 30
0.0
 10
30.64862293369342
 20
237.63441260715808
 30
0.0
 10
32.75660164139478
 20
234.68266576131953
 30
0.0
 10
33.39571870264332
 20
233.73705628171555
 30
0.0
 10
34.963330153297136
 20
227.72097767026233
 30
0.0
 10
36.39255712448652
 20
225.77065398343913
 30
0.0
 10
38.86519572101102
 20
223.33717376995244
 30
0.0
 10
40.43316935434367
 20
222.05841478179278
 30
0.0
 10
43.7095333338521
 20
218.72023110174922
 30
0.0
 10
46.95917335658837
 20
215.15310698524084
 30
0.0
 10
47.21681875377969
 20
214.5157788485393
 30
0.0
 10
48.218589823591586
 20
209.92594152111823
 30
0.0
 10
48.070830182314666
 20
206.41726573841353
 30
0.0
 10
47.3184302061105
 20
204.9249665914311
 30
0.0
 10
46.66620859963612
 20
201.26554807481074
 30
0.0
 10
46.37141968843546
 20
199.35784601913653
 30
0.0
 10
47.34961649082371
 20
197.3099799537615
 30
0.0
 10
47.99109500689811
 20
193.35474017835355
 30
0.0
 10
48.29867137371174
 20
192.36993493694533
 30
0.0
 10
49.07927268734742
 20
189.48323528821908
 30
0.0
 10
49.65946182263517
 20
186.2803391959161
 30
0.0
 10
49.7974982701563
 20
185.28446421499166
 30
0.0
 10
49.83896776883689
 20
184.9239536260229
 30
0.0
 10
50.44066056084019
 20
179.51543568668933
 30
0.0
 10
50.5241595048232
 20
178.23964882135382
 30
0.0
 10
50.553279510534544
 20
174.77723686114706
 30
0.0
 10
50.48248656189666
 20
172.52085865429325
 30
0.0
 10
50.10924558266436
 20
170.4615248943777
 30
0.0
 10
49.91630320711918
 20
169.13290593733655
 30
0.0
 10
49.405092758307234
 20
165.58575219273573
 30
0.0
 10
49.17516828324416
 20
164.607330891499
 30
0.0
 10
48.533327224659736
 20
161.7851568835398
 30
0.0
 10
48.01127738024286
 20
159.9198777025692
 30
0.0
 10
47.75477701947662
 20
159.39118523616239
 30
0.0
 10
45.8062875065042
 20
155.63163610107202
 30
0.0
 10
45.216588162082424
 20
153.59269732678385
 30
0.0
 10
44.24325209158018
 20
151.94676807291748
 30
0.0
 10
43.48118161522528
 20
148.19751473748317
 30
0.0
 10
43.24107200915117
 20
147.53914322777578
 30
0.0
 10
42.80705768181963
 20
145.48036497412787
 30
0.0
 10
41.643551385401494
 20
144.06002950317912
 30
0.0
 10
40.878321733837645
 20
142.83658045726295
 30
0.0
 10
39.60476800577348
 20
140.98262429040557
 30
0.0
 10
37.738634918879384
 20
137.79824442895776
 30
0.0
 10
35.14499247482428
 20
134.8127737263871
 30
0.0
 10
33.160716447021244
 20
133.14526100138218
 30
0.0
 10
32.2629559859811
 20
132.1521577180135
 30
0.0
 10
29.032573215069224
 20
131.0947241236634
 30
0.0
 10
27.096776991231433
 20
130.26531736100478
 30
0.0
 10
22.859120539094132
 20
131.4011512482725
 30
0.0
 10
22.171023185795356
 20
131.55233460192778
 30
0.0
 10
21.69266413936197
 20
131.96685798042154
 30
0.0
 10
17.814510642102046
 20
134.68053424244377
 30
0.0
 10
16.830746066705867
 20
135.2520174179656
 30
0.0
 10
13.931525851509843
 20
137.33567832454966
 30
0.0
 10
13.496529798406419
 20
137.6254243921283
 30
0.0
 10
11.484115207677707
 20
139.62440316857317
 30
0.0
 10
10.267877362290779
 20
140.76903412628533
 30
0.0
 10
10.054662190675696
 20
141.07499633733715
 30
0.0
 10
7.988874603054733
 20
143.9043823601018
 30
0.0
 10
6.35741678504127
 20
147.0988917873839
 30
0.0
 10
6.168286960020516
 20
147.5534440654511
 30
0.0
 10
5.901204272484145
 20
147.98717715823852
 30
0.0
 10
3.83893163307534
 20
151.32485804355167
 30
0.0
 10
2.382868471624605
 20
153.5224100683782
 30
0.0
 10
1.5993200781162993
 20
154.95391311010985
 30
0.0
 10
0.997858657226395
 20
156.27433395240507
 30
0.0
 10
0.010266335429442774
 20
158.75101600473727
 30
0.0
 10
-1.565286000407096
 20
162.2058110315634
 30
0.0
 10
-1.7956653550734507
 20
162.60242885013994
 30
0.0
 10
-5.629420546884172
 20
165.6790766992376
 30
0.0
 10
-7.8205795596237575
 20
166.6550306911942
 30
0.0
 10
-10.174055535825545
 20
167.3678634785797
 30
0.0
 10
-11.195054268755015
 20
167.5395362355989
 30
0.0
 10
-14.232548105141579
 20
168.30865207429883
 30
0.0
 10
-16.157964941912148
 20
168.89032490284285
 30
0.0
 10
-21.54090291865393
 20
171.2666478918812
 30
0.0
 10
-26.92370308523201
 20
173.90414434141414
 30
0.0
 10
-30.016013990758406
 20
176.2891210601504
 30
0.0
 10
-30.870138768111143
 20
176.886805011743
 30
0.0
 10
-31.854282484496434
 20
177.6778031360742
 30
0.0
 10
-33.43093184309526
 20
179.76538496809468
 30
0.0
 10
-34.11817705388224
 20
180.96257863116398
 30
0.0
 10
-35.68655767783393
 20
183.8490876842949
 30
0.0
 10
-36.66073480737877
 20
185.89027641251775
 30
0.0
 10
-38.259030259717015
 20
190.08382185802765
 30
0.0
 10
-38.41719262508933
 20
190.55325226445163
 30
0.0
 10
-39.30598567438289
 20
195.87119204458233
 30
0.0
 10
-39.41260399377221
 20
196.58229992885174
 30
0.0
 10
-39.557527780563234
 20
201.11030682651145
 30
0.0
 10
-39.70629496216804
 20
204.35759926637655
 30
0.0
 10
-39.80151231398243
 20
205.42522748374435
 30
0.0
 10
-39.73473025459603
 20
208.86375098744492
 30
0.0
 10
-39.82248647131097
 20
210.81540894963575
 30
0.0
 10
-39.74753382053854
 20
213.97371014233306
 30
0.0
 10
-39.80249100049447
 20
215.80262077782314
 30
0.0
 10
-40.31310486338818
 20
218.64263399427384
 30
0.0
 10
-40.61277746430773
 20
220.93590419602327
 30
0.0
 10
-41.32538734240343
 20
223.240317121195
 30
0.0
 10
-41.89947132377866
 20
225.72891967026854
 30
0.0
 10
-43.45610537598461
 20
229.60666823624325
 30
0.0
 10
-43.67151062880153
 20
230.479296301846
 30
0.0
 10
-44.18377877263869
 20
231.25416163745217
 30
0.0
 10
-46.291217559105995
 20
235.53020321314662
 30
0.0
 10
-46.96041919197795
 20
236.85640024891342
 30
0.0
 10
-46.52994919053309
 20
238.09814333499483
 30
0.0
 10
-47.2752810754386
 20
240.19572047051489
 30
0.0
 10
-47.35325741260562
 20
242.0645198644118
 30
0.0
 10
-45.55367375990517
 20
243.83192849788787
 30
0.0
 10
-43.78830307595353
 20
246.80937602726084
 30
0.0
 10
-43.507750641706686
 20
247.40101201528168
 30
0.0
 10
-42.69101095933555
 20
248.26675766483513
 30
0.0
 10
-39.934852179472394
 20
250.1823996030283
 30
0.0
 10
-39.012246709978115
 20
249.92982820142083
 30
0.0
 10
-37.27016186236593
 20
250.71969763528662
 30
0.0
 10
-35.236542645956035
 20
251.59640235181757
 30
0.0
 10
-32.86343247369193
 20
252.5044214060649
 30
0.0
 10
-31.160951177391908
 20
253.6803922525784
 30
0.0
 10
-28.354219391299193
 20
254.3923588508565
 30
0.0
 10
-27.113158822841594
 20
255.44189249790043
 30
0.0
  0
ENDSEC
  0
EOF
