999
DXF generated by GENSOLE
  0
SECTION
  2
HEADER
  0
ENDSEC
  0
SECTION
  2
TABLES
  0
TABLE
  2
LTYPE
  70
1
  0
LTYPE
  2
CONTINUOUS
  3
Solid Line
  72
65
  73
0
  40
0.0
  0
ENDTAB
  0
TABLE
  2
LAYER
  70
1
  0
LAYER
  2
ShapeRegion
  62
7
  6
Continuous
  0
ENDTAB
  0
TABLE
  2
STYLE
  70
0
  0
ENDTAB
  0
TABLE
  2
VIEW
  70
0
  0
ENDTAB
  0
ENDSEC
  0
SECTION
  2
BLOCKS
  0
ENDSEC
  0
SECTION
  2
ENTITIES
  0
LWPOLYLINE
  8
ShapeRegion
  90
33
  70
1
 10
-14.453034782874091
 20
33.25723629030295
 30
0.0
 10
-13.571407136226235
 20
31.98363942927446
 30
0.0
 10
-7.196105562925357
 20
29.123416243331448
 30
0.0
 10
-6.423289430986824
 20
28.823496555184754
 30
0.0
 10
-6.078960221144109
 20
28.919034149757422
 30
0.0
 10
-5.671458505400817
 20
29.12597974036547
 30
0.0
 10
-0.9368564456685193
 20
31.331081983245163
 30
0.0
 10
0.3767112988602983
 20
32.066971162216205
 30
0.0
 10
2.988888856781762
 20
33.820052238538764
 30
0.0
 10
3.469440156220779
 20
34.42243024493985
 30
0.0
 10
3.9358119915569807
 20
35.42612076340245
 30
0.0
 10
4.571402664002064
 20
38.0980565709133
 30
0.0
 10
4.845756681896987
 20
39.00260899081853
 30
0.0
 10
5.358450891247751
 20
42.14747925155389
 30
0.0
 10
5.745591506540203
 20
44.201012067147474
 30
0.0
 10
5.00232524549836
 20
47.31012568652782
 30
0.0
 10
4.765979387606447
 20
49.20687794839595
 30
0.0
 10
3.1292810568452
 20
52.57317359780253
 30
0.0
 10
-2.478173579463677
 20
54.090290756223354
 30
0.0
 10
-3.030678010988966
 20
54.365120713696356
 30
0.0
 10
-5.6911751201250755
 20
54.15585738287405
 30
0.0
 10
-10.15886034048108
 20
53.72097474656706
 30
0.0
 10
-12.005059970347622
 20
52.26488987162638
 30
0.0
 10
-13.545843718344537
 20
50.827803141105
 30
0.0
 10
-14.064366142788096
 20
50.11277942833454
 30
0.0
 10
-14.700214451931883
 20
48.1481252622906
 30
0.0
 10
-14.82367084478652
 20
47.81927238309403
 30
0.0
 10
-15.68721364754245
 20
44.246193120532695
 30
0.0
 10
-15.894652544626801
 20
43.10710772750068
 30
0.0
 10
-15.642448592499152
 20
39.42658762837002
 30
0.0
 10
-15.850458979195441
 20
38.120864215751496
 30
0.0
 10
-14.775058130477191
 20
34.06040262682918
 30
0.0
 10
-14.453034782874091
 20
33.25723629030295
 30
0.0
  0
ENDSEC
  0
EOF
