999
DXF generated by GENSOLE
  0
SECTION
  2
HEADER
  0
ENDSEC
  0
SECTION
  2
TABLES
  0
TABLE
  2
LTYPE
  70
1
  0
LTYPE
  2
CONTINUOUS
  3
Solid Line
  72
65
  73
0
  40
0.0
  0
ENDTAB
  0
TABLE
  2
LAYER
  70
1
  0
LAYER
  2
ShapeRegion
  62
7
  6
Continuous
  0
ENDTAB
  0
TABLE
  2
STYLE
  70
0
  0
ENDTAB
  0
TABLE
  2
VIEW
  70
0
  0
ENDTAB
  0
ENDSEC
  0
SECTION
  2
BLOCKS
  0
ENDSEC
  0
SECTION
  2
ENTITIES
  0
LWPOLYLINE
  8
ShapeRegion
  90
74
  70
1
 10
-9.819960401235907
 20
13.704192643306094
 30
0.0
 10
-8.05463538142178
 20
13.043379383833594
 30
0.0
 10
-6.681814263971602
 20
12.73718494392553
 30
0.0
 10
-2.6935642372863366
 20
12.28709927639415
 30
0.0
 10
-1.032668575172557
 20
12.476576264856583
 30
0.0
 10
3.2924281474412322
 20
14.123358630764208
 30
0.0
 10
4.055846388875456
 20
14.467566516452203
 30
0.0
 10
4.80311491560283
 20
14.948955432328553
 30
0.0
 10
8.274981487099883
 20
17.621803523876693
 30
0.0
 10
8.984598621104617
 20
18.3153956747119
 30
0.0
 10
10.07392668158274
 20
19.315664263179414
 30
0.0
 10
11.83438405622555
 20
21.289194959484256
 30
0.0
 10
13.628689904452285
 20
23.05802421332373
 30
0.0
 10
14.31648222143738
 20
23.856940205112018
 30
0.0
 10
14.821619591579529
 20
24.53552144146951
 30
0.0
 10
16.220282415946574
 20
26.977228511497955
 30
0.0
 10
17.417526576627743
 20
29.72696996084701
 30
0.0
 10
17.72767525714634
 20
30.60139083629391
 30
0.0
 10
18.542287147031768
 20
33.20465477645478
 30
0.0
 10
18.922169001741096
 20
34.62538786239093
 30
0.0
 10
19.002857227798977
 20
35.03639329318608
 30
0.0
 10
19.525239269353023
 20
38.72151038763857
 30
0.0
 10
19.794878463589512
 20
40.166674091434885
 30
0.0
 10
19.994528878640853
 20
43.26144240668335
 30
0.0
 10
20.293190984158226
 20
45.44439185071975
 30
0.0
 10
20.108636250954287
 20
47.85682111192227
 30
0.0
 10
20.06181803626749
 20
50.520504846283444
 30
0.0
 10
19.545457916667807
 20
53.05841723968197
 30
0.0
 10
19.33570868044506
 20
55.61345123010865
 30
0.0
 10
18.579351371381545
 20
58.470068459997115
 30
0.0
 10
18.100029202807253
 20
60.53695628251118
 30
0.0
 10
16.131098924206775
 20
64.86010400574504
 30
0.0
 10
16.024387337451785
 20
65.20399664200399
 30
0.0
 10
15.68176822539609
 20
65.99574530472049
 30
0.0
 10
13.82497084669057
 20
69.53439967792801
 30
0.0
 10
11.741019456788928
 20
71.76574068832952
 30
0.0
 10
10.848072591705108
 20
73.04830051642159
 30
0.0
 10
10.202932549346135
 20
73.74087592118961
 30
0.0
 10
8.25721339833887
 20
75.29581985121527
 30
0.0
 10
7.3260185355175675
 20
76.06747217949342
 30
0.0
 10
3.8806477788239024
 20
78.088859884995
 30
0.0
 10
-1.3572706837136108
 20
78.61514975956545
 30
0.0
 10
-7.2166573268994325
 20
76.60223579504822
 30
0.0
 10
-11.753863507838624
 20
73.46914032451011
 30
0.0
 10
-12.163324907063172
 20
73.15762080021031
 30
0.0
 10
-12.904356614877425
 20
72.69789326288728
 30
0.0
 10
-16.84270490596041
 20
69.23167053564755
 30
0.0
 10
-17.948041929794535
 20
67.75205238792424
 30
0.0
 10
-19.851239479800082
 20
65.10904756660398
 30
0.0
 10
-22.03448901249293
 20
61.69413990876864
 30
0.0
 10
-22.284731858931597
 20
61.34350383156004
 30
0.0
 10
-22.459390851835977
 20
61.048688573962025
 30
0.0
 10
-23.47549312452583
 20
57.81151629490587
 30
0.0
 10
-23.575831023767844
 20
57.373646865594715
 30
0.0
 10
-24.56281107386808
 20
54.74675009581351
 30
0.0
 10
-24.860884057713818
 20
53.76653158211351
 30
0.0
 10
-25.367055242400024
 20
50.784291676563086
 30
0.0
 10
-25.431372344413347
 20
50.30818698284637
 30
0.0
 10
-25.777216509899148
 20
48.485671028248234
 30
0.0
 10
-26.165620387613785
 20
46.342634507320604
 30
0.0
 10
-26.483638903898314
 20
41.708016423078234
 30
0.0
 10
-26.57760827871939
 20
40.9706309578625
 30
0.0
 10
-26.9177378377536
 20
36.8275688915254
 30
0.0
 10
-26.9358152514379
 20
36.13622616232679
 30
0.0
 10
-26.581850068324716
 20
31.894132058428152
 30
0.0
 10
-26.522325311696193
 20
31.57048495960382
 30
0.0
 10
-26.094700361522044
 20
30.033286742511383
 30
0.0
 10
-24.922326621945956
 20
27.13521356785033
 30
0.0
 10
-24.29390270292307
 20
26.032800304528866
 30
0.0
 10
-22.26620232550753
 20
22.783194533252534
 30
0.0
 10
-19.827901978873943
 20
19.848751360848095
 30
0.0
 10
-18.080567413764953
 20
18.45103119253038
 30
0.0
 10
-14.019596222342793
 20
15.704687388608866
 30
0.0
 10
-9.819960401235907
 20
13.704192643306094
 30
0.0
  0
ENDSEC
  0
EOF
