999
DXF generated by GENSOLE
  0
SECTION
  2
HEADER
  0
ENDSEC
  0
SECTION
  2
TABLES
  0
TABLE
  2
LTYPE
  70
1
  0
LTYPE
  2
CONTINUOUS
  3
Solid Line
  72
65
  73
0
  40
0.0
  0
ENDTAB
  0
TABLE
  2
LAYER
  70
1
  0
LAYER
  2
ShapeRegion
  62
7
  6
Continuous
  0
ENDTAB
  0
TABLE
  2
STYLE
  70
0
  0
ENDTAB
  0
TABLE
  2
VIEW
  70
0
  0
ENDTAB
  0
ENDSEC
  0
SECTION
  2
BLOCKS
  0
ENDSEC
  0
SECTION
  2
ENTITIES
  0
LWPOLYLINE
  8
ShapeRegion
  90
49
  70
1
 10
-35.79559171447816
 20
263.7877190712775
 30
0.0
 10
-34.62548675849853
 20
265.0619559110222
 30
0.0
 10
-33.47370964515337
 20
265.60853592335354
 30
0.0
 10
-33.17622920234304
 20
265.95352292951833
 30
0.0
 10
-29.889900166710845
 20
266.99963542849923
 30
0.0
 10
-28.169537384401085
 20
268.8261838910788
 30
0.0
 10
-26.405954294756334
 20
268.22281074374445
 30
0.0
 10
-23.70337083103459
 20
268.0322708808757
 30
0.0
 10
-20.939849942250397
 20
269.08027964156764
 30
0.0
 10
-19.252895459328148
 20
268.32529253969557
 30
0.0
 10
-16.54678955233042
 20
269.0207671602708
 30
0.0
 10
-14.939558222635043
 20
267.2898229958076
 30
0.0
 10
-14.415712273602791
 20
266.1581717589543
 30
0.0
 10
-14.0445026912906
 20
265.0073977398697
 30
0.0
 10
-12.974266437731071
 20
261.6700285534539
 30
0.0
 10
-12.582247852055966
 20
260.0060795362995
 30
0.0
 10
-12.408855738411132
 20
256.8772045544995
 30
0.0
 10
-12.958025427318406
 20
255.5908372337384
 30
0.0
 10
-13.969232781879853
 20
251.73251769480862
 30
0.0
 10
-14.222460987073031
 20
251.10957379504345
 30
0.0
 10
-15.640910173351681
 20
248.19171283474023
 30
0.0
 10
-15.95717300518911
 20
247.19580122469563
 30
0.0
 10
-17.212533370150865
 20
244.94520888346662
 30
0.0
 10
-18.58357413876226
 20
242.3521177662892
 30
0.0
 10
-18.986238456961818
 20
241.54055419908795
 30
0.0
 10
-20.749713740420823
 20
239.86714900141507
 30
0.0
 10
-21.82535180983618
 20
238.69247098184033
 30
0.0
 10
-24.44307053533438
 20
236.52849135234922
 30
0.0
 10
-25.439822855355796
 20
236.34925259115397
 30
0.0
 10
-30.66175931415008
 20
235.59943928802605
 30
0.0
 10
-31.712785271732592
 20
235.7723185026297
 30
0.0
 10
-35.08767081486767
 20
236.5401840290524
 30
0.0
 10
-36.37393055489383
 20
237.24559501961966
 30
0.0
 10
-37.78323215801522
 20
238.77739177397126
 30
0.0
 10
-39.08444134080744
 20
239.7865493221967
 30
0.0
 10
-40.311338126078006
 20
241.9275548768194
 30
0.0
 10
-41.06697880682207
 20
244.04795410382948
 30
0.0
 10
-41.32504471435423
 20
244.85662918141688
 30
0.0
 10
-42.13968612398865
 20
249.2306196010149
 30
0.0
 10
-42.248315016932416
 20
250.0966088597704
 30
0.0
 10
-44.630856395313856
 20
253.8835870878394
 30
0.0
 10
-44.42139460915849
 20
255.30811907229662
 30
0.0
 10
-42.24311064069807
 20
256.2617334994124
 30
0.0
 10
-41.30318412444493
 20
256.7927716164723
 30
0.0
 10
-40.26215589645208
 20
258.03287880358533
 30
0.0
 10
-38.170937221003996
 20
258.65476728033
 30
0.0
 10
-37.473452550398086
 20
260.0617788538344
 30
0.0
 10
-36.84896354485471
 20
263.0601438058134
 30
0.0
 10
-35.79559171447816
 20
263.7877190712775
 30
0.0
  0
ENDSEC
  0
EOF
