999
DXF generated by GENSOLE
  0
SECTION
  2
HEADER
  0
ENDSEC
  0
SECTION
  2
TABLES
  0
TABLE
  2
LTYPE
  70
1
  0
LTYPE
  2
CONTINUOUS
  3
Solid Line
  72
65
  73
0
  40
0.0
  0
ENDTAB
  0
TABLE
  2
LAYER
  70
1
  0
LAYER
  2
ShapeRegion
  62
7
  6
Continuous
  0
ENDTAB
  0
TABLE
  2
STYLE
  70
0
  0
ENDTAB
  0
TABLE
  2
VIEW
  70
0
  0
ENDTAB
  0
ENDSEC
  0
SECTION
  2
BLOCKS
  0
ENDSEC
  0
SECTION
  2
ENTITIES
  0
LWPOLYLINE
  8
ShapeRegion
  90
114
  70
1
 10
-30.313475643797887
 20
222.2315194964941
 30
0.0
 10
-30.110668083130182
 20
220.23692871178488
 30
0.0
 10
-30.154713568967626
 20
219.50046198826325
 30
0.0
 10
-31.85515281066328
 20
215.49836914882732
 30
0.0
 10
-32.550620145779696
 20
212.09558784278704
 30
0.0
 10
-32.804453319059945
 20
211.04259685030655
 30
0.0
 10
-32.67855615807447
 20
207.2010378175594
 30
0.0
 10
-32.374971244223616
 20
205.784898934207
 30
0.0
 10
-32.66096816336737
 20
203.92000473165865
 30
0.0
 10
-32.49711534450123
 20
201.71422530037347
 30
0.0
 10
-32.51731836542647
 20
199.0067156898455
 30
0.0
 10
-32.39321171104414
 20
197.88324791539983
 30
0.0
 10
-31.677087779972222
 20
195.30154694356693
 30
0.0
 10
-31.416493814015922
 20
194.4469683388019
 30
0.0
 10
-30.17034075186615
 20
192.46503749640002
 30
0.0
 10
-28.544098484900058
 20
190.875416948588
 30
0.0
 10
-27.30170445783443
 20
189.76573885002267
 30
0.0
 10
-25.52588630283067
 20
188.14887092992166
 30
0.0
 10
-22.665125343585803
 20
185.94169549420232
 30
0.0
 10
-21.554264277694692
 20
185.1826803684082
 30
0.0
 10
-20.754787440793926
 20
184.70989399564604
 30
0.0
 10
-17.295384997962447
 20
183.29205115631348
 30
0.0
 10
-15.338991050200773
 20
182.48262147850133
 30
0.0
 10
-11.729482542728045
 20
181.66227306867276
 30
0.0
 10
-10.89039466708079
 20
181.61532968183286
 30
0.0
 10
-8.746207514556913
 20
181.7832537403541
 30
0.0
 10
-7.4849350460105954
 20
181.97747585606683
 30
0.0
 10
-6.855599111084964
 20
181.95214829135793
 30
0.0
 10
-4.0533528357694895
 20
183.04946331531303
 30
0.0
 10
-1.6255440866169115
 20
181.68362936216437
 30
0.0
 10
0.0853373024671932
 20
181.07161908053862
 30
0.0
 10
1.9492611307335594
 20
178.847372821714
 30
0.0
 10
3.7586603947167956
 20
176.81653051593742
 30
0.0
 10
5.463595835402022
 20
175.1346175805438
 30
0.0
 10
7.993692623345261
 20
171.86761818923435
 30
0.0
 10
8.234465570302687
 20
171.59308534077903
 30
0.0
 10
8.771801672303758
 20
170.84894651337788
 30
0.0
 10
11.264715974503698
 20
167.88642180855595
 30
0.0
 10
12.723802872239812
 20
166.39157180508258
 30
0.0
 10
15.553729123218192
 20
163.18375045805325
 30
0.0
 10
16.827579191984327
 20
162.1026547102871
 30
0.0
 10
19.499167674644774
 20
160.6168357205842
 30
0.0
 10
21.374411520542562
 20
159.82250740017466
 30
0.0
 10
23.104256056574037
 20
158.84831637029694
 30
0.0
 10
27.09750436579695
 20
157.60595272563907
 30
0.0
 10
27.498233849927598
 20
157.5211868111701
 30
0.0
 10
29.47677292626705
 20
157.34224425001713
 30
0.0
 10
32.84048460375681
 20
157.00600112505938
 30
0.0
 10
33.12543579948734
 20
157.2025097856501
 30
0.0
 10
33.55160773548422
 20
157.50716483713933
 30
0.0
 10
36.72430218980917
 20
159.2441134574936
 30
0.0
 10
38.41640525904542
 20
160.29640085449716
 30
0.0
 10
39.50075013733726
 20
161.9619997949873
 30
0.0
 10
40.27520058900163
 20
163.0732385092905
 30
0.0
 10
41.68438115528347
 20
165.13727191309187
 30
0.0
 10
43.54435068220289
 20
167.86685319847555
 30
0.0
 10
44.88470404026698
 20
171.62108862368225
 30
0.0
 10
45.28693798306996
 20
173.2986804402343
 30
0.0
 10
45.65332505250668
 20
175.80589948956387
 30
0.0
 10
45.95529080022829
 20
178.43068927857635
 30
0.0
 10
45.97322491341343
 20
180.19227203433735
 30
0.0
 10
45.72384454697757
 20
183.48973992663676
 30
0.0
 10
45.41999064778346
 20
185.2762513851741
 30
0.0
 10
45.05491291206103
 20
188.6479999414692
 30
0.0
 10
44.394421403335464
 20
191.0820531322153
 30
0.0
 10
43.324047675899756
 20
193.84501409634063
 30
0.0
 10
42.570826723572274
 20
195.40284399303
 30
0.0
 10
40.43746098639945
 20
198.9164784845429
 30
0.0
 10
39.61808974858968
 20
201.75802643807754
 30
0.0
 10
38.71177541661313
 20
203.48868322848466
 30
0.0
 10
38.401837468702794
 20
204.62159222053296
 30
0.0
 10
39.76133309464985
 20
204.87446019102117
 30
0.0
 10
41.36312307439087
 20
206.69374963367773
 30
0.0
 10
43.07176512959602
 20
208.14184432050754
 30
0.0
 10
44.66287572905981
 20
209.11485634606663
 30
0.0
 10
44.96779326222134
 20
211.33636568249864
 30
0.0
 10
45.12799239787413
 20
212.49635659460472
 30
0.0
 10
44.59458397152827
 20
214.45051274454917
 30
0.0
 10
43.988176015236384
 20
215.95056225863965
 30
0.0
 10
42.070163314426054
 20
219.22901431356232
 30
0.0
 10
39.18670172559412
 20
222.787367396959
 30
0.0
 10
37.79186613954271
 20
223.4121096121206
 30
0.0
 10
34.46311644887133
 20
224.2697320961196
 30
0.0
 10
31.055734148426517
 20
227.8389756664794
 30
0.0
 10
30.93198406350963
 20
223.81894390665755
 30
0.0
 10
29.734445059343894
 20
223.41920438466315
 30
0.0
 10
28.198456647875446
 20
217.84549359355404
 30
0.0
 10
28.356125155652467
 20
216.953300919761
 30
0.0
 10
27.453674526358466
 20
215.91017857130066
 30
0.0
 10
25.860226163951268
 20
217.58331567315963
 30
0.0
 10
20.97246275554894
 20
220.86308656588076
 30
0.0
 10
19.484361303242853
 20
221.62968291833783
 30
0.0
 10
17.351146683547476
 20
222.45329727118076
 30
0.0
 10
15.690179851109136
 20
225.60055796205316
 30
0.0
 10
12.037744875725963
 20
224.05739739187717
 30
0.0
 10
10.0103129768487
 20
224.43921044226792
 30
0.0
 10
8.010262159478389
 20
224.80658255418348
 30
0.0
 10
5.396220203308044
 20
225.1599546568405
 30
0.0
 10
3.6283468262206164
 20
225.55440723525
 30
0.0
 10
0.11415480006139855
 20
225.54420584163927
 30
0.0
 10
-1.255609558294547
 20
225.4869705914501
 30
0.0
 10
-2.026642635297912
 20
225.25289224327025
 30
0.0
 10
-2.8815092726237994
 20
224.7951741715126
 30
0.0
 10
-5.856003264769088
 20
223.42314060882075
 30
0.0
 10
-8.420875775633563
 20
222.35296495251288
 30
0.0
 10
-9.101226354289036
 20
222.07871009061074
 30
0.0
 10
-12.495157208742944
 20
220.79783231598762
 30
0.0
 10
-16.60863453756523
 20
220.94081376384085
 30
0.0
 10
-17.48899995098074
 20
221.0894680458067
 30
0.0
 10
-20.369417514386942
 20
221.94928072232278
 30
0.0
 10
-23.187754195861764
 20
223.2502948674342
 30
0.0
 10
-25.496692694296257
 20
224.15512231482634
 30
0.0
 10
-27.49431979107562
 20
222.63600702531883
 30
0.0
 10
-30.313475643797887
 20
222.2315194964941
 30
0.0
  0
ENDSEC
  0
EOF
