999
DXF generated by GENSOLE
  0
SECTION
  2
HEADER
  0
ENDSEC
  0
SECTION
  2
TABLES
  0
TABLE
  2
LTYPE
  70
1
  0
LTYPE
  2
CONTINUOUS
  3
Solid Line
  72
65
  73
0
  40
0.0
  0
ENDTAB
  0
TABLE
  2
LAYER
  70
1
  0
LAYER
  2
ShapeRegion
  62
7
  6
Continuous
  0
ENDTAB
  0
TABLE
  2
STYLE
  70
0
  0
ENDTAB
  0
TABLE
  2
VIEW
  70
0
  0
ENDTAB
  0
ENDSEC
  0
SECTION
  2
BLOCKS
  0
ENDSEC
  0
SECTION
  2
ENTITIES
  0
LWPOLYLINE
  8
ShapeRegion
  90
448
  70
1
 10
21.50426060436235
 20
271.10457934015227
 30
0.0
 10
22.56682791021801
 20
270.2184418215926
 30
0.0
 10
23.038466339593807
 20
269.8281638822563
 30
0.0
 10
23.694885975567278
 20
269.2577374961103
 30
0.0
 10
24.464124901269884
 20
268.5308280108759
 30
0.0
 10
24.739437183605933
 20
268.2405924882244
 30
0.0
 10
25.410305363276912
 20
267.4796247893099
 30
0.0
 10
26.2779744738991
 20
266.57356691641576
 30
0.0
 10
26.560448206619938
 20
266.2776919908692
 30
0.0
 10
27.089039075050525
 20
265.75631763814175
 30
0.0
 10
27.505957250751774
 20
263.14506232507074
 30
0.0
 10
28.74025392072636
 20
260.72767291823817
 30
0.0
 10
28.985903562492584
 20
260.3176562416863
 30
0.0
 10
29.190201931781505
 20
260.04630969963523
 30
0.0
 10
29.935542402350542
 20
259.05433840801874
 30
0.0
 10
30.307750029686684
 20
258.5256068438948
 30
0.0
 10
31.091356176318765
 20
257.3973013983697
 30
0.0
 10
31.886338743727684
 20
256.3372181323782
 30
0.0
 10
32.32505088711237
 20
255.7918849855538
 30
0.0
 10
33.071400812517865
 20
254.4977352960905
 30
0.0
 10
33.53842328254688
 20
253.72025957097688
 30
0.0
 10
34.13815396291535
 20
252.5911656371726
 30
0.0
 10
34.64222137910309
 20
251.86094374661326
 30
0.0
 10
35.40960805129675
 20
250.91593345904093
 30
0.0
 10
35.93310350874582
 20
250.25908883159235
 30
0.0
 10
36.581699499248366
 20
249.36924022323637
 30
0.0
 10
37.042487363154635
 20
248.3890917552969
 30
0.0
 10
37.38941884765129
 20
247.8018015427264
 30
0.0
 10
37.808531736947714
 20
246.77992442314644
 30
0.0
 10
38.41891298159141
 20
245.80073232541082
 30
0.0
 10
38.4607143089521
 20
245.26914478793842
 30
0.0
 10
38.70713846143728
 20
244.58214030390627
 30
0.0
 10
38.93626539021972
 20
243.68840811325717
 30
0.0
 10
39.43898415701107
 20
242.93244242042195
 30
0.0
 10
39.79550184675639
 20
242.35012276415395
 30
0.0
 10
40.015889963895276
 20
242.04155588845288
 30
0.0
 10
40.66980942695634
 20
241.11728309023627
 30
0.0
 10
41.20479150688767
 20
239.64483219812556
 30
0.0
 10
41.18240742927256
 20
239.19144157041592
 30
0.0
 10
40.47096682224537
 20
237.53024807908542
 30
0.0
 10
40.070773403418116
 20
236.6698038044745
 30
0.0
 10
40.911069156369294
 20
236.04242365589295
 30
0.0
 10
41.514493439795125
 20
235.89097778677078
 30
0.0
 10
42.66985693828255
 20
234.97573856964638
 30
0.0
 10
43.63060162820228
 20
234.94729054323298
 30
0.0
 10
44.18417324092351
 20
234.43841729980667
 30
0.0
 10
44.32257781785948
 20
233.29531357989754
 30
0.0
 10
44.770269051944325
 20
232.09225693696467
 30
0.0
 10
44.746301530373366
 20
230.46715423615112
 30
0.0
 10
44.67285352829283
 20
229.86048144158988
 30
0.0
 10
44.44791135190802
 20
228.17390340038975
 30
0.0
 10
44.17970272705089
 20
226.51276555041653
 30
0.0
 10
44.12385065803014
 20
226.00444423374552
 30
0.0
 10
44.161927748885006
 20
225.32296366288955
 30
0.0
 10
43.94702366522084
 20
224.08403666904024
 30
0.0
 10
44.15559087620789
 20
222.91684718215987
 30
0.0
 10
43.77831924735386
 20
221.32966845072312
 30
0.0
 10
43.714916645922095
 20
220.42439679953287
 30
0.0
 10
43.602819714736086
 20
219.2622480033211
 30
0.0
 10
43.79963175378623
 20
217.22542950821193
 30
0.0
 10
43.77266205218207
 20
215.08123328033167
 30
0.0
 10
43.727349455247236
 20
212.7197788168737
 30
0.0
 10
43.70854124788583
 20
212.04895061192215
 30
0.0
 10
43.642932240167866
 20
211.3542507531987
 30
0.0
 10
43.60769526445459
 20
210.26366035435822
 30
0.0
 10
43.61328913805304
 20
209.6521516125172
 30
0.0
 10
43.50907704267274
 20
208.20148087993914
 30
0.0
 10
43.4641851967451
 20
207.73709808540318
 30
0.0
 10
43.16477745697259
 20
205.60542008148568
 30
0.0
 10
42.79198335120382
 20
203.43038835011612
 30
0.0
 10
42.6746087886476
 20
203.03634674340583
 30
0.0
 10
42.419217405540095
 20
201.89825265415587
 30
0.0
 10
42.32255136485572
 20
201.32402894056733
 30
0.0
 10
42.26303644208268
 20
200.73674905961954
 30
0.0
 10
41.81917726502711
 20
199.1552462056097
 30
0.0
 10
41.66612666956632
 20
198.77409977696414
 30
0.0
 10
40.906933696432446
 20
196.77124884624453
 30
0.0
 10
40.724189011158145
 20
196.32606633252817
 30
0.0
 10
39.72991597836468
 20
194.30454793852874
 30
0.0
 10
39.169228351322964
 20
193.38032877094824
 30
0.0
 10
38.666138093671194
 20
192.49471702926746
 30
0.0
 10
38.29989737818762
 20
191.85916337297732
 30
0.0
 10
37.62178130587385
 20
190.78046535499936
 30
0.0
 10
37.15565095942516
 20
190.0357411250536
 30
0.0
 10
36.620920073981324
 20
189.2643362478156
 30
0.0
 10
35.691371828979484
 20
188.08832310898762
 30
0.0
 10
35.27351811369565
 20
187.53406047663424
 30
0.0
 10
34.72686747164364
 20
186.85224675816187
 30
0.0
 10
33.78622701118584
 20
185.720803831424
 30
0.0
 10
33.15043065677748
 20
185.13481871330495
 30
0.0
 10
32.34904629461082
 20
184.31415220873646
 30
0.0
 10
31.60300162571712
 20
183.6241874302759
 30
0.0
 10
30.6367754861723
 20
182.80991400921786
 30
0.0
 10
29.731913472030513
 20
182.09238039272321
 30
0.0
 10
28.66553725088205
 20
181.40632534457535
 30
0.0
 10
27.654500825064297
 20
180.63800369102484
 30
0.0
 10
26.785152972888344
 20
180.28288107931735
 30
0.0
 10
26.10245860202929
 20
180.03665171529397
 30
0.0
 10
25.7365973469238
 20
179.95280628136464
 30
0.0
 10
23.638274787519162
 20
179.7515870356307
 30
0.0
 10
21.295652641459963
 20
179.8108056206415
 30
0.0
 10
20.030122870778047
 20
179.34618311516056
 30
0.0
 10
19.283282598518866
 20
179.0089538509057
 30
0.0
 10
18.0966988751597
 20
178.70012842812724
 30
0.0
 10
17.329677078289855
 20
178.49789680919642
 30
0.0
 10
15.952183401677473
 20
178.24852148614283
 30
0.0
 10
15.2072438383349
 20
178.08505395863642
 30
0.0
 10
14.861170501180254
 20
178.0372004755113
 30
0.0
 10
12.998236207989386
 20
177.86239571616383
 30
0.0
 10
12.251120923549742
 20
177.76666412560934
 30
0.0
 10
11.052219301466224
 20
177.5637471974743
 30
0.0
 10
10.12214701596984
 20
177.53672287800296
 30
0.0
 10
9.061290199677659
 20
177.49162287118997
 30
0.0
 10
8.18285168240886
 20
177.37116898986514
 30
0.0
 10
7.055960860673971
 20
177.03530281601803
 30
0.0
 10
6.349139312919721
 20
176.86905294053287
 30
0.0
 10
4.86284895430041
 20
176.414124317677
 30
0.0
 10
4.503819798684567
 20
176.29843263174502
 30
0.0
 10
3.7288427834131013
 20
176.05806352354824
 30
0.0
 10
2.8959221695415795
 20
175.8184145607319
 30
0.0
 10
1.622111572309578
 20
175.32515565812426
 30
0.0
 10
0.681972061547143
 20
174.78155369403603
 30
0.0
 10
-1.0009554019738718
 20
173.63195369029745
 30
0.0
 10
-1.758307402352553
 20
173.05516294767148
 30
0.0
 10
-3.261285481727957
 20
171.88157053160415
 30
0.0
 10
-4.048867591152501
 20
170.8456181514849
 30
0.0
 10
-5.222415246101654
 20
169.82419163083355
 30
0.0
 10
-6.455675162112756
 20
168.86772506439658
 30
0.0
 10
-7.58299384196096
 20
167.92556507382204
 30
0.0
 10
-8.10728386309636
 20
167.54940883606798
 30
0.0
 10
-9.074579749375399
 20
166.92444108736476
 30
0.0
 10
-9.736096972452751
 20
166.5363909604402
 30
0.0
 10
-10.535286906861447
 20
165.9422505887549
 30
0.0
 10
-11.30380357169575
 20
165.40147637942206
 30
0.0
 10
-12.311887258888914
 20
164.6770521117445
 30
0.0
 10
-12.76999501521056
 20
164.26682159933694
 30
0.0
 10
-13.494961361293123
 20
163.708240431884
 30
0.0
 10
-14.802581297439156
 20
162.684162282623
 30
0.0
 10
-16.203916647756486
 20
161.41881856419818
 30
0.0
 10
-17.0880643606129
 20
160.7225184372626
 30
0.0
 10
-18.539080577559908
 20
159.36530313686376
 30
0.0
 10
-19.14722108931283
 20
158.8402383091733
 30
0.0
 10
-21.023993013372085
 20
157.15441922318306
 30
0.0
 10
-23.327169850377224
 20
155.66671321048952
 30
0.0
 10
-24.137873539467357
 20
155.33361942161451
 30
0.0
 10
-25.605694155302537
 20
154.80794856147295
 30
0.0
 10
-26.457190520594605
 20
154.7721743455297
 30
0.0
 10
-27.740975785218538
 20
154.60795220577285
 30
0.0
 10
-29.11076828347326
 20
155.02780630766586
 30
0.0
 10
-29.405532378869694
 20
155.16446244375885
 30
0.0
 10
-29.794361974196075
 20
155.42428428211414
 30
0.0
 10
-31.0166992833083
 20
156.3855706489497
 30
0.0
 10
-31.668425187118746
 20
156.75548336029652
 30
0.0
 10
-32.689085705058346
 20
157.50546214712463
 30
0.0
 10
-33.84692908830843
 20
157.91405608349683
 30
0.0
 10
-34.44868576327343
 20
158.2965413202753
 30
0.0
 10
-35.85468662440407
 20
159.29234832912906
 30
0.0
 10
-37.5271792975747
 20
161.0373217208372
 30
0.0
 10
-38.867719387817544
 20
162.66838095881965
 30
0.0
 10
-39.92674937251255
 20
164.23588308078757
 30
0.0
 10
-40.54191392197585
 20
164.87259127013945
 30
0.0
 10
-41.63618553967441
 20
166.27937164993645
 30
0.0
 10
-41.929133415277
 20
166.61305976822877
 30
0.0
 10
-43.36237909646361
 20
168.61344271414964
 30
0.0
 10
-44.26525921183139
 20
170.29450946572746
 30
0.0
 10
-44.99160990921496
 20
171.61365696307445
 30
0.0
 10
-45.26802572382116
 20
172.2703144852734
 30
0.0
 10
-45.54747424621419
 20
172.95689710138652
 30
0.0
 10
-46.061256491772134
 20
174.39636208937347
 30
0.0
 10
-46.25970835891906
 20
174.96835534763377
 30
0.0
 10
-47.190738370424654
 20
178.07207844169992
 30
0.0
 10
-47.607464390953055
 20
179.84521333661442
 30
0.0
 10
-47.95833186645489
 20
181.33481068314688
 30
0.0
 10
-48.07767974290237
 20
182.15066061104716
 30
0.0
 10
-48.32954824702542
 20
183.9277153475848
 30
0.0
 10
-48.387303976494934
 20
184.89200042301417
 30
0.0
 10
-48.507935911555904
 20
186.01503825663897
 30
0.0
 10
-48.53503473435216
 20
186.7207810024991
 30
0.0
 10
-48.54449809524064
 20
187.65060512825212
 30
0.0
 10
-48.56070763211442
 20
188.56950108953495
 30
0.0
 10
-48.60529576858523
 20
189.35774869301684
 30
0.0
 10
-48.556773306484835
 20
190.18495275368943
 30
0.0
 10
-48.50550675997028
 20
191.82929037977914
 30
0.0
 10
-48.341777278067134
 20
193.4002284334306
 30
0.0
 10
-48.26787686700008
 20
194.45031137669648
 30
0.0
 10
-48.098842873402575
 20
196.50060837113224
 30
0.0
 10
-48.06390606064383
 20
196.92833464365145
 30
0.0
 10
-47.789809346769935
 20
199.17400908497393
 30
0.0
 10
-47.33824217164861
 20
201.52641292940348
 30
0.0
 10
-47.15734663251531
 20
202.07617636833635
 30
0.0
 10
-46.761655113580716
 20
203.46092900602738
 30
0.0
 10
-46.08291026254023
 20
205.7463544208385
 30
0.0
 10
-45.919411949298656
 20
206.21025758215555
 30
0.0
 10
-45.442478984559
 20
208.61722158918175
 30
0.0
 10
-45.36949407900604
 20
210.51759564427186
 30
0.0
 10
-45.395243508320824
 20
211.59247043325058
 30
0.0
 10
-46.01544635927744
 20
213.82687595552687
 30
0.0
 10
-46.30383710735474
 20
215.0696856800992
 30
0.0
 10
-46.777056712956785
 20
216.50183148096843
 30
0.0
 10
-46.9770676522395
 20
218.22435978317398
 30
0.0
 10
-47.14123146791954
 20
219.206899351002
 30
0.0
 10
-47.22437632078455
 20
220.104603030399
 30
0.0
 10
-47.27219109980628
 20
221.0041440805736
 30
0.0
 10
-47.477532936882
 20
222.29763903042317
 30
0.0
 10
-47.724397058411526
 20
223.70757780678164
 30
0.0
 10
-47.92425872725334
 20
224.77264808701992
 30
0.0
 10
-47.84060135165037
 20
225.45667953755495
 30
0.0
 10
-47.95680837936852
 20
226.50159871021697
 30
0.0
 10
-47.96946481385544
 20
226.8598131952792
 30
0.0
 10
-47.566210976280026
 20
227.94890047625063
 30
0.0
 10
-47.24323569185729
 20
229.26801745746758
 30
0.0
 10
-46.99376609258147
 20
229.63867020670386
 30
0.0
 10
-47.00235898830319
 20
230.07033940073254
 30
0.0
 10
-46.40321148276035
 20
231.6366488143365
 30
0.0
 10
-46.15048983609407
 20
231.9831514838931
 30
0.0
 10
-45.96461330402764
 20
233.85491298352272
 30
0.0
 10
-44.37379193909465
 20
235.90600772886842
 30
0.0
 10
-43.79669850794052
 20
236.47155925824384
 30
0.0
 10
-42.463492291479405
 20
237.5390043757605
 30
0.0
 10
-41.44336335879193
 20
238.40210761270367
 30
0.0
 10
-41.10278521194503
 20
238.78172988355547
 30
0.0
 10
-40.88235555294235
 20
239.1134686147081
 30
0.0
 10
-39.47775205365242
 20
240.51372668565
 30
0.0
 10
-38.8572634123437
 20
241.3364484712116
 30
0.0
 10
-38.531202872417104
 20
241.8445056449833
 30
0.0
 10
-38.00072419096665
 20
242.5272040084985
 30
0.0
 10
-37.54912210479706
 20
242.78705553752943
 30
0.0
 10
-36.28703731653144
 20
243.07121769708763
 30
0.0
 10
-35.6297256295378
 20
243.36159796796773
 30
0.0
 10
-35.21541032337969
 20
243.48858538547432
 30
0.0
 10
-35.46248417682718
 20
242.93191300690305
 30
0.0
 10
-35.227778359469376
 20
241.94186687710547
 30
0.0
 10
-35.12778859500544
 20
241.1985060555174
 30
0.0
 10
-35.05899436888563
 20
240.06112799408083
 30
0.0
 10
-35.00513953905195
 20
239.35856363799996
 30
0.0
 10
-34.9576532257528
 20
238.29189967883005
 30
0.0
 10
-34.93530480296688
 20
237.91285800777746
 30
0.0
 10
-34.63327875509256
 20
237.36905117401255
 30
0.0
 10
-33.62974437462923
 20
236.01282247152906
 30
0.0
 10
-32.581910920755185
 20
235.36635933321034
 30
0.0
 10
-31.89712941999695
 20
234.83806781056526
 30
0.0
 10
-30.884022215554186
 20
234.04649431696402
 30
0.0
 10
-30.323144728042177
 20
233.70556863610537
 30
0.0
 10
-28.80359030038492
 20
232.4784161346454
 30
0.0
 10
-27.237545479597564
 20
231.63552327532295
 30
0.0
 10
-24.681806054928835
 20
231.36636113256813
 30
0.0
 10
-22.822705295497354
 20
232.5895916779277
 30
0.0
 10
-21.62259990974707
 20
233.18434946354103
 30
0.0
 10
-20.525409793970656
 20
233.52063129471824
 30
0.0
 10
-20.26563878568783
 20
233.84077554502556
 30
0.0
 10
-17.903370391946478
 20
234.65341437054582
 30
0.0
 10
-15.89577929624438
 20
235.7521265345956
 30
0.0
 10
-14.838814651588278
 20
236.19617684635782
 30
0.0
 10
-13.91935183262616
 20
236.53343225988922
 30
0.0
 10
-13.499847265066355
 20
236.6978252994386
 30
0.0
 10
-12.6743036378993
 20
236.91942490730156
 30
0.0
 10
-11.782492050440492
 20
237.26654565169267
 30
0.0
 10
-10.904699428385909
 20
237.55122459122305
 30
0.0
 10
-9.759286983524078
 20
238.0781810917736
 30
0.0
 10
-8.006658380003131
 20
238.6079150894543
 30
0.0
 10
-7.47400171602875
 20
238.75207556153455
 30
0.0
 10
-7.123027075710707
 20
238.85146832961945
 30
0.0
 10
-5.236640832938078
 20
239.3622485652006
 30
0.0
 10
-3.5048400888854045
 20
239.97221742233927
 30
0.0
 10
-3.1926582160908366
 20
240.08875376348598
 30
0.0
 10
-1.6612151673830542
 20
240.590408266803
 30
0.0
 10
-0.5269324428211518
 20
240.95459835770825
 30
0.0
 10
0.78977006013126
 20
241.10806893377745
 30
0.0
 10
1.5627894549815293
 20
241.19118713206345
 30
0.0
 10
2.9362809123925873
 20
241.37814034126745
 30
0.0
 10
3.394363203342427
 20
241.34155342126647
 30
0.0
 10
4.851249973653081
 20
241.29490713400523
 30
0.0
 10
5.426098769021145
 20
241.19039975212374
 30
0.0
 10
6.634008643205198
 20
240.87480006631628
 30
0.0
 10
7.158334028487987
 20
240.66823043883
 30
0.0
 10
8.124823662988774
 20
240.167071517113
 30
0.0
 10
8.590994442797937
 20
239.91178003314536
 30
0.0
 10
9.760660354555043
 20
239.31463666506738
 30
0.0
 10
10.14601198331205
 20
239.0518873621897
 30
0.0
 10
11.807368439436088
 20
238.18629348022043
 30
0.0
 10
13.6903476260285
 20
237.34663704202484
 30
0.0
 10
14.294208998471923
 20
236.98218347540472
 30
0.0
 10
15.109142486464338
 20
236.52137882971564
 30
0.0
 10
16.27012350035008
 20
236.0464057441863
 30
0.0
 10
16.781484177656235
 20
235.8803467757467
 30
0.0
 10
17.516459965557736
 20
235.60349584694868
 30
0.0
 10
19.1353626586508
 20
235.93609229186677
 30
0.0
 10
19.31605718162367
 20
238.52360171831953
 30
0.0
 10
19.5785887500172
 20
239.00466889166017
 30
0.0
 10
18.671769639139637
 20
240.24473698330613
 30
0.0
 10
18.535156389067804
 20
240.8512903028098
 30
0.0
 10
17.989972256343844
 20
241.74767677388022
 30
0.0
 10
17.84823996141376
 20
242.17021809149418
 30
0.0
 10
17.658001710052073
 20
242.46522533113745
 30
0.0
 10
17.484855968326933
 20
242.91890483103697
 30
0.0
 10
17.291288895813167
 20
243.59133047809894
 30
0.0
 10
16.90385523373087
 20
245.02110081784866
 30
0.0
 10
16.047908270072742
 20
247.34644640185743
 30
0.0
 10
15.922488500462798
 20
247.8641613351754
 30
0.0
 10
15.758538404087117
 20
248.48436107135387
 30
0.0
 10
14.989724058877021
 20
250.2486953117182
 30
0.0
 10
14.766504715238689
 20
250.6817266243609
 30
0.0
 10
14.47335767524489
 20
251.31692099845802
 30
0.0
 10
14.25736547232411
 20
252.33325744777312
 30
0.0
 10
14.136979262937091
 20
253.21275150172013
 30
0.0
 10
13.87557456025805
 20
254.09105312742915
 30
0.0
 10
13.83527453689788
 20
254.939664776407
 30
0.0
 10
13.740073633154262
 20
255.29669208708302
 30
0.0
 10
13.648244880510639
 20
255.68918202695383
 30
0.0
 10
13.142323568274279
 20
256.93823324762604
 30
0.0
 10
11.803622320396567
 20
258.04349646775347
 30
0.0
 10
11.318729761361514
 20
258.58766953143885
 30
0.0
 10
11.0906296910181
 20
258.9876024945401
 30
0.0
 10
10.287001559377206
 20
259.0839740545864
 30
0.0
 10
8.78378980532531
 20
258.3094995665153
 30
0.0
 10
8.13336432530007
 20
257.860462020319
 30
0.0
 10
7.119859351950428
 20
257.3013765721901
 30
0.0
 10
6.506580831776669
 20
257.1680669097651
 30
0.0
 10
5.399104540326111
 20
257.1467768751325
 30
0.0
 10
4.535395279090071
 20
257.2201248790227
 30
0.0
 10
3.363870641393578
 20
257.67865792004505
 30
0.0
 10
2.7524825784327946
 20
257.8292513495632
 30
0.0
 10
1.1631597963652103
 20
258.63480100450516
 30
0.0
 10
-0.35050017344984874
 20
259.4753333979491
 30
0.0
 10
-0.7943242586259455
 20
259.74779622508225
 30
0.0
 10
-1.4536139904381193
 20
259.960933518431
 30
0.0
 10
-2.731784569959281
 20
260.1227629144713
 30
0.0
 10
-4.414661290082085
 20
259.3713548989253
 30
0.0
 10
-4.854979368091759
 20
259.15438888179864
 30
0.0
 10
-6.444647045928575
 20
257.94468970530585
 30
0.0
 10
-7.2304456038644735
 20
257.32470203539907
 30
0.0
 10
-7.922838458765461
 20
257.1138638930958
 30
0.0
 10
-9.500850703828576
 20
256.6517661830592
 30
0.0
 10
-10.195997576905373
 20
256.39428689713446
 30
0.0
 10
-10.873671995751252
 20
256.03689152527477
 30
0.0
 10
-11.652489236855564
 20
255.75962285553135
 30
0.0
 10
-13.480262393205876
 20
254.6357542426747
 30
0.0
 10
-15.544375312858064
 20
252.45645410919062
 30
0.0
 10
-16.0592219420001
 20
251.17332684841722
 30
0.0
 10
-16.20950487232196
 20
249.96967515545376
 30
0.0
 10
-16.443678406923336
 20
248.7149986478482
 30
0.0
 10
-16.30357706804685
 20
248.09052701983464
 30
0.0
 10
-16.165889115825298
 20
247.22151798989563
 30
0.0
 10
-16.237677323541796
 20
246.77911790098312
 30
0.0
 10
-16.068839196301987
 20
245.39570777125007
 30
0.0
 10
-16.074380103904325
 20
244.95032704051738
 30
0.0
 10
-16.48114880494358
 20
243.3148061401703
 30
0.0
 10
-16.62515026923192
 20
242.98896904964775
 30
0.0
 10
-16.86483989151507
 20
242.180980529437
 30
0.0
 10
-16.985115666431376
 20
241.77538961919612
 30
0.0
 10
-17.35312516609951
 20
241.4067118428201
 30
0.0
 10
-17.961205633781518
 20
240.86006736124713
 30
0.0
 10
-18.360377130862123
 20
240.31063944276693
 30
0.0
 10
-18.903712841998345
 20
239.89144808964562
 30
0.0
 10
-19.180374941874675
 20
239.67354722489648
 30
0.0
 10
-20.899725648875
 20
239.27931607291467
 30
0.0
 10
-21.501112767917924
 20
239.17694153271418
 30
0.0
 10
-22.591868537868276
 20
239.17373618535325
 30
0.0
 10
-23.347430120732767
 20
238.9353104801384
 30
0.0
 10
-24.402140930181808
 20
239.24256262915716
 30
0.0
 10
-25.238860468188193
 20
238.93305805251785
 30
0.0
 10
-26.300074953990567
 20
239.59883431031156
 30
0.0
 10
-26.988508602485485
 20
239.86461724899905
 30
0.0
 10
-28.419361627008694
 20
240.40920601389524
 30
0.0
 10
-28.778650132864016
 20
240.70513614485827
 30
0.0
 10
-28.959319058331825
 20
241.01675274027767
 30
0.0
 10
-30.09166168289687
 20
242.70129988446982
 30
0.0
 10
-31.757698260991262
 20
243.76250559849726
 30
0.0
 10
-32.49321867274943
 20
243.87046139316146
 30
0.0
 10
-32.17220342709419
 20
244.24410746113406
 30
0.0
 10
-31.62129707830654
 20
246.9958813089838
 30
0.0
 10
-31.47704062553346
 20
247.3345617173841
 30
0.0
 10
-31.071675649506943
 20
249.44794609922852
 30
0.0
 10
-30.910367094795486
 20
249.98527095881857
 30
0.0
 10
-30.477508365261453
 20
251.96153745775933
 30
0.0
 10
-30.41880675829232
 20
253.17256671090686
 30
0.0
 10
-29.889926230407923
 20
254.58786148124616
 30
0.0
 10
-30.66369594212993
 20
256.5399182212386
 30
0.0
 10
-30.72656661954617
 20
256.894915092951
 30
0.0
 10
-28.92469393028719
 20
258.44934986007826
 30
0.0
 10
-27.973209073285613
 20
259.08772932115806
 30
0.0
 10
-27.06375397462836
 20
259.2904244341509
 30
0.0
 10
-26.428313057619196
 20
260.5703149171386
 30
0.0
 10
-26.120241312686744
 20
260.91842179168816
 30
0.0
 10
-25.450658376756063
 20
261.48741663900176
 30
0.0
 10
-24.86326786903131
 20
261.9568874908423
 30
0.0
 10
-24.3929807545259
 20
262.45650645265283
 30
0.0
 10
-23.854320227064772
 20
263.0633361610319
 30
0.0
 10
-23.223213078211284
 20
264.05618902178924
 30
0.0
 10
-22.978475382804756
 20
264.3353558768966
 30
0.0
 10
-21.763679324974166
 20
265.5935630437624
 30
0.0
 10
-20.850813987652185
 20
266.8231745819795
 30
0.0
 10
-20.800670179938766
 20
268.62657679556906
 30
0.0
 10
-21.038730953531303
 20
269.30089714701364
 30
0.0
 10
-20.787733897926852
 20
270.64826901396845
 30
0.0
 10
-20.52300034634516
 20
271.47550571002193
 30
0.0
 10
-19.337014960988824
 20
272.20521594503634
 30
0.0
 10
-18.096152476689745
 20
272.8081919401954
 30
0.0
 10
-16.7473283436552
 20
273.31288608065165
 30
0.0
 10
-16.012818815415688
 20
274.74030784380363
 30
0.0
 10
-14.61565282646805
 20
276.274658474417
 30
0.0
 10
-14.142518483308436
 20
276.5553777117693
 30
0.0
 10
-13.348541552473352
 20
276.42156997618844
 30
0.0
 10
-12.396841658938884
 20
276.18066600930445
 30
0.0
 10
-11.581217029148387
 20
276.13467795741957
 30
0.0
 10
-10.083191150498688
 20
276.41213324399905
 30
0.0
 10
-8.823168702190912
 20
276.71556871447183
 30
0.0
 10
-8.2425745635961
 20
276.86356098144506
 30
0.0
 10
-7.1957995537619315
 20
277.0748258477873
 30
0.0
 10
-6.256451266379038
 20
277.2166260165268
 30
0.0
 10
-5.313823653750283
 20
277.5692534601067
 30
0.0
 10
-4.141512054852799
 20
277.80171928971185
 30
0.0
 10
-2.548508329484476
 20
278.14890117117284
 30
0.0
 10
-0.2400255837390604
 20
278.7261588162304
 30
0.0
 10
0.7375095864223271
 20
279.41890454938033
 30
0.0
 10
1.2190345740759583
 20
279.5595081875027
 30
0.0
 10
2.463578313854473
 20
279.933627537148
 30
0.0
 10
4.281253418074618
 20
280.8689912169992
 30
0.0
 10
6.397071702512166
 20
282.41247252877923
 30
0.0
 10
8.31143048197034
 20
283.44542854118157
 30
0.0
 10
9.415986176041505
 20
284.29008867992945
 30
0.0
 10
10.8091780805604
 20
284.2992156433263
 30
0.0
 10
12.595929101604085
 20
284.99386256106175
 30
0.0
 10
13.705686184678026
 20
285.42149242345397
 30
0.0
 10
14.223847368900206
 20
285.69346276787866
 30
0.0
 10
15.386897279316848
 20
286.5120693024666
 30
0.0
 10
16.2972870989303
 20
287.2368198589297
 30
0.0
 10
16.972980097156178
 20
287.6663098760916
 30
0.0
 10
17.825929044876
 20
288.38193254670375
 30
0.0
 10
19.077736553682726
 20
288.9341169638548
 30
0.0
 10
19.865842998301712
 20
289.0888697314933
 30
0.0
 10
20.433533273619837
 20
288.82175195925026
 30
0.0
 10
21.56762038993545
 20
288.55106452270485
 30
0.0
 10
21.212276368430796
 20
287.7638510097156
 30
0.0
 10
20.51873705145119
 20
286.6219125144901
 30
0.0
 10
20.308398533334536
 20
286.31897314840216
 30
0.0
 10
19.604726167489734
 20
285.1997376316204
 30
0.0
 10
18.932861242238037
 20
284.14899274012447
 30
0.0
 10
17.847786251637924
 20
282.4377760841655
 30
0.0
 10
17.001704958922872
 20
281.0951791588109
 30
0.0
 10
16.109922750976892
 20
279.6861356544908
 30
0.0
 10
16.03098398164558
 20
279.26865542640013
 30
0.0
 10
15.94430421522408
 20
277.0577832977825
 30
0.0
 10
16.77117993780247
 20
275.64049025941597
 30
0.0
 10
18.19737939733325
 20
274.06587871816026
 30
0.0
 10
19.596681846786232
 20
272.76478970306596
 30
0.0
 10
20.154057707947363
 20
272.24719266375547
 30
0.0
 10
21.50426060436235
 20
271.10457934015227
 30
0.0
  0
ENDSEC
  0
EOF
