999
DXF generated by GENSOLE
  0
SECTION
  2
HEADER
  0
ENDSEC
  0
SECTION
  2
TABLES
  0
TABLE
  2
LTYPE
  70
1
  0
LTYPE
  2
CONTINUOUS
  3
Solid Line
  72
65
  73
0
  40
0.0
  0
ENDTAB
  0
TABLE
  2
LAYER
  70
1
  0
LAYER
  2
ShapeRegion
  62
7
  6
Continuous
  0
ENDTAB
  0
TABLE
  2
STYLE
  70
0
  0
ENDTAB
  0
TABLE
  2
VIEW
  70
0
  0
ENDTAB
  0
ENDSEC
  0
SECTION
  2
BLOCKS
  0
ENDSEC
  0
SECTION
  2
ENTITIES
  0
LWPOLYLINE
  8
ShapeRegion
  90
179
  70
1
 10
-20.763600136438217
 20
41.25307991896065
 30
0.0
 10
-20.488972767573216
 20
39.73601070182861
 30
0.0
 10
-20.289692269876134
 20
38.74754000585936
 30
0.0
 10
-20.245170788986965
 20
38.39423139111437
 30
0.0
 10
-20.09697509221506
 20
37.13616093117113
 30
0.0
 10
-19.90554240020763
 20
35.90288825606757
 30
0.0
 10
-19.863238768871902
 20
35.56141290531918
 30
0.0
 10
-19.758979263968573
 20
35.0544288864165
 30
0.0
 10
-19.481248458443957
 20
33.93792268954955
 30
0.0
 10
-19.23475540060397
 20
33.073201205370985
 30
0.0
 10
-18.929843183515548
 20
32.337930406630974
 30
0.0
 10
-18.62881339673729
 20
31.69252995037963
 30
0.0
 10
-18.077811203979582
 20
30.881961260426984
 30
0.0
 10
-17.5770315778706
 20
30.119027464841185
 30
0.0
 10
-16.983965022180552
 20
29.28124735120448
 30
0.0
 10
-16.514406106964113
 20
28.677987138427454
 30
0.0
 10
-15.765968485372877
 20
27.79271433186178
 30
0.0
 10
-14.136748071259706
 20
26.114541747850357
 30
0.0
 10
-12.30991942245376
 20
24.73145483053624
 30
0.0
 10
-11.76127743822454
 20
24.36193385455428
 30
0.0
 10
-10.898293991817775
 20
23.864508346104724
 30
0.0
 10
-9.392959669283497
 20
23.114671341254983
 30
0.0
 10
-7.786415868136754
 20
22.333865694917908
 30
0.0
 10
-7.248476633152608
 20
22.034993393344994
 30
0.0
 10
-6.365603713121196
 20
21.580077424974185
 30
0.0
 10
-5.1237709008169725
 20
20.89899813601239
 30
0.0
 10
-4.556011414533664
 20
20.62049005313753
 30
0.0
 10
-3.3527859733117515
 20
20.06585714778946
 30
0.0
 10
-2.921297030143584
 20
19.915457363967107
 30
0.0
 10
-1.6726791394187215
 20
19.61863413507896
 30
0.0
 10
-0.9290311242094745
 20
19.4550186801754
 30
0.0
 10
0.07157010077192383
 20
19.30589621571097
 30
0.0
 10
1.1632449694712068
 20
18.94567318660357
 30
0.0
 10
1.802043831502842
 20
18.788311543257453
 30
0.0
 10
3.22046508175796
 20
18.567476610841872
 30
0.0
 10
4.401258542282048
 20
18.520182521650433
 30
0.0
 10
5.187503862464838
 20
18.51578912686351
 30
0.0
 10
6.823689312495765
 20
18.64734688994366
 30
0.0
 10
7.807113874054168
 20
18.66496583038214
 30
0.0
 10
8.640760105036577
 20
18.716991850945266
 30
0.0
 10
9.62139454165025
 20
18.75496540561941
 30
0.0
 10
10.527174734334102
 20
19.051289032836102
 30
0.0
 10
11.617362752252436
 20
19.35274236295624
 30
0.0
 10
11.975174195101495
 20
19.51555066221586
 30
0.0
 10
12.538645952704861
 20
19.840003988521275
 30
0.0
 10
13.364094533302927
 20
20.436452550341134
 30
0.0
 10
14.022092203577118
 20
20.792142962738275
 30
0.0
 10
15.083663267812941
 20
21.47028769714271
 30
0.0
 10
16.29831239562912
 20
22.645931063395263
 30
0.0
 10
18.001312885576542
 20
23.924612155109877
 30
0.0
 10
18.758728768808844
 20
24.619031163161555
 30
0.0
 10
19.53278975634198
 20
25.269175010715188
 30
0.0
 10
19.84790941113269
 20
25.524283487028253
 30
0.0
 10
20.395807115882317
 20
26.155042924805862
 30
0.0
 10
20.904695431721212
 20
26.91444386040617
 30
0.0
 10
21.334758400908914
 20
27.43807332590975
 30
0.0
 10
21.718217607026567
 20
27.929929557529228
 30
0.0
 10
22.290749094426555
 20
28.765546161196124
 30
0.0
 10
22.81960445695143
 20
29.599830161143583
 30
0.0
 10
23.59295576404821
 20
31.197988747036412
 30
0.0
 10
23.890105015546563
 20
31.778485386136957
 30
0.0
 10
24.661673251582187
 20
33.860819750640154
 30
0.0
 10
25.114511079554532
 20
36.155649705585866
 30
0.0
 10
25.20886901034116
 20
36.64017921731585
 30
0.0
 10
25.275438374893184
 20
37.52758571412067
 30
0.0
 10
25.332776745349562
 20
38.289184112092194
 30
0.0
 10
25.400509182632188
 20
38.96761236011149
 30
0.0
 10
25.404306111365774
 20
39.579821400400704
 30
0.0
 10
25.441886878037394
 20
40.40136164617379
 30
0.0
 10
25.590495324782232
 20
41.78175771063996
 30
0.0
 10
25.632019420406067
 20
42.91403544495988
 30
0.0
 10
25.668901750906745
 20
43.923182195030144
 30
0.0
 10
25.613235310687585
 20
44.44427756442712
 30
0.0
 10
25.677857640502168
 20
46.01545626306694
 30
0.0
 10
25.49211497109816
 20
47.68398376334003
 30
0.0
 10
25.626185846385695
 20
48.80918706771159
 30
0.0
 10
25.37251177753247
 20
49.82949658593569
 30
0.0
 10
25.308778798766454
 20
51.261941967585535
 30
0.0
 10
25.239589555750328
 20
51.69650894093869
 30
0.0
 10
25.196839057696963
 20
52.33774019225273
 30
0.0
 10
25.000931833236432
 20
53.54222761686744
 30
0.0
 10
24.928523596318787
 20
54.36574863751557
 30
0.0
 10
24.804572494282997
 20
55.48384068937084
 30
0.0
 10
24.669091073774464
 20
56.84297042793509
 30
0.0
 10
24.512048853107366
 20
58.1242811423782
 30
0.0
 10
24.341607003294392
 20
59.409821988344554
 30
0.0
 10
24.159040713405982
 20
60.66444563730013
 30
0.0
 10
23.983310416798552
 20
62.1147906923392
 30
0.0
 10
23.90595660488049
 20
62.45418829461261
 30
0.0
 10
23.785079237468935
 20
63.00353028696565
 30
0.0
 10
23.406065641796598
 20
64.07592098195066
 30
0.0
 10
23.22463316121839
 20
64.92802819816558
 30
0.0
 10
23.015185196402403
 20
65.62114038341912
 30
0.0
 10
22.701800802974688
 20
66.5407049142169
 30
0.0
 10
22.393681237248437
 20
67.1387568468284
 30
0.0
 10
22.15713088699731
 20
67.79680244628308
 30
0.0
 10
21.804521783982604
 20
68.62108275580172
 30
0.0
 10
21.436874600662556
 20
69.56028884991423
 30
0.0
 10
21.119822733398877
 20
70.13249119541645
 30
0.0
 10
20.735352931503396
 20
70.94538311172157
 30
0.0
 10
20.36259831869328
 20
71.69560632269244
 30
0.0
 10
20.17550810101796
 20
72.17951234384375
 30
0.0
 10
19.343835561156062
 20
73.6821702494158
 30
0.0
 10
19.15297817027602
 20
73.9829235028345
 30
0.0
 10
18.949522360980552
 20
74.42396068586199
 30
0.0
 10
18.131682859843146
 20
75.53728162960222
 30
0.0
 10
17.565341399360598
 20
76.52388372126691
 30
0.0
 10
17.27431896164754
 20
77.03764920501968
 30
0.0
 10
16.440839431159112
 20
77.94016952051797
 30
0.0
 10
15.976271144923132
 20
78.54578602674354
 30
0.0
 10
15.252707789060352
 20
79.09938560827942
 30
0.0
 10
14.472621736890323
 20
79.97996120087366
 30
0.0
 10
13.682234703689577
 20
80.52737304940838
 30
0.0
 10
12.769645172559953
 20
81.09671100345554
 30
0.0
 10
12.522585114188272
 20
81.35831891648454
 30
0.0
 10
11.374072188311374
 20
82.104877569875
 30
0.0
 10
10.958254073178542
 20
82.33885945295074
 30
0.0
 10
9.603334191642707
 20
82.69043898439394
 30
0.0
 10
9.158171322742463
 20
82.90846909263041
 30
0.0
 10
7.766192195769741
 20
83.20231130868042
 30
0.0
 10
7.270464286857993
 20
83.31758489648061
 30
0.0
 10
5.82604873936785
 20
83.56890422061282
 30
0.0
 10
5.406349632448169
 20
83.68811726230615
 30
0.0
 10
3.825894421295799
 20
83.93694189317827
 30
0.0
 10
2.856892238466112
 20
83.90076839927461
 30
0.0
 10
1.4764673310732523
 20
83.73389581909356
 30
0.0
 10
0.7158432046384764
 20
83.70047301945381
 30
0.0
 10
-0.5072665574824424
 20
83.65937064254919
 30
0.0
 10
-2.3898985836181437
 20
83.47199792531735
 30
0.0
 10
-2.887640684935336
 20
83.47248250783389
 30
0.0
 10
-4.450846160610276
 20
83.55644035635571
 30
0.0
 10
-4.782407468504527
 20
83.59312411756767
 30
0.0
 10
-6.3868932490092085
 20
83.63324755978009
 30
0.0
 10
-7.236748570746448
 20
83.6572306928387
 30
0.0
 10
-8.323015596430826
 20
83.72643347909371
 30
0.0
 10
-9.882108168805779
 20
83.5944674976747
 30
0.0
 10
-10.324441461686275
 20
83.56526514444873
 30
0.0
 10
-11.124956497666819
 20
83.43088490253801
 30
0.0
 10
-12.423389040985839
 20
82.99082577729173
 30
0.0
 10
-14.325559854061089
 20
82.0063753247285
 30
0.0
 10
-14.666310154872228
 20
81.75998038064748
 30
0.0
 10
-16.244643428481226
 20
80.405303168364
 30
0.0
 10
-17.026031713032395
 20
79.47338078127845
 30
0.0
 10
-17.731580577119832
 20
78.26448160185946
 30
0.0
 10
-18.42754344830828
 20
76.8918612514512
 30
0.0
 10
-18.80202762584501
 20
75.88442130561775
 30
0.0
 10
-19.160292975728712
 20
74.68680587351606
 30
0.0
 10
-19.41629939173554
 20
73.58601202777912
 30
0.0
 10
-19.761111820479666
 20
72.46580591266363
 30
0.0
 10
-19.944771267279847
 20
71.37618527021004
 30
0.0
 10
-20.24090037899947
 20
70.03135995341756
 30
0.0
 10
-20.34958464556705
 20
69.26240559465411
 30
0.0
 10
-20.589786699597408
 20
67.65098187244969
 30
0.0
 10
-20.696017427334688
 20
66.81379768617566
 30
0.0
 10
-21.009198298217385
 20
65.14432617688232
 30
0.0
 10
-21.07715184262742
 20
64.4082561179963
 30
0.0
 10
-21.224955477485157
 20
63.15550830288937
 30
0.0
 10
-21.29966179826619
 20
61.81837491490884
 30
0.0
 10
-21.31900729737017
 20
61.124798861889424
 30
0.0
 10
-21.34601472747141
 20
60.16071045040294
 30
0.0
 10
-21.419651664338538
 20
59.078139110818846
 30
0.0
 10
-21.438001558548837
 20
58.370836972543636
 30
0.0
 10
-21.506088642042897
 20
57.311945798182805
 30
0.0
 10
-21.48111651718932
 20
56.581168141089265
 30
0.0
 10
-21.542302741362764
 20
54.885900589932206
 30
0.0
 10
-21.55158740643936
 20
54.36754047275879
 30
0.0
 10
-21.53011235851458
 20
54.03281886694059
 30
0.0
 10
-21.672319621087535
 20
51.585797834636345
 30
0.0
 10
-21.686151674657737
 20
50.882769288231664
 30
0.0
 10
-21.689642303935276
 20
48.85190224165269
 30
0.0
 10
-21.68698566579178
 20
48.381988454184636
 30
0.0
 10
-21.639445319978087
 20
47.62193461520612
 30
0.0
 10
-21.544374562591905
 20
46.263994180938525
 30
0.0
 10
-21.464431160461206
 20
45.095992689991455
 30
0.0
 10
-21.394619152615796
 20
44.5844547964085
 30
0.0
 10
-21.253194372277115
 20
43.743216563415224
 30
0.0
 10
-21.091438949994064
 20
42.88456184873598
 30
0.0
 10
-20.84888618513554
 20
41.77238544804138
 30
0.0
 10
-20.763600136438217
 20
41.25307991896065
 30
0.0
  0
ENDSEC
  0
EOF
