999
DXF generated by GENSOLE
  0
SECTION
  2
HEADER
  0
ENDSEC
  0
SECTION
  2
TABLES
  0
TABLE
  2
LTYPE
  70
1
  0
LTYPE
  2
CONTINUOUS
  3
Solid Line
  72
65
  73
0
  40
0.0
  0
ENDTAB
  0
TABLE
  2
LAYER
  70
1
  0
LAYER
  2
ShapeRegion
  62
7
  6
Continuous
  0
ENDTAB
  0
TABLE
  2
STYLE
  70
0
  0
ENDTAB
  0
TABLE
  2
VIEW
  70
0
  0
ENDTAB
  0
ENDSEC
  0
SECTION
  2
BLOCKS
  0
ENDSEC
  0
SECTION
  2
ENTITIES
  0
LWPOLYLINE
  8
ShapeRegion
  90
356
  70
1
 10
23.601624243193854
 20
289.597419977088
 30
0.0
 10
23.96362633721068
 20
289.41256448493203
 30
0.0
 10
25.263626564210774
 20
289.46899228308257
 30
0.0
 10
25.59010454112193
 20
289.43359771217354
 30
0.0
 10
26.722553086569853
 20
287.8988594359943
 30
0.0
 10
26.26049855974588
 20
286.762841368882
 30
0.0
 10
25.83907410844888
 20
285.9245195944994
 30
0.0
 10
25.009747360980654
 20
284.46983312642897
 30
0.0
 10
24.60690946599976
 20
283.8148947547841
 30
0.0
 10
23.462586247276025
 20
281.9793775173098
 30
0.0
 10
23.18571876269161
 20
281.5446239169136
 30
0.0
 10
22.274569590376903
 20
279.9826363698097
 30
0.0
 10
21.868889154814948
 20
279.14563393954035
 30
0.0
 10
21.852500549327285
 20
277.7741300076119
 30
0.0
 10
22.05498272910502
 20
276.9257780495296
 30
0.0
 10
22.37912404226491
 20
276.4100680776941
 30
0.0
 10
23.417568617083656
 20
274.7960805909019
 30
0.0
 10
23.72103034941575
 20
274.4213615154717
 30
0.0
 10
24.706416409580132
 20
273.25448560434484
 30
0.0
 10
25.22926417781304
 20
272.6320011539292
 30
0.0
 10
26.851776513196146
 20
271.0516943008399
 30
0.0
 10
27.1162006313476
 20
270.78702548861236
 30
0.0
 10
28.450054871680884
 20
269.7856868486655
 30
0.0
 10
29.649681655409697
 20
268.8934613733838
 30
0.0
 10
30.109874910915966
 20
268.56002523608686
 30
0.0
 10
30.796724328391292
 20
268.002302790408
 30
0.0
 10
31.751289878013917
 20
267.08797834019407
 30
0.0
 10
32.400002531390825
 20
266.4615022163434
 30
0.0
 10
33.054064570325856
 20
265.8081699714493
 30
0.0
 10
33.82437006941573
 20
265.1052486237707
 30
0.0
 10
34.123625147467486
 20
264.85929472229594
 30
0.0
 10
34.703109875507835
 20
264.4426276944341
 30
0.0
 10
35.24952586333347
 20
264.04558779600694
 30
0.0
 10
35.52817683861623
 20
263.8337818189252
 30
0.0
 10
36.637160135114634
 20
262.91254094004876
 30
0.0
 10
38.10450884491135
 20
261.60433671235063
 30
0.0
 10
38.384273418702065
 20
261.3582262311651
 30
0.0
 10
38.85311801487129
 20
260.92272966853335
 30
0.0
 10
39.80237229434741
 20
259.34330062739554
 30
0.0
 10
40.32989531129921
 20
258.42295985674224
 30
0.0
 10
39.40447802554212
 20
256.9505628650287
 30
0.0
 10
39.154813146343564
 20
256.5474168051945
 30
0.0
 10
39.024318756536154
 20
256.20978363273645
 30
0.0
 10
39.301042867521694
 20
255.97062333840555
 30
0.0
 10
39.56459589346319
 20
255.37600384225854
 30
0.0
 10
40.35197542370924
 20
253.30198643496337
 30
0.0
 10
40.714993704906185
 20
252.81304291959958
 30
0.0
 10
42.0406328810201
 20
251.71116285450654
 30
0.0
 10
42.67547914947393
 20
250.8675949414206
 30
0.0
 10
43.42914986538678
 20
250.0016036611446
 30
0.0
 10
44.09143781831265
 20
249.7275808909215
 30
0.0
 10
45.03836418129505
 20
248.9720194238409
 30
0.0
 10
45.50465304376579
 20
248.5877620033503
 30
0.0
 10
45.1711185557746
 20
248.08932834598707
 30
0.0
 10
44.993272911303244
 20
246.57335131189868
 30
0.0
 10
44.72146747393149
 20
245.96769087149914
 30
0.0
 10
44.68456437667919
 20
245.1770344134705
 30
0.0
 10
44.92336186772164
 20
244.161290331613
 30
0.0
 10
44.56634391836519
 20
242.35052734134365
 30
0.0
 10
43.60371404691592
 20
239.93661209259983
 30
0.0
 10
43.143483023408635
 20
239.01168905937368
 30
0.0
 10
42.64881726700389
 20
238.10627675608288
 30
0.0
 10
42.49499580138067
 20
237.65616084367426
 30
0.0
 10
42.02469781324899
 20
236.7269953411207
 30
0.0
 10
41.73868583317139
 20
236.1858631508221
 30
0.0
 10
41.45293534092966
 20
235.42522225574675
 30
0.0
 10
40.90313864536496
 20
234.50245435640642
 30
0.0
 10
40.61699465728698
 20
233.81055306473428
 30
0.0
 10
40.187703696854456
 20
232.988449413954
 30
0.0
 10
39.2053353104716
 20
231.66577025982983
 30
0.0
 10
38.798369801383416
 20
231.16466144770737
 30
0.0
 10
38.16259324982009
 20
230.11703680555993
 30
0.0
 10
37.76297613641984
 20
229.34012637556924
 30
0.0
 10
37.72241476374849
 20
228.08236563370292
 30
0.0
 10
37.49143140301088
 20
226.58996165987878
 30
0.0
 10
37.52327140688107
 20
226.14378812337088
 30
0.0
 10
37.492316964933536
 20
225.403310282684
 30
0.0
 10
37.383989187332986
 20
224.52136939635685
 30
0.0
 10
37.32482839863057
 20
224.03582829659632
 30
0.0
 10
37.562462973441036
 20
222.53279929736158
 30
0.0
 10
37.8178543515256
 20
221.20978031708967
 30
0.0
 10
37.86924873451012
 20
220.5742135505685
 30
0.0
 10
38.103256286071485
 20
218.56165570045272
 30
0.0
 10
38.09024403382121
 20
218.1833503815167
 30
0.0
 10
38.04023899528415
 20
216.2531037168217
 30
0.0
 10
37.878106186362444
 20
215.17184107518304
 30
0.0
 10
37.85196369599574
 20
213.79951793333328
 30
0.0
 10
37.81284079642448
 20
213.01779484229502
 30
0.0
 10
37.84565132201241
 20
211.30461593466563
 30
0.0
 10
37.788133418382145
 20
210.43830489655096
 30
0.0
 10
37.6653012728101
 20
208.98611518146632
 30
0.0
 10
37.35282115688925
 20
206.95449721338576
 30
0.0
 10
37.321532595540944
 20
206.44283668337985
 30
0.0
 10
37.150764348177624
 20
205.51083220937585
 30
0.0
 10
37.004138688311826
 20
204.98073386077766
 30
0.0
 10
36.874586033364054
 20
204.53601294146108
 30
0.0
 10
36.07247033719224
 20
202.41561056077254
 30
0.0
 10
35.695544823986914
 20
201.68531608168018
 30
0.0
 10
34.848295116348204
 20
200.37408479685078
 30
0.0
 10
34.408673483686975
 20
199.6690673901152
 30
0.0
 10
33.748984113614675
 20
198.73076480843918
 30
0.0
 10
32.863777538238836
 20
197.2883572970112
 30
0.0
 10
31.454801615482637
 20
196.0105651210203
 30
0.0
 10
30.414537688128245
 20
194.90563232621435
 30
0.0
 10
30.136197663343356
 20
194.73129276281668
 30
0.0
 10
29.551495063509066
 20
194.36380841183623
 30
0.0
 10
28.756336486052177
 20
193.92461013005942
 30
0.0
 10
28.3641766262215
 20
193.67296954164814
 30
0.0
 10
27.295783225809664
 20
193.32752346791023
 30
0.0
 10
26.325092220346974
 20
192.9715389539254
 30
0.0
 10
24.616451135121764
 20
192.8346378138073
 30
0.0
 10
24.12773863842231
 20
192.7792117333768
 30
0.0
 10
23.719222687318762
 20
192.73555525906573
 30
0.0
 10
21.807319809468385
 20
192.6730828316206
 30
0.0
 10
20.016873281308087
 20
192.11380394840185
 30
0.0
 10
18.772527519762743
 20
191.84373297017623
 30
0.0
 10
18.42347013237209
 20
191.76283202754593
 30
0.0
 10
16.710826319538747
 20
191.7511550175566
 30
0.0
 10
16.00508184482717
 20
191.7572431939894
 30
0.0
 10
14.993857062704143
 20
191.90372086667594
 30
0.0
 10
14.236479553389735
 20
191.95726644653143
 30
0.0
 10
12.805540812096229
 20
192.0856203694335
 30
0.0
 10
12.211077033301725
 20
192.1327949698775
 30
0.0
 10
11.499662205541803
 20
192.29098233047546
 30
0.0
 10
10.225148124676235
 20
192.70509188245572
 30
0.0
 10
9.297623087205102
 20
192.95690010642878
 30
0.0
 10
8.538475930987218
 20
193.14277677789488
 30
0.0
 10
7.4867777462755285
 20
193.28578392930845
 30
0.0
 10
6.798463876307549
 20
193.40619527025126
 30
0.0
 10
5.365193716171109
 20
193.4511870403393
 30
0.0
 10
4.784975798592421
 20
193.46140289039224
 30
0.0
 10
3.701943171579482
 20
193.52531612950412
 30
0.0
 10
3.1592194997983336
 20
193.45149088965186
 30
0.0
 10
1.5434119163342552
 20
192.8839209543715
 30
0.0
 10
0.6079888815561637
 20
192.66695688020056
 30
0.0
 10
0.03885820604139811
 20
192.33921713567173
 30
0.0
 10
-1.5927652756008015
 20
191.5824883222117
 30
0.0
 10
-2.773765239304328
 20
190.84790094006428
 30
0.0
 10
-3.90966720355648
 20
190.11265890563965
 30
0.0
 10
-5.21141395129294
 20
189.24951494068677
 30
0.0
 10
-6.3152352815014785
 20
188.63375595456523
 30
0.0
 10
-8.445084020218864
 20
187.81226029123695
 30
0.0
 10
-9.151020675323595
 20
187.46568339029028
 30
0.0
 10
-10.681510185911046
 20
186.60121659365902
 30
0.0
 10
-11.168223308740302
 20
186.39443660169692
 30
0.0
 10
-11.925570703309463
 20
185.92999864289087
 30
0.0
 10
-12.710367140259631
 20
185.61117625722213
 30
0.0
 10
-13.86391494304756
 20
185.1058578377103
 30
0.0
 10
-15.217994672439719
 20
184.24715957746562
 30
0.0
 10
-16.83106107676031
 20
183.33644796824856
 30
0.0
 10
-17.440228869061915
 20
183.04113687843468
 30
0.0
 10
-18.315766148152854
 20
182.6154027772805
 30
0.0
 10
-19.52118874443584
 20
182.10814676910732
 30
0.0
 10
-19.861732304725642
 20
182.0273209414941
 30
0.0
 10
-21.62893294339077
 20
181.65311737211036
 30
0.0
 10
-23.632865788042146
 20
180.77015842850705
 30
0.0
 10
-24.83490705436656
 20
180.04187834649377
 30
0.0
 10
-26.20062605205728
 20
179.21152804802728
 30
0.0
 10
-27.733665124629834
 20
178.08558255774554
 30
0.0
 10
-28.5647167357557
 20
177.77972853554627
 30
0.0
 10
-29.530591512946252
 20
177.25138588635411
 30
0.0
 10
-30.463984395195638
 20
176.90814074955927
 30
0.0
 10
-30.87214051032966
 20
176.80544615546683
 30
0.0
 10
-32.80426365311105
 20
176.52548192917305
 30
0.0
 10
-34.80024953382034
 20
176.42475406503073
 30
0.0
 10
-35.88438796673919
 20
176.58161885489034
 30
0.0
 10
-36.49781277501366
 20
176.74503292146113
 30
0.0
 10
-37.38007905114953
 20
177.29716974703854
 30
0.0
 10
-38.35991029431521
 20
177.797293434021
 30
0.0
 10
-39.004669562507495
 20
178.37736830615427
 30
0.0
 10
-39.8262763125606
 20
179.4133333913313
 30
0.0
 10
-40.45963486971977
 20
180.47870476490047
 30
0.0
 10
-40.8511667300162
 20
181.44837293269967
 30
0.0
 10
-41.21978319940814
 20
182.28308327145373
 30
0.0
 10
-41.58592757863138
 20
183.5039445959479
 30
0.0
 10
-41.87383099458208
 20
184.3852317736207
 30
0.0
 10
-42.16946895874558
 20
185.4136013774012
 30
0.0
 10
-42.37850846495164
 20
186.32332591087751
 30
0.0
 10
-42.504160411722275
 20
186.90342049534243
 30
0.0
 10
-42.668775093190604
 20
187.89506375372056
 30
0.0
 10
-42.810660503919664
 20
188.95233730881864
 30
0.0
 10
-42.8728235966883
 20
190.0499300450708
 30
0.0
 10
-42.882131468768925
 20
190.5741730778607
 30
0.0
 10
-42.86839896281546
 20
191.37538270387518
 30
0.0
 10
-42.86197650468776
 20
191.73538376489057
 30
0.0
 10
-42.81429630368965
 20
192.98339463214506
 30
0.0
 10
-42.75128215333742
 20
193.90443606812528
 30
0.0
 10
-42.73142074424065
 20
195.4128848050776
 30
0.0
 10
-42.704348395234
 20
195.9905381428515
 30
0.0
 10
-42.63509668546855
 20
196.4784073193735
 30
0.0
 10
-42.3710582090871
 20
198.23517377794937
 30
0.0
 10
-42.20723765687875
 20
198.97525168254052
 30
0.0
 10
-41.8955111269711
 20
200.4704810122943
 30
0.0
 10
-41.71225320145422
 20
201.2129126953562
 30
0.0
 10
-41.30146602998118
 20
202.37645104187897
 30
0.0
 10
-41.04780378409222
 20
203.27963699473398
 30
0.0
 10
-40.61557720891013
 20
204.33951018684294
 30
0.0
 10
-40.38773874930384
 20
204.92749735068736
 30
0.0
 10
-39.950759188565314
 20
205.74717170667455
 30
0.0
 10
-39.69629500289475
 20
206.16081319002018
 30
0.0
 10
-38.96195562949301
 20
207.14029722708267
 30
0.0
 10
-38.550147946744644
 20
207.62153019864124
 30
0.0
 10
-37.61602680028824
 20
208.7235034666873
 30
0.0
 10
-37.02030579888914
 20
209.38193080729707
 30
0.0
 10
-36.61580173547896
 20
209.89109117815036
 30
0.0
 10
-35.673119123501024
 20
210.96078896881002
 30
0.0
 10
-35.18997127522149
 20
211.5825046764878
 30
0.0
 10
-34.27056018442364
 20
213.65372270810204
 30
0.0
 10
-35.29239209393132
 20
216.02761488994352
 30
0.0
 10
-36.673475103504714
 20
217.12871348555078
 30
0.0
 10
-38.4971889213329
 20
218.66715482599815
 30
0.0
 10
-39.842607221902604
 20
220.55605030920356
 30
0.0
 10
-40.84907921081122
 20
223.55363386952345
 30
0.0
 10
-41.12814370349687
 20
224.14855012555944
 30
0.0
 10
-42.07167682481381
 20
226.75944138203963
 30
0.0
 10
-42.20357615020296
 20
227.36177499794098
 30
0.0
 10
-42.31022321357794
 20
229.41483118258347
 30
0.0
 10
-42.28513920483238
 20
229.84793302153844
 30
0.0
 10
-42.21599103021607
 20
230.27883022915535
 30
0.0
 10
-42.05545910759313
 20
231.74628765663826
 30
0.0
 10
-41.665216526287395
 20
232.34149750868912
 30
0.0
 10
-41.050063481879725
 20
233.85008219363675
 30
0.0
 10
-40.94288617289913
 20
234.14836235814914
 30
0.0
 10
-40.45715494896496
 20
235.09657674815074
 30
0.0
 10
-39.99354449084746
 20
235.73004943453427
 30
0.0
 10
-39.63435721497456
 20
236.07329817656503
 30
0.0
 10
-38.76918953373974
 20
237.11686871717583
 30
0.0
 10
-37.71957829879597
 20
237.66786109572126
 30
0.0
 10
-36.923527312698155
 20
236.77516815879306
 30
0.0
 10
-36.380414508395944
 20
236.14044866091896
 30
0.0
 10
-36.333888286644786
 20
235.3943491199354
 30
0.0
 10
-35.893997817111774
 20
234.7869499198401
 30
0.0
 10
-35.395690568926206
 20
233.94984319269597
 30
0.0
 10
-34.954952476185646
 20
233.5693253490862
 30
0.0
 10
-34.19902699431402
 20
232.99750693578835
 30
0.0
 10
-33.44290532701071
 20
232.39129522849112
 30
0.0
 10
-33.180505503329634
 20
232.09803851680286
 30
0.0
 10
-31.677482514723835
 20
230.83673576378698
 30
0.0
 10
-30.684520085659436
 20
229.53255842008696
 30
0.0
 10
-30.189724670481546
 20
228.9799784003541
 30
0.0
 10
-29.64749429856431
 20
228.3050493574674
 30
0.0
 10
-29.040810965872826
 20
227.26241919411646
 30
0.0
 10
-28.17035676944468
 20
225.9270868724421
 30
0.0
 10
-27.6281539353755
 20
224.4703862601469
 30
0.0
 10
-27.07943016272656
 20
224.18812262978082
 30
0.0
 10
-25.185604070362974
 20
224.67853086989794
 30
0.0
 10
-24.64475467954706
 20
225.13429548569738
 30
0.0
 10
-24.412493371990042
 20
225.4158939085143
 30
0.0
 10
-23.470083659959325
 20
226.60561155868044
 30
0.0
 10
-22.663717367901942
 20
227.5530656001218
 30
0.0
 10
-22.25538507941166
 20
227.95504151379845
 30
0.0
 10
-20.648207475647954
 20
229.54355490604414
 30
0.0
 10
-20.20191803537968
 20
229.94522218718708
 30
0.0
 10
-19.089552010615417
 20
230.7805451850144
 30
0.0
 10
-17.92909993141651
 20
231.67167363928456
 30
0.0
 10
-17.33085632527728
 20
232.09183925879591
 30
0.0
 10
-15.558196951620776
 20
233.0310932695152
 30
0.0
 10
-13.820531824817904
 20
233.92991341361633
 30
0.0
 10
-12.799533851855514
 20
234.4638836410187
 30
0.0
 10
-12.156213866242645
 20
234.7142397938955
 30
0.0
 10
-11.061994837263683
 20
235.08359676724797
 30
0.0
 10
-10.185549308991636
 20
235.38537824250133
 30
0.0
 10
-8.746739341849688
 20
235.90652150597347
 30
0.0
 10
-8.011686747049277
 20
236.25353992825413
 30
0.0
 10
-6.672530283630655
 20
236.66458749993188
 30
0.0
 10
-5.236519994705113
 20
237.21730417805023
 30
0.0
 10
-4.86787549377984
 20
237.3350459594281
 30
0.0
 10
-3.809601978893018
 20
237.54848176456278
 30
0.0
 10
-2.807059452343419
 20
237.78746042665776
 30
0.0
 10
-2.0825497721789636
 20
238.09631546146178
 30
0.0
 10
-0.5694654796310508
 20
238.34760294580724
 30
0.0
 10
0.06548356783884546
 20
238.40986612308015
 30
0.0
 10
1.6019431109762554
 20
238.5154423810374
 30
0.0
 10
2.2902252082603534
 20
238.48283858066478
 30
0.0
 10
3.5432645334556145
 20
238.36917548812204
 30
0.0
 10
4.450971669534749
 20
238.16799100877918
 30
0.0
 10
5.41691276380604
 20
238.0094210495488
 30
0.0
 10
6.380317444601755
 20
237.70786422609527
 30
0.0
 10
7.2473833480857195
 20
237.543865455508
 30
0.0
 10
8.483975668206302
 20
237.28115304999886
 30
0.0
 10
9.12710743215161
 20
237.13963059649438
 30
0.0
 10
10.609360732126994
 20
236.84210176325058
 30
0.0
 10
12.041055011467908
 20
236.40976810972631
 30
0.0
 10
12.629320299143647
 20
236.3135228930249
 30
0.0
 10
14.014463240771716
 20
235.65654989097425
 30
0.0
 10
14.667085639455363
 20
235.5133035139686
 30
0.0
 10
16.275019739824504
 20
235.03588311327184
 30
0.0
 10
16.611283011971807
 20
234.96049814681413
 30
0.0
 10
18.166480585028438
 20
234.95744485434076
 30
0.0
 10
18.78527756680193
 20
234.87536520551936
 30
0.0
 10
19.480287182820508
 20
235.20262362226885
 30
0.0
 10
21.21892896768154
 20
235.82876234032727
 30
0.0
 10
21.572545899387304
 20
236.30895082876438
 30
0.0
 10
21.270961733566175
 20
237.7797047418825
 30
0.0
 10
20.804558972627095
 20
239.38007288091526
 30
0.0
 10
20.19231279459404
 20
240.53016032757824
 30
0.0
 10
19.99180399454735
 20
240.9321929066655
 30
0.0
 10
19.177307709422898
 20
242.3226579273843
 30
0.0
 10
18.449534332806632
 20
243.93558791733406
 30
0.0
 10
17.938891338311468
 20
245.77829602929532
 30
0.0
 10
17.663486510857147
 20
246.98903482669553
 30
0.0
 10
17.45389654884262
 20
247.84659809723655
 30
0.0
 10
17.213469531179552
 20
248.66323814022198
 30
0.0
 10
16.85115826628906
 20
249.49764786242307
 30
0.0
 10
16.548135777210963
 20
250.2158863985224
 30
0.0
 10
15.909849255992397
 20
251.75932955015028
 30
0.0
 10
15.311917842455902
 20
253.21815446592186
 30
0.0
 10
14.96401186916593
 20
254.21519909208914
 30
0.0
 10
14.773681124523634
 20
254.7547385477803
 30
0.0
 10
14.248447710855324
 20
256.3427835878725
 30
0.0
 10
14.073333930929431
 20
256.7294562355884
 30
0.0
 10
13.73978876673445
 20
257.6283038686619
 30
0.0
 10
13.576396114697927
 20
258.1575899815139
 30
0.0
 10
12.940809125379975
 20
260.06961380575876
 30
0.0
 10
12.74473441532786
 20
260.33278104143534
 30
0.0
 10
12.587224076944626
 20
260.6572141928715
 30
0.0
 10
12.008569708714482
 20
262.03517542373515
 30
0.0
 10
11.76516260661087
 20
263.1705369135227
 30
0.0
 10
10.908276623658574
 20
263.98764636014624
 30
0.0
 10
10.352473936108117
 20
265.8061341446106
 30
0.0
 10
8.480076956376143
 20
266.3293816689258
 30
0.0
 10
6.937919230444724
 20
266.6315164485901
 30
0.0
 10
6.287511580797016
 20
266.3860463667055
 30
0.0
 10
5.182296813103788
 20
266.3047284817808
 30
0.0
 10
4.172132753970372
 20
266.3668805024784
 30
0.0
 10
3.61585666929823
 20
267.8304220182141
 30
0.0
 10
4.17268911158885
 20
269.4348768305231
 30
0.0
 10
4.42652154871989
 20
270.10041655602345
 30
0.0
 10
4.528302141454899
 20
270.6514899202799
 30
0.0
 10
5.360819278552922
 20
271.18663072260097
 30
0.0
 10
6.9333533919413295
 20
271.73024177148875
 30
0.0
 10
7.392832358025948
 20
271.67116315606637
 30
0.0
 10
9.193376181801073
 20
272.55241979651015
 30
0.0
 10
9.845434922173428
 20
272.8301024101419
 30
0.0
 10
10.152443737989243
 20
275.7276882774658
 30
0.0
 10
10.395114569112197
 20
278.76827705524516
 30
0.0
 10
9.278450543870278
 20
279.9226346924493
 30
0.0
 10
7.72079982144234
 20
281.22476985384674
 30
0.0
 10
6.539543944891419
 20
283.0700054706507
 30
0.0
 10
6.158649884681451
 20
283.08419865993955
 30
0.0
 10
7.106003260829806
 20
283.3613725912715
 30
0.0
 10
8.294875652852332
 20
284.2147964006913
 30
0.0
 10
8.592417838626025
 20
284.4258574751214
 30
0.0
 10
9.400401123771484
 20
284.61407770931015
 30
0.0
 10
11.210541178582325
 20
284.88487881051924
 30
0.0
 10
11.704890252861894
 20
285.19638794413316
 30
0.0
 10
13.423656337193913
 20
286.26077787661023
 30
0.0
 10
14.02454974354834
 20
286.8421373053309
 30
0.0
 10
15.21780334580736
 20
287.3693801219824
 30
0.0
 10
15.990800403470733
 20
287.592783208309
 30
0.0
 10
16.593025989255107
 20
287.96670442902115
 30
0.0
 10
17.78722642796712
 20
288.74229992626385
 30
0.0
 10
18.594179563133274
 20
288.9909102497477
 30
0.0
 10
19.594435120260183
 20
289.21377558450604
 30
0.0
 10
21.293182745447478
 20
289.57048381179504
 30
0.0
 10
23.601624243193854
 20
289.597419977088
 30
0.0
  0
ENDSEC
  0
EOF
