999
DXF generated by GENSOLE
  0
SECTION
  2
HEADER
  0
ENDSEC
  0
SECTION
  2
TABLES
  0
TABLE
  2
LTYPE
  70
1
  0
LTYPE
  2
CONTINUOUS
  3
Solid Line
  72
65
  73
0
  40
0.0
  0
ENDTAB
  0
TABLE
  2
LAYER
  70
1
  0
LAYER
  2
ShapeRegion
  62
7
  6
Continuous
  0
ENDTAB
  0
TABLE
  2
STYLE
  70
0
  0
ENDTAB
  0
TABLE
  2
VIEW
  70
0
  0
ENDTAB
  0
ENDSEC
  0
SECTION
  2
BLOCKS
  0
ENDSEC
  0
SECTION
  2
ENTITIES
  0
LWPOLYLINE
  8
ShapeRegion
  90
72
  70
1
 10
0.9054391528529584
 20
58.28368195501493
 30
0.0
 10
0.6090514952458437
 20
58.10509137958192
 30
0.0
 10
-1.0041678293937415
 20
56.62166473028051
 30
0.0
 10
-1.8363144280644454
 20
55.3427086839252
 30
0.0
 10
-2.202516086164544
 20
54.742096180723145
 30
0.0
 10
-2.7058157054169767
 20
53.914712753194266
 30
0.0
 10
-3.4249426063214883
 20
52.972629730316235
 30
0.0
 10
-4.00028646094826
 20
52.150874599239195
 30
0.0
 10
-4.709433004566294
 20
51.28286623841767
 30
0.0
 10
-5.57375571548943
 20
49.988290539932876
 30
0.0
 10
-5.677979476497081
 20
49.310252179369414
 30
0.0
 10
-5.949219371336998
 20
47.42442578748952
 30
0.0
 10
-5.945941532755783
 20
47.04751136537609
 30
0.0
 10
-6.153953226043795
 20
45.45693215665564
 30
0.0
 10
-6.067011935483343
 20
44.97488910959311
 30
0.0
 10
-5.7784104482149665
 20
44.00768171390957
 30
0.0
 10
-5.607314887357209
 20
42.97751471495394
 30
0.0
 10
-5.390245704939831
 20
42.220207829181994
 30
0.0
 10
-5.045941149685165
 20
41.545147747660195
 30
0.0
 10
-4.664942816231733
 20
40.76808831393799
 30
0.0
 10
-3.9906968270071017
 20
39.85495910911328
 30
0.0
 10
-3.706982695894222
 20
39.559838293466626
 30
0.0
 10
-2.162054169987844
 20
38.6412730952224
 30
0.0
 10
-1.766930667595679
 20
38.40081937691695
 30
0.0
 10
-0.7286846251557118
 20
37.46951347715791
 30
0.0
 10
0.9760607607593106
 20
36.64401669725264
 30
0.0
 10
1.4609485037601921
 20
36.40949138547581
 30
0.0
 10
2.8016713533849176
 20
36.01701081544872
 30
0.0
 10
3.427900898734354
 20
35.719020411160216
 30
0.0
 10
4.4987017525275625
 20
35.43166854056683
 30
0.0
 10
5.310976593538408
 20
35.33996316622994
 30
0.0
 10
7.332020408080428
 20
35.93445607731068
 30
0.0
 10
9.635737771560251
 20
36.51520087545195
 30
0.0
 10
10.8440354468172
 20
37.27295054297281
 30
0.0
 10
11.67282612145168
 20
37.892346867866316
 30
0.0
 10
12.406641147698572
 20
38.415405401507876
 30
0.0
 10
12.979377744435721
 20
38.948240865807065
 30
0.0
 10
13.396247179828158
 20
39.65413601807436
 30
0.0
 10
14.049131551653382
 20
40.945239024419
 30
0.0
 10
14.327618284868498
 20
41.442470689794774
 30
0.0
 10
14.638622232454368
 20
41.96970020622466
 30
0.0
 10
15.406067648468513
 20
43.578166575708686
 30
0.0
 10
15.600488692097532
 20
44.11271264938086
 30
0.0
 10
16.114425216619097
 20
45.63284395510751
 30
0.0
 10
16.25711049611116
 20
46.17339221173438
 30
0.0
 10
16.319400416793943
 20
46.71942083665457
 30
0.0
 10
16.52318399765325
 20
48.26893440017779
 30
0.0
 10
16.58156425619953
 20
48.779196771970554
 30
0.0
 10
16.49487748305772
 20
49.95282203751482
 30
0.0
 10
16.51949087824309
 20
50.436975486075156
 30
0.0
 10
16.35485409522501
 20
51.22167493011141
 30
0.0
 10
15.978633195021727
 20
52.119657330794034
 30
0.0
 10
15.750264218818117
 20
52.946584658627096
 30
0.0
 10
15.608297393968135
 20
53.98409372511059
 30
0.0
 10
14.796499924127891
 20
55.1918424613498
 30
0.0
 10
14.445535934464958
 20
55.969139744580076
 30
0.0
 10
14.15082578369296
 20
56.626316992959175
 30
0.0
 10
13.439488961890339
 20
57.401175788121265
 30
0.0
 10
13.118937761998046
 20
57.76801967509748
 30
0.0
 10
12.855488821179948
 20
58.1482875179103
 30
0.0
 10
11.896174471582873
 20
58.98266117229647
 30
0.0
 10
10.771440942510356
 20
59.59897556829869
 30
0.0
 10
10.193083861427489
 20
59.84442711140214
 30
0.0
 10
8.78548838662018
 20
60.153713885951774
 30
0.0
 10
8.30236116847367
 20
60.107042797926525
 30
0.0
 10
6.829639876532326
 20
60.15223134438066
 30
0.0
 10
6.231535085587902
 20
60.06187284820425
 30
0.0
 10
4.966129432169657
 20
59.79717975061232
 30
0.0
 10
3.8246514403984824
 20
59.476996264834256
 30
0.0
 10
3.0346515887293797
 20
59.24437981045062
 30
0.0
 10
1.648921360722613
 20
58.606530042241666
 30
0.0
 10
0.9054391528529584
 20
58.28368195501493
 30
0.0
  0
ENDSEC
  0
EOF
