solid insock
facet normal 0 0 -1
outer loop
vertex 0.6090514952458437 58.10509137958192 0
vertex 0.9054391528529584 58.28368195501493 0
vertex 1.648921360722613 58.606530042241666 0
endloop
endfacet
facet normal 0 0 -1
outer loop
vertex -1.8363144280644454 55.3427086839252 0
vertex -1.0041678293937415 56.62166473028051 0
vertex 0.6090514952458437 58.10509137958192 0
endloop
endfacet
facet normal 0 0 -1
outer loop
vertex -2.7058157054169767 53.914712753194266 0
vertex -2.202516086164544 54.742096180723145 0
vertex -1.8363144280644454 55.3427086839252 0
endloop
endfacet
facet normal 0 0 -1
outer loop
vertex -4.00028646094826 52.150874599239195 0
vertex -3.4249426063214883 52.972629730316235 0
vertex -2.7058157054169767 53.914712753194266 0
endloop
endfacet
facet normal 0 0 -1
outer loop
vertex -5.57375571548943 49.988290539932876 0
vertex -4.709433004566294 51.28286623841767 0
vertex -4.00028646094826 52.150874599239195 0
endloop
endfacet
facet normal 0 0 -1
outer loop
vertex -5.949219371336998 47.42442578748952 0
vertex -5.677979476497081 49.310252179369414 0
vertex -5.57375571548943 49.988290539932876 0
endloop
endfacet
facet normal 0 0 -1
outer loop
vertex -6.067011935483343 44.97488910959311 0
vertex -6.153953226043795 45.45693215665564 0
vertex -5.945941532755783 47.04751136537609 0
endloop
endfacet
facet normal 0 0 -1
outer loop
vertex -5.390245704939831 42.220207829181994 0
vertex -5.607314887357209 42.97751471495394 0
vertex -5.7784104482149665 44.00768171390957 0
endloop
endfacet
facet normal 0 0 -1
outer loop
vertex -3.9906968270071017 39.85495910911328 0
vertex -4.664942816231733 40.76808831393799 0
vertex -5.045941149685165 41.545147747660195 0
endloop
endfacet
facet normal 0 0 -1
outer loop
vertex -2.162054169987844 38.6412730952224 0
vertex -3.706982695894222 39.559838293466626 0
vertex -3.9906968270071017 39.85495910911328 0
endloop
endfacet
facet normal 0 0 -1
outer loop
vertex 0.9760607607593106 36.64401669725264 0
vertex -0.7286846251557118 37.46951347715791 0
vertex -1.766930667595679 38.40081937691695 0
endloop
endfacet
facet normal 0 0 -0.9999999999999999
outer loop
vertex 2.8016713533849176 36.01701081544872 0
vertex 1.4609485037601921 36.40949138547581 0
vertex 0.9760607607593106 36.64401669725264 0
endloop
endfacet
facet normal 0 0 -1
outer loop
vertex 4.4987017525275625 35.43166854056683 0
vertex 3.427900898734354 35.719020411160216 0
vertex 2.8016713533849176 36.01701081544872 0
endloop
endfacet
facet normal 0 0 -1
outer loop
vertex 7.332020408080428 35.93445607731068 0
vertex 5.310976593538408 35.33996316622994 0
vertex 4.4987017525275625 35.43166854056683 0
endloop
endfacet
facet normal 0 0 -1
outer loop
vertex 10.8440354468172 37.27295054297281 0
vertex 9.635737771560251 36.51520087545195 0
vertex 7.332020408080428 35.93445607731068 0
endloop
endfacet
facet normal 0 0 -1
outer loop
vertex 12.979377744435721 38.948240865807065 0
vertex 12.406641147698572 38.415405401507876 0
vertex 11.67282612145168 37.892346867866316 0
endloop
endfacet
facet normal 0 0 -1
outer loop
vertex 14.049131551653382 40.945239024419 0
vertex 13.396247179828158 39.65413601807436 0
vertex 12.979377744435721 38.948240865807065 0
endloop
endfacet
facet normal 0 0 -1
outer loop
vertex 15.406067648468513 43.578166575708686 0
vertex 14.638622232454368 41.96970020622466 0
vertex 14.327618284868498 41.442470689794774 0
endloop
endfacet
facet normal 0 0 -1
outer loop
vertex 16.114425216619097 45.63284395510751 0
vertex 15.600488692097532 44.11271264938086 0
vertex 15.406067648468513 43.578166575708686 0
endloop
endfacet
facet normal 0 0 -1
outer loop
vertex 16.319400416793943 46.71942083665457 0
vertex 16.25711049611116 46.17339221173438 0
vertex 16.114425216619097 45.63284395510751 0
endloop
endfacet
facet normal 0 0 -0.9999999999999999
outer loop
vertex 16.58156425619953 48.779196771970554 0
vertex 16.52318399765325 48.26893440017779 0
vertex 16.319400416793943 46.71942083665457 0
endloop
endfacet
facet normal 0 0 -1
outer loop
vertex 16.35485409522501 51.22167493011141 0
vertex 16.51949087824309 50.436975486075156 0
vertex 16.49487748305772 49.95282203751482 0
endloop
endfacet
facet normal 0 0 -0.9999999999999999
outer loop
vertex 14.796499924127891 55.1918424613498 0
vertex 15.608297393968135 53.98409372511059 0
vertex 15.750264218818117 52.946584658627096 0
endloop
endfacet
facet normal 0 0 -1
outer loop
vertex 13.439488961890339 57.401175788121265 0
vertex 14.15082578369296 56.626316992959175 0
vertex 14.445535934464958 55.969139744580076 0
endloop
endfacet
facet normal 0 0 -1
outer loop
vertex 11.896174471582873 58.98266117229647 0
vertex 12.855488821179948 58.1482875179103 0
vertex 13.118937761998046 57.76801967509748 0
endloop
endfacet
facet normal 0 0 -1
outer loop
vertex 10.193083861427489 59.84442711140214 0
vertex 10.771440942510356 59.59897556829869 0
vertex 11.896174471582873 58.98266117229647 0
endloop
endfacet
facet normal 0 0 -1
outer loop
vertex 8.30236116847367 60.107042797926525 0
vertex 8.78548838662018 60.153713885951774 0
vertex 10.193083861427489 59.84442711140214 0
endloop
endfacet
facet normal 0 0 -0.9999999999999999
outer loop
vertex 6.231535085587902 60.06187284820425 0
vertex 6.829639876532326 60.15223134438066 0
vertex 8.30236116847367 60.107042797926525 0
endloop
endfacet
facet normal 0 0 -1
outer loop
vertex 3.8246514403984824 59.476996264834256 0
vertex 4.966129432169657 59.79717975061232 0
vertex 6.231535085587902 60.06187284820425 0
endloop
endfacet
facet normal 0 0 -1
outer loop
vertex 1.648921360722613 58.606530042241666 0
vertex 3.0346515887293797 59.24437981045062 0
vertex 3.8246514403984824 59.476996264834256 0
endloop
endfacet
facet normal 0 0 -1
outer loop
vertex -1.8363144280644454 55.3427086839252 0
vertex 0.6090514952458437 58.10509137958192 0
vertex 1.648921360722613 58.606530042241666 0
endloop
endfacet
facet normal 0 0 -0.9999999999999999
outer loop
vertex -5.57375571548943 49.988290539932876 0
vertex -4.00028646094826 52.150874599239195 0
vertex -2.7058157054169767 53.914712753194266 0
endloop
endfacet
facet normal 0 0 -1
outer loop
vertex -5.945941532755783 47.04751136537609 0
vertex -5.949219371336998 47.42442578748952 0
vertex -5.57375571548943 49.988290539932876 0
endloop
endfacet
facet normal 0 0 -1
outer loop
vertex -5.7784104482149665 44.00768171390957 0
vertex -6.067011935483343 44.97488910959311 0
vertex -5.945941532755783 47.04751136537609 0
endloop
endfacet
facet normal 0 0 -1
outer loop
vertex -5.045941149685165 41.545147747660195 0
vertex -5.390245704939831 42.220207829181994 0
vertex -5.7784104482149665 44.00768171390957 0
endloop
endfacet
facet normal 0 0 -1
outer loop
vertex -2.162054169987844 38.6412730952224 0
vertex -3.9906968270071017 39.85495910911328 0
vertex -5.045941149685165 41.545147747660195 0
endloop
endfacet
facet normal 0 0 -0.9999999999999999
outer loop
vertex 2.8016713533849176 36.01701081544872 0
vertex 0.9760607607593106 36.64401669725264 0
vertex -1.766930667595679 38.40081937691695 0
endloop
endfacet
facet normal 0 0 -0.9999999999999999
outer loop
vertex 7.332020408080428 35.93445607731068 0
vertex 4.4987017525275625 35.43166854056683 0
vertex 2.8016713533849176 36.01701081544872 0
endloop
endfacet
facet normal 0 0 -1
outer loop
vertex 11.67282612145168 37.892346867866316 0
vertex 10.8440354468172 37.27295054297281 0
vertex 7.332020408080428 35.93445607731068 0
endloop
endfacet
facet normal 0 0 -1
outer loop
vertex 14.049131551653382 40.945239024419 0
vertex 12.979377744435721 38.948240865807065 0
vertex 11.67282612145168 37.892346867866316 0
endloop
endfacet
facet normal 0 0 -1
outer loop
vertex 15.406067648468513 43.578166575708686 0
vertex 14.327618284868498 41.442470689794774 0
vertex 14.049131551653382 40.945239024419 0
endloop
endfacet
facet normal 0 0 -1
outer loop
vertex 16.319400416793943 46.71942083665457 0
vertex 16.114425216619097 45.63284395510751 0
vertex 15.406067648468513 43.578166575708686 0
endloop
endfacet
facet normal 0 0 -1
outer loop
vertex 16.49487748305772 49.95282203751482 0
vertex 16.58156425619953 48.779196771970554 0
vertex 16.319400416793943 46.71942083665457 0
endloop
endfacet
facet normal 0 0 -1
outer loop
vertex 15.978633195021727 52.119657330794034 0
vertex 16.35485409522501 51.22167493011141 0
vertex 16.49487748305772 49.95282203751482 0
endloop
endfacet
facet normal 0 0 -1
outer loop
vertex 14.796499924127891 55.1918424613498 0
vertex 15.750264218818117 52.946584658627096 0
vertex 15.978633195021727 52.119657330794034 0
endloop
endfacet
facet normal 0 0 -1
outer loop
vertex 13.439488961890339 57.401175788121265 0
vertex 14.445535934464958 55.969139744580076 0
vertex 14.796499924127891 55.1918424613498 0
endloop
endfacet
facet normal 0 0 -0.9999999999999999
outer loop
vertex 11.896174471582873 58.98266117229647 0
vertex 13.118937761998046 57.76801967509748 0
vertex 13.439488961890339 57.401175788121265 0
endloop
endfacet
facet normal 0 0 -1
outer loop
vertex 8.30236116847367 60.107042797926525 0
vertex 10.193083861427489 59.84442711140214 0
vertex 11.896174471582873 58.98266117229647 0
endloop
endfacet
facet normal 0 0 -1
outer loop
vertex 3.8246514403984824 59.476996264834256 0
vertex 6.231535085587902 60.06187284820425 0
vertex 8.30236116847367 60.107042797926525 0
endloop
endfacet
facet normal 0 0 -1
outer loop
vertex -1.8363144280644454 55.3427086839252 0
vertex 1.648921360722613 58.606530042241666 0
vertex 3.8246514403984824 59.476996264834256 0
endloop
endfacet
facet normal 0 0 -1
outer loop
vertex -5.945941532755783 47.04751136537609 0
vertex -5.57375571548943 49.988290539932876 0
vertex -2.7058157054169767 53.914712753194266 0
endloop
endfacet
facet normal 0 0 -1
outer loop
vertex -5.045941149685165 41.545147747660195 0
vertex -5.7784104482149665 44.00768171390957 0
vertex -5.945941532755783 47.04751136537609 0
endloop
endfacet
facet normal 0 0 -1
outer loop
vertex -1.766930667595679 38.40081937691695 0
vertex -2.162054169987844 38.6412730952224 0
vertex -5.045941149685165 41.545147747660195 0
endloop
endfacet
facet normal 0 0 -1
outer loop
vertex 7.332020408080428 35.93445607731068 0
vertex 2.8016713533849176 36.01701081544872 0
vertex -1.766930667595679 38.40081937691695 0
endloop
endfacet
facet normal 0 0 -1
outer loop
vertex 14.049131551653382 40.945239024419 0
vertex 11.67282612145168 37.892346867866316 0
vertex 7.332020408080428 35.93445607731068 0
endloop
endfacet
facet normal 0 0 -1
outer loop
vertex 16.319400416793943 46.71942083665457 0
vertex 15.406067648468513 43.578166575708686 0
vertex 14.049131551653382 40.945239024419 0
endloop
endfacet
facet normal 0 0 -1
outer loop
vertex 15.978633195021727 52.119657330794034 0
vertex 16.49487748305772 49.95282203751482 0
vertex 16.319400416793943 46.71942083665457 0
endloop
endfacet
facet normal 0 0 -1
outer loop
vertex 13.439488961890339 57.401175788121265 0
vertex 14.796499924127891 55.1918424613498 0
vertex 15.978633195021727 52.119657330794034 0
endloop
endfacet
facet normal 0 0 -0.9999999999999999
outer loop
vertex 8.30236116847367 60.107042797926525 0
vertex 11.896174471582873 58.98266117229647 0
vertex 13.439488961890339 57.401175788121265 0
endloop
endfacet
facet normal 0 0 -1
outer loop
vertex -1.8363144280644454 55.3427086839252 0
vertex 3.8246514403984824 59.476996264834256 0
vertex 8.30236116847367 60.107042797926525 0
endloop
endfacet
facet normal 0 0 -0.9999999999999999
outer loop
vertex -5.945941532755783 47.04751136537609 0
vertex -2.7058157054169767 53.914712753194266 0
vertex -1.8363144280644454 55.3427086839252 0
endloop
endfacet
facet normal 0 0 -1
outer loop
vertex -1.766930667595679 38.40081937691695 0
vertex -5.045941149685165 41.545147747660195 0
vertex -5.945941532755783 47.04751136537609 0
endloop
endfacet
facet normal 0 0 -1
outer loop
vertex 14.049131551653382 40.945239024419 0
vertex 7.332020408080428 35.93445607731068 0
vertex -1.766930667595679 38.40081937691695 0
endloop
endfacet
facet normal 0 0 -0.9999999999999999
outer loop
vertex 15.978633195021727 52.119657330794034 0
vertex 16.319400416793943 46.71942083665457 0
vertex 14.049131551653382 40.945239024419 0
endloop
endfacet
facet normal 0 0 -1
outer loop
vertex 8.30236116847367 60.107042797926525 0
vertex 13.439488961890339 57.401175788121265 0
vertex 15.978633195021727 52.119657330794034 0
endloop
endfacet
facet normal 0 0 -1
outer loop
vertex -5.945941532755783 47.04751136537609 0
vertex -1.8363144280644454 55.3427086839252 0
vertex 8.30236116847367 60.107042797926525 0
endloop
endfacet
facet normal 0 0 -0.9999999999999999
outer loop
vertex 14.049131551653382 40.945239024419 0
vertex -1.766930667595679 38.40081937691695 0
vertex -5.945941532755783 47.04751136537609 0
endloop
endfacet
facet normal 0 0 -1
outer loop
vertex 8.30236116847367 60.107042797926525 0
vertex 15.978633195021727 52.119657330794034 0
vertex 14.049131551653382 40.945239024419 0
endloop
endfacet
facet normal 0 0 -1
outer loop
vertex 14.049131551653382 40.945239024419 0
vertex -5.945941532755783 47.04751136537609 0
vertex 8.30236116847367 60.107042797926525 0
endloop
endfacet
facet normal 0 0 1
outer loop
vertex 1.648921360722613 58.606530042241666 3.843357828630484
vertex 0.9054391528529584 58.28368195501493 3.843357828630484
vertex 0.6090514952458437 58.10509137958192 3.843357828630484
endloop
endfacet
facet normal 0 0 1
outer loop
vertex 0.6090514952458437 58.10509137958192 3.843357828630484
vertex -1.0041678293937415 56.62166473028051 3.843357828630484
vertex -1.8363144280644454 55.3427086839252 3.843357828630484
endloop
endfacet
facet normal 0 0 1
outer loop
vertex -1.8363144280644454 55.3427086839252 3.843357828630484
vertex -2.202516086164544 54.742096180723145 3.843357828630484
vertex -2.7058157054169767 53.914712753194266 3.843357828630484
endloop
endfacet
facet normal 0 0 1
outer loop
vertex -2.7058157054169767 53.914712753194266 3.843357828630484
vertex -3.4249426063214883 52.972629730316235 3.843357828630484
vertex -4.00028646094826 52.150874599239195 3.843357828630484
endloop
endfacet
facet normal 0 0 1
outer loop
vertex -4.00028646094826 52.150874599239195 3.843357828630484
vertex -4.709433004566294 51.28286623841767 3.843357828630484
vertex -5.57375571548943 49.988290539932876 3.843357828630484
endloop
endfacet
facet normal 0 0 1
outer loop
vertex -5.57375571548943 49.988290539932876 3.843357828630484
vertex -5.677979476497081 49.310252179369414 3.843357828630484
vertex -5.949219371336998 47.42442578748952 3.843357828630484
endloop
endfacet
facet normal 0 0 1
outer loop
vertex -5.945941532755783 47.04751136537609 3.843357828630484
vertex -6.153953226043795 45.45693215665564 3.843357828630484
vertex -6.067011935483343 44.97488910959311 3.843357828630484
endloop
endfacet
facet normal 0 0 1
outer loop
vertex -5.7784104482149665 44.00768171390957 3.843357828630484
vertex -5.607314887357209 42.97751471495394 3.843357828630484
vertex -5.390245704939831 42.220207829181994 3.843357828630484
endloop
endfacet
facet normal 0 0 1
outer loop
vertex -5.045941149685165 41.545147747660195 3.843357828630484
vertex -4.664942816231733 40.76808831393799 3.843357828630484
vertex -3.9906968270071017 39.85495910911328 3.843357828630484
endloop
endfacet
facet normal 0 0 1
outer loop
vertex -3.9906968270071017 39.85495910911328 3.843357828630484
vertex -3.706982695894222 39.559838293466626 3.843357828630484
vertex -2.162054169987844 38.6412730952224 3.843357828630484
endloop
endfacet
facet normal 0 0 1
outer loop
vertex -1.766930667595679 38.40081937691695 3.843357828630484
vertex -0.7286846251557118 37.46951347715791 3.843357828630484
vertex 0.9760607607593106 36.64401669725264 3.843357828630484
endloop
endfacet
facet normal 0 0 0.9999999999999999
outer loop
vertex 0.9760607607593106 36.64401669725264 3.843357828630484
vertex 1.4609485037601921 36.40949138547581 3.843357828630484
vertex 2.8016713533849176 36.01701081544872 3.843357828630484
endloop
endfacet
facet normal 0 0 1
outer loop
vertex 2.8016713533849176 36.01701081544872 3.843357828630484
vertex 3.427900898734354 35.719020411160216 3.843357828630484
vertex 4.4987017525275625 35.43166854056683 3.843357828630484
endloop
endfacet
facet normal 0 0 1
outer loop
vertex 4.4987017525275625 35.43166854056683 3.843357828630484
vertex 5.310976593538408 35.33996316622994 3.843357828630484
vertex 7.332020408080428 35.93445607731068 3.843357828630484
endloop
endfacet
facet normal 0 0 1
outer loop
vertex 7.332020408080428 35.93445607731068 3.843357828630484
vertex 9.635737771560251 36.51520087545195 3.843357828630484
vertex 10.8440354468172 37.27295054297281 3.843357828630484
endloop
endfacet
facet normal 0 0 1
outer loop
vertex 11.67282612145168 37.892346867866316 3.843357828630484
vertex 12.406641147698572 38.415405401507876 3.843357828630484
vertex 12.979377744435721 38.948240865807065 3.843357828630484
endloop
endfacet
facet normal 0 0 1
outer loop
vertex 12.979377744435721 38.948240865807065 3.843357828630484
vertex 13.396247179828158 39.65413601807436 3.843357828630484
vertex 14.049131551653382 40.945239024419 3.843357828630484
endloop
endfacet
facet normal 0 0 1
outer loop
vertex 14.327618284868498 41.442470689794774 3.843357828630484
vertex 14.638622232454368 41.96970020622466 3.843357828630484
vertex 15.406067648468513 43.578166575708686 3.843357828630484
endloop
endfacet
facet normal 0 0 1
outer loop
vertex 15.406067648468513 43.578166575708686 3.843357828630484
vertex 15.600488692097532 44.11271264938086 3.843357828630484
vertex 16.114425216619097 45.63284395510751 3.843357828630484
endloop
endfacet
facet normal 0 0 1
outer loop
vertex 16.114425216619097 45.63284395510751 3.843357828630484
vertex 16.25711049611116 46.17339221173438 3.843357828630484
vertex 16.319400416793943 46.71942083665457 3.843357828630484
endloop
endfacet
facet normal 0 0 0.9999999999999999
outer loop
vertex 16.319400416793943 46.71942083665457 3.843357828630484
vertex 16.52318399765325 48.26893440017779 3.843357828630484
vertex 16.58156425619953 48.779196771970554 3.843357828630484
endloop
endfacet
facet normal 0 0 1
outer loop
vertex 16.49487748305772 49.95282203751482 3.843357828630484
vertex 16.51949087824309 50.436975486075156 3.843357828630484
vertex 16.35485409522501 51.22167493011141 3.843357828630484
endloop
endfacet
facet normal 0 0 0.9999999999999999
outer loop
vertex 15.750264218818117 52.946584658627096 3.843357828630484
vertex 15.608297393968135 53.98409372511059 3.843357828630484
vertex 14.796499924127891 55.1918424613498 3.843357828630484
endloop
endfacet
facet normal 0 0 1
outer loop
vertex 14.445535934464958 55.969139744580076 3.843357828630484
vertex 14.15082578369296 56.626316992959175 3.843357828630484
vertex 13.439488961890339 57.401175788121265 3.843357828630484
endloop
endfacet
facet normal 0 0 1
outer loop
vertex 13.118937761998046 57.76801967509748 3.843357828630484
vertex 12.855488821179948 58.1482875179103 3.843357828630484
vertex 11.896174471582873 58.98266117229647 3.843357828630484
endloop
endfacet
facet normal 0 0 1
outer loop
vertex 11.896174471582873 58.98266117229647 3.843357828630484
vertex 10.771440942510356 59.59897556829869 3.843357828630484
vertex 10.193083861427489 59.84442711140214 3.843357828630484
endloop
endfacet
facet normal 0 0 1
outer loop
vertex 10.193083861427489 59.84442711140214 3.843357828630484
vertex 8.78548838662018 60.153713885951774 3.843357828630484
vertex 8.30236116847367 60.107042797926525 3.843357828630484
endloop
endfacet
facet normal 0 0 0.9999999999999999
outer loop
vertex 8.30236116847367 60.107042797926525 3.843357828630484
vertex 6.829639876532326 60.15223134438066 3.843357828630484
vertex 6.231535085587902 60.06187284820425 3.843357828630484
endloop
endfacet
facet normal 0 0 1
outer loop
vertex 6.231535085587902 60.06187284820425 3.843357828630484
vertex 4.966129432169657 59.79717975061232 3.843357828630484
vertex 3.8246514403984824 59.476996264834256 3.843357828630484
endloop
endfacet
facet normal 0 0 1
outer loop
vertex 3.8246514403984824 59.476996264834256 3.843357828630484
vertex 3.0346515887293797 59.24437981045062 3.843357828630484
vertex 1.648921360722613 58.606530042241666 3.843357828630484
endloop
endfacet
facet normal 0 0 1
outer loop
vertex -5.57375571548943 49.988290539932876 3.843357828630484
vertex -5.949219371336998 47.42442578748952 3.843357828630484
vertex -5.945941532755783 47.04751136537609 3.843357828630484
endloop
endfacet
facet normal 0 0 1
outer loop
vertex -5.945941532755783 47.04751136537609 3.843357828630484
vertex -6.067011935483343 44.97488910959311 3.843357828630484
vertex -5.7784104482149665 44.00768171390957 3.843357828630484
endloop
endfacet
facet normal 0 0 1
outer loop
vertex -5.7784104482149665 44.00768171390957 3.843357828630484
vertex -5.390245704939831 42.220207829181994 3.843357828630484
vertex -5.045941149685165 41.545147747660195 3.843357828630484
endloop
endfacet
facet normal 0 0 1
outer loop
vertex 11.67282612145168 37.892346867866316 3.843357828630484
vertex 12.979377744435721 38.948240865807065 3.843357828630484
vertex 14.049131551653382 40.945239024419 3.843357828630484
endloop
endfacet
facet normal 0 0 1
outer loop
vertex 14.049131551653382 40.945239024419 3.843357828630484
vertex 14.327618284868498 41.442470689794774 3.843357828630484
vertex 15.406067648468513 43.578166575708686 3.843357828630484
endloop
endfacet
facet normal 0 0 1
outer loop
vertex 15.406067648468513 43.578166575708686 3.843357828630484
vertex 16.114425216619097 45.63284395510751 3.843357828630484
vertex 16.319400416793943 46.71942083665457 3.843357828630484
endloop
endfacet
facet normal 0 0 1
outer loop
vertex 16.319400416793943 46.71942083665457 3.843357828630484
vertex 16.58156425619953 48.779196771970554 3.843357828630484
vertex 16.49487748305772 49.95282203751482 3.843357828630484
endloop
endfacet
facet normal 0 0 1
outer loop
vertex 16.49487748305772 49.95282203751482 3.843357828630484
vertex 16.35485409522501 51.22167493011141 3.843357828630484
vertex 15.978633195021727 52.119657330794034 3.843357828630484
endloop
endfacet
facet normal 0 0 1
outer loop
vertex 15.978633195021727 52.119657330794034 3.843357828630484
vertex 15.750264218818117 52.946584658627096 3.843357828630484
vertex 14.796499924127891 55.1918424613498 3.843357828630484
endloop
endfacet
facet normal 0 0 1
outer loop
vertex 14.796499924127891 55.1918424613498 3.843357828630484
vertex 14.445535934464958 55.969139744580076 3.843357828630484
vertex 13.439488961890339 57.401175788121265 3.843357828630484
endloop
endfacet
facet normal 0 0 0.9999999999999999
outer loop
vertex 13.439488961890339 57.401175788121265 3.843357828630484
vertex 13.118937761998046 57.76801967509748 3.843357828630484
vertex 11.896174471582873 58.98266117229647 3.843357828630484
endloop
endfacet
facet normal 0 0 1
outer loop
vertex 11.896174471582873 58.98266117229647 3.843357828630484
vertex 10.193083861427489 59.84442711140214 3.843357828630484
vertex 8.30236116847367 60.107042797926525 3.843357828630484
endloop
endfacet
facet normal -0.5161054907981962 0.8565250272863911 0
outer loop
vertex 0.9054391528529584 58.28368195501493 0
vertex 0.6090514952458437 58.10509137958192 0
vertex 0.9054391528529584 58.28368195501493 3.843357828630484
endloop
endfacet
facet normal -0.5161054907981962 0.8565250272863911 0
outer loop
vertex 0.6090514952458437 58.10509137958192 0
vertex 0.6090514952458437 58.10509137958192 3.843357828630484
vertex 0.9054391528529584 58.28368195501493 3.843357828630484
endloop
endfacet
facet normal -0.6768748414214933 0.7360981246074658 0
outer loop
vertex 0.6090514952458437 58.10509137958192 0
vertex -1.0041678293937415 56.62166473028051 0
vertex 0.6090514952458437 58.10509137958192 3.843357828630484
endloop
endfacet
facet normal -0.6768748414214933 0.7360981246074658 0
outer loop
vertex -1.0041678293937415 56.62166473028051 0
vertex -1.0041678293937415 56.62166473028051 3.843357828630484
vertex 0.6090514952458437 58.10509137958192 3.843357828630484
endloop
endfacet
facet normal -0.8381964180600003 0.5453684669573272 0
outer loop
vertex -1.0041678293937415 56.62166473028051 0
vertex -1.8363144280644454 55.3427086839252 0
vertex -1.0041678293937415 56.62166473028051 3.843357828630484
endloop
endfacet
facet normal -0.8381964180600003 0.5453684669573272 0
outer loop
vertex -1.8363144280644454 55.3427086839252 0
vertex -1.8363144280644454 55.3427086839252 3.843357828630484
vertex -1.0041678293937415 56.62166473028051 3.843357828630484
endloop
endfacet
facet normal -0.8538122743486869 0.5205810217166226 0
outer loop
vertex -1.8363144280644454 55.3427086839252 0
vertex -2.202516086164544 54.742096180723145 0
vertex -1.8363144280644454 55.3427086839252 3.843357828630484
endloop
endfacet
facet normal -0.8538122743486869 0.5205810217166226 0
outer loop
vertex -2.202516086164544 54.742096180723145 0
vertex -2.202516086164544 54.742096180723145 3.843357828630484
vertex -1.8363144280644454 55.3427086839252 3.843357828630484
endloop
endfacet
facet normal -0.8543476042300346 0.5197020022535995 0
outer loop
vertex -2.202516086164544 54.742096180723145 0
vertex -2.7058157054169767 53.914712753194266 0
vertex -2.202516086164544 54.742096180723145 3.843357828630484
endloop
endfacet
facet normal -0.8543476042300346 0.5197020022535995 0
outer loop
vertex -2.7058157054169767 53.914712753194266 0
vertex -2.7058157054169767 53.914712753194266 3.843357828630484
vertex -2.202516086164544 54.742096180723145 3.843357828630484
endloop
endfacet
facet normal -0.7948825510012123 0.6067633229800606 0
outer loop
vertex -2.7058157054169767 53.914712753194266 0
vertex -3.4249426063214883 52.972629730316235 0
vertex -2.7058157054169767 53.914712753194266 3.843357828630484
endloop
endfacet
facet normal -0.7948825510012123 0.6067633229800606 0
outer loop
vertex -3.4249426063214883 52.972629730316235 0
vertex -3.4249426063214883 52.972629730316235 3.843357828630484
vertex -2.7058157054169767 53.914712753194266 3.843357828630484
endloop
endfacet
facet normal -0.8191779363733594 0.573539456845895 0
outer loop
vertex -3.4249426063214883 52.972629730316235 0
vertex -4.00028646094826 52.150874599239195 0
vertex -3.4249426063214883 52.972629730316235 3.843357828630484
endloop
endfacet
facet normal -0.8191779363733594 0.573539456845895 0
outer loop
vertex -4.00028646094826 52.150874599239195 0
vertex -4.00028646094826 52.150874599239195 3.843357828630484
vertex -3.4249426063214883 52.972629730316235 3.843357828630484
endloop
endfacet
facet normal -0.7744127664428794 0.6326806992237762 0
outer loop
vertex -4.00028646094826 52.150874599239195 0
vertex -4.709433004566294 51.28286623841767 0
vertex -4.00028646094826 52.150874599239195 3.843357828630484
endloop
endfacet
facet normal -0.7744127664428794 0.6326806992237762 0
outer loop
vertex -4.709433004566294 51.28286623841767 0
vertex -4.709433004566294 51.28286623841767 3.843357828630484
vertex -4.00028646094826 52.150874599239195 3.843357828630484
endloop
endfacet
facet normal -0.8316728740159817 0.5552659098359968 0
outer loop
vertex -4.709433004566294 51.28286623841767 0
vertex -5.57375571548943 49.988290539932876 0
vertex -4.709433004566294 51.28286623841767 3.843357828630484
endloop
endfacet
facet normal -0.8316728740159817 0.5552659098359968 0
outer loop
vertex -5.57375571548943 49.988290539932876 0
vertex -5.57375571548943 49.988290539932876 3.843357828630484
vertex -4.709433004566294 51.28286623841767 3.843357828630484
endloop
endfacet
facet normal -0.988391369932767 0.15192925933613974 0
outer loop
vertex -5.57375571548943 49.988290539932876 0
vertex -5.677979476497081 49.310252179369414 0
vertex -5.57375571548943 49.988290539932876 3.843357828630484
endloop
endfacet
facet normal -0.988391369932767 0.15192925933613974 0
outer loop
vertex -5.677979476497081 49.310252179369414 0
vertex -5.677979476497081 49.310252179369414 3.843357828630484
vertex -5.57375571548943 49.988290539932876 3.843357828630484
endloop
endfacet
facet normal -0.989814121341553 0.14236574445016398 0
outer loop
vertex -5.677979476497081 49.310252179369414 0
vertex -5.949219371336998 47.42442578748952 0
vertex -5.677979476497081 49.310252179369414 3.843357828630484
endloop
endfacet
facet normal -0.989814121341553 0.14236574445016398 0
outer loop
vertex -5.949219371336998 47.42442578748952 0
vertex -5.949219371336998 47.42442578748952 3.843357828630484
vertex -5.677979476497081 49.310252179369414 3.843357828630484
endloop
endfacet
facet normal -0.9999621875353745 -0.008696177290539129 0
outer loop
vertex -5.949219371336998 47.42442578748952 0
vertex -5.945941532755783 47.04751136537609 0
vertex -5.949219371336998 47.42442578748952 3.843357828630484
endloop
endfacet
facet normal -0.9999621875353745 -0.008696177290539129 0
outer loop
vertex -5.945941532755783 47.04751136537609 0
vertex -5.945941532755783 47.04751136537609 3.843357828630484
vertex -5.949219371336998 47.42442578748952 3.843357828630484
endloop
endfacet
facet normal -0.9915567939231965 0.12967314457801804 0
outer loop
vertex -5.945941532755783 47.04751136537609 0
vertex -6.153953226043795 45.45693215665564 0
vertex -5.945941532755783 47.04751136537609 3.843357828630484
endloop
endfacet
facet normal -0.9915567939231965 0.12967314457801804 0
outer loop
vertex -6.153953226043795 45.45693215665564 0
vertex -6.153953226043795 45.45693215665564 3.843357828630484
vertex -5.945941532755783 47.04751136537609 3.843357828630484
endloop
endfacet
facet normal -0.9841214920618748 -0.17749616576678343 0
outer loop
vertex -6.153953226043795 45.45693215665564 0
vertex -6.067011935483343 44.97488910959311 0
vertex -6.153953226043795 45.45693215665564 3.843357828630484
endloop
endfacet
facet normal -0.9841214920618748 -0.17749616576678343 0
outer loop
vertex -6.067011935483343 44.97488910959311 0
vertex -6.067011935483343 44.97488910959311 3.843357828630484
vertex -6.153953226043795 45.45693215665564 3.843357828630484
endloop
endfacet
facet normal -0.9582508159844323 -0.2859289661177575 0
outer loop
vertex -6.067011935483343 44.97488910959311 0
vertex -5.7784104482149665 44.00768171390957 0
vertex -6.067011935483343 44.97488910959311 3.843357828630484
endloop
endfacet
facet normal -0.9582508159844323 -0.2859289661177575 0
outer loop
vertex -5.7784104482149665 44.00768171390957 0
vertex -5.7784104482149665 44.00768171390957 3.843357828630484
vertex -6.067011935483343 44.97488910959311 3.843357828630484
endloop
endfacet
facet normal -0.9864867729988814 -0.16384091887637048 0
outer loop
vertex -5.7784104482149665 44.00768171390957 0
vertex -5.607314887357209 42.97751471495394 0
vertex -5.7784104482149665 44.00768171390957 3.843357828630484
endloop
endfacet
facet normal -0.9864867729988814 -0.16384091887637048 0
outer loop
vertex -5.607314887357209 42.97751471495394 0
vertex -5.607314887357209 42.97751471495394 3.843357828630484
vertex -5.7784104482149665 44.00768171390957 3.843357828630484
endloop
endfacet
facet normal -0.9612903030407982 -0.2755375714484875 0
outer loop
vertex -5.607314887357209 42.97751471495394 0
vertex -5.390245704939831 42.220207829181994 0
vertex -5.607314887357209 42.97751471495394 3.843357828630484
endloop
endfacet
facet normal -0.9612903030407982 -0.2755375714484875 0
outer loop
vertex -5.390245704939831 42.220207829181994 0
vertex -5.390245704939831 42.220207829181994 3.843357828630484
vertex -5.607314887357209 42.97751471495394 3.843357828630484
endloop
endfacet
facet normal -0.8908226840671865 -0.45435112583918397 0
outer loop
vertex -5.390245704939831 42.220207829181994 0
vertex -5.045941149685165 41.545147747660195 0
vertex -5.390245704939831 42.220207829181994 3.843357828630484
endloop
endfacet
facet normal -0.8908226840671865 -0.45435112583918397 0
outer loop
vertex -5.045941149685165 41.545147747660195 0
vertex -5.045941149685165 41.545147747660195 3.843357828630484
vertex -5.390245704939831 42.220207829181994 3.843357828630484
endloop
endfacet
facet normal -0.8978810582436422 -0.4402381233460788 0
outer loop
vertex -5.045941149685165 41.545147747660195 0
vertex -4.664942816231733 40.76808831393799 0
vertex -5.045941149685165 41.545147747660195 3.843357828630484
endloop
endfacet
facet normal -0.8978810582436422 -0.4402381233460788 0
outer loop
vertex -4.664942816231733 40.76808831393799 0
vertex -4.664942816231733 40.76808831393799 3.843357828630484
vertex -5.045941149685165 41.545147747660195 3.843357828630484
endloop
endfacet
facet normal -0.8044605502537072 -0.5940060800071852 0
outer loop
vertex -4.664942816231733 40.76808831393799 0
vertex -3.9906968270071017 39.85495910911328 0
vertex -4.664942816231733 40.76808831393799 3.843357828630484
endloop
endfacet
facet normal -0.8044605502537072 -0.5940060800071852 0
outer loop
vertex -3.9906968270071017 39.85495910911328 0
vertex -3.9906968270071017 39.85495910911328 3.843357828630484
vertex -4.664942816231733 40.76808831393799 3.843357828630484
endloop
endfacet
facet normal -0.7209012637024913 -0.693037782514165 0
outer loop
vertex -3.9906968270071017 39.85495910911328 0
vertex -3.706982695894222 39.559838293466626 0
vertex -3.9906968270071017 39.85495910911328 3.843357828630484
endloop
endfacet
facet normal -0.7209012637024913 -0.693037782514165 0
outer loop
vertex -3.706982695894222 39.559838293466626 0
vertex -3.706982695894222 39.559838293466626 3.843357828630484
vertex -3.9906968270071017 39.85495910911328 3.843357828630484
endloop
endfacet
facet normal -0.5110585595688107 -0.8595458967917028 0
outer loop
vertex -3.706982695894222 39.559838293466626 0
vertex -2.162054169987844 38.6412730952224 0
vertex -3.706982695894222 39.559838293466626 3.843357828630484
endloop
endfacet
facet normal -0.5110585595688107 -0.8595458967917028 0
outer loop
vertex -2.162054169987844 38.6412730952224 0
vertex -2.162054169987844 38.6412730952224 3.843357828630484
vertex -3.706982695894222 39.559838293466626 3.843357828630484
endloop
endfacet
facet normal -0.5198582256567073 -0.8542525535326542 0
outer loop
vertex -2.162054169987844 38.6412730952224 0
vertex -1.766930667595679 38.40081937691695 0
vertex -2.162054169987844 38.6412730952224 3.843357828630484
endloop
endfacet
facet normal -0.5198582256567073 -0.8542525535326542 0
outer loop
vertex -1.766930667595679 38.40081937691695 0
vertex -1.766930667595679 38.40081937691695 3.843357828630484
vertex -2.162054169987844 38.6412730952224 3.843357828630484
endloop
endfacet
facet normal -0.6677296739766125 -0.7444038436837134 0
outer loop
vertex -1.766930667595679 38.40081937691695 0
vertex -0.7286846251557118 37.46951347715791 0
vertex -1.766930667595679 38.40081937691695 3.843357828630484
endloop
endfacet
facet normal -0.6677296739766125 -0.7444038436837134 0
outer loop
vertex -0.7286846251557118 37.46951347715791 0
vertex -0.7286846251557118 37.46951347715791 3.843357828630484
vertex -1.766930667595679 38.40081937691695 3.843357828630484
endloop
endfacet
facet normal -0.43582613419437277 -0.9000308776665323 0
outer loop
vertex -0.7286846251557118 37.46951347715791 0
vertex 0.9760607607593106 36.64401669725264 0
vertex -0.7286846251557118 37.46951347715791 3.843357828630484
endloop
endfacet
facet normal -0.43582613419437277 -0.9000308776665323 0
outer loop
vertex 0.9760607607593106 36.64401669725264 0
vertex 0.9760607607593106 36.64401669725264 3.843357828630484
vertex -0.7286846251557118 37.46951347715791 3.843357828630484
endloop
endfacet
facet normal -0.4354138116149912 -0.9002304219781204 0
outer loop
vertex 0.9760607607593106 36.64401669725264 0
vertex 1.4609485037601921 36.40949138547581 0
vertex 0.9760607607593106 36.64401669725264 3.843357828630484
endloop
endfacet
facet normal -0.4354138116149912 -0.9002304219781204 0
outer loop
vertex 1.4609485037601921 36.40949138547581 0
vertex 1.4609485037601921 36.40949138547581 3.843357828630484
vertex 0.9760607607593106 36.64401669725264 3.843357828630484
endloop
endfacet
facet normal -0.280947466752615 -0.9597231480616107 0
outer loop
vertex 1.4609485037601921 36.40949138547581 0
vertex 2.8016713533849176 36.01701081544872 0
vertex 1.4609485037601921 36.40949138547581 3.843357828630484
endloop
endfacet
facet normal -0.280947466752615 -0.9597231480616107 0
outer loop
vertex 2.8016713533849176 36.01701081544872 0
vertex 2.8016713533849176 36.01701081544872 3.843357828630484
vertex 1.4609485037601921 36.40949138547581 3.843357828630484
endloop
endfacet
facet normal -0.4296818619972713 -0.902980341685553 0
outer loop
vertex 2.8016713533849176 36.01701081544872 0
vertex 3.427900898734354 35.719020411160216 0
vertex 2.8016713533849176 36.01701081544872 3.843357828630484
endloop
endfacet
facet normal -0.4296818619972713 -0.902980341685553 0
outer loop
vertex 3.427900898734354 35.719020411160216 0
vertex 3.427900898734354 35.719020411160216 3.843357828630484
vertex 2.8016713533849176 36.01701081544872 3.843357828630484
endloop
endfacet
facet normal -0.2591822780524137 -0.9658284251064272 0
outer loop
vertex 3.427900898734354 35.719020411160216 0
vertex 4.4987017525275625 35.43166854056683 0
vertex 3.427900898734354 35.719020411160216 3.843357828630484
endloop
endfacet
facet normal -0.2591822780524137 -0.9658284251064272 0
outer loop
vertex 4.4987017525275625 35.43166854056683 0
vertex 4.4987017525275625 35.43166854056683 3.843357828630484
vertex 3.427900898734354 35.719020411160216 3.843357828630484
endloop
endfacet
facet normal -0.11218672164001552 -0.993687143666288 0
outer loop
vertex 4.4987017525275625 35.43166854056683 0
vertex 5.310976593538408 35.33996316622994 0
vertex 4.4987017525275625 35.43166854056683 3.843357828630484
endloop
endfacet
facet normal -0.11218672164001552 -0.993687143666288 0
outer loop
vertex 5.310976593538408 35.33996316622994 0
vertex 5.310976593538408 35.33996316622994 3.843357828630484
vertex 4.4987017525275625 35.43166854056683 3.843357828630484
endloop
endfacet
facet normal 0.28219614588867187 -0.9593567299214507 0
outer loop
vertex 5.310976593538408 35.33996316622994 0
vertex 7.332020408080428 35.93445607731068 0
vertex 5.310976593538408 35.33996316622994 3.843357828630484
endloop
endfacet
facet normal 0.28219614588867187 -0.9593567299214507 0
outer loop
vertex 7.332020408080428 35.93445607731068 0
vertex 7.332020408080428 35.93445607731068 3.843357828630484
vertex 5.310976593538408 35.33996316622994 3.843357828630484
endloop
endfacet
facet normal 0.24444281424363543 -0.9696637100379962 0
outer loop
vertex 7.332020408080428 35.93445607731068 0
vertex 9.635737771560251 36.51520087545195 0
vertex 7.332020408080428 35.93445607731068 3.843357828630484
endloop
endfacet
facet normal 0.24444281424363543 -0.9696637100379962 0
outer loop
vertex 9.635737771560251 36.51520087545195 0
vertex 9.635737771560251 36.51520087545195 3.843357828630484
vertex 7.332020408080428 35.93445607731068 3.843357828630484
endloop
endfacet
facet normal 0.5312908831246019 -0.8471894696634753 0
outer loop
vertex 9.635737771560251 36.51520087545195 0
vertex 10.8440354468172 37.27295054297281 0
vertex 9.635737771560251 36.51520087545195 3.843357828630484
endloop
endfacet
facet normal 0.5312908831246019 -0.8471894696634753 0
outer loop
vertex 10.8440354468172 37.27295054297281 0
vertex 10.8440354468172 37.27295054297281 3.843357828630484
vertex 9.635737771560251 36.51520087545195 3.843357828630484
endloop
endfacet
facet normal 0.5986403695465297 -0.801017919867711 0
outer loop
vertex 10.8440354468172 37.27295054297281 0
vertex 11.67282612145168 37.892346867866316 0
vertex 10.8440354468172 37.27295054297281 3.843357828630484
endloop
endfacet
facet normal 0.5986403695465297 -0.801017919867711 0
outer loop
vertex 11.67282612145168 37.892346867866316 0
vertex 11.67282612145168 37.892346867866316 3.843357828630484
vertex 10.8440354468172 37.27295054297281 3.843357828630484
endloop
endfacet
facet normal 0.5804332671726804 -0.8143078179406409 0
outer loop
vertex 11.67282612145168 37.892346867866316 0
vertex 12.406641147698572 38.415405401507876 0
vertex 11.67282612145168 37.892346867866316 3.843357828630484
endloop
endfacet
facet normal 0.5804332671726804 -0.8143078179406409 0
outer loop
vertex 12.406641147698572 38.415405401507876 0
vertex 12.406641147698572 38.415405401507876 3.843357828630484
vertex 11.67282612145168 37.892346867866316 3.843357828630484
endloop
endfacet
facet normal 0.6811431652386244 -0.7321502499137101 0
outer loop
vertex 12.406641147698572 38.415405401507876 0
vertex 12.979377744435721 38.948240865807065 0
vertex 12.406641147698572 38.415405401507876 3.843357828630484
endloop
endfacet
facet normal 0.6811431652386244 -0.7321502499137101 0
outer loop
vertex 12.979377744435721 38.948240865807065 0
vertex 12.979377744435721 38.948240865807065 3.843357828630484
vertex 12.406641147698572 38.415405401507876 3.843357828630484
endloop
endfacet
facet normal 0.8610602897508359 -0.5085028784718988 0
outer loop
vertex 12.979377744435721 38.948240865807065 0
vertex 13.396247179828158 39.65413601807436 0
vertex 12.979377744435721 38.948240865807065 3.843357828630484
endloop
endfacet
facet normal 0.8610602897508359 -0.5085028784718988 0
outer loop
vertex 13.396247179828158 39.65413601807436 0
vertex 13.396247179828158 39.65413601807436 3.843357828630484
vertex 12.979377744435721 38.948240865807065 3.843357828630484
endloop
endfacet
facet normal 0.8923906537426312 -0.4512636935460235 0
outer loop
vertex 13.396247179828158 39.65413601807436 0
vertex 14.049131551653382 40.945239024419 0
vertex 13.396247179828158 39.65413601807436 3.843357828630484
endloop
endfacet
facet normal 0.8923906537426312 -0.4512636935460235 0
outer loop
vertex 14.049131551653382 40.945239024419 0
vertex 14.049131551653382 40.945239024419 3.843357828630484
vertex 13.396247179828158 39.65413601807436 3.843357828630484
endloop
endfacet
facet normal 0.8724783368762778 -0.48865279256503186 0
outer loop
vertex 14.049131551653382 40.945239024419 0
vertex 14.327618284868498 41.442470689794774 0
vertex 14.049131551653382 40.945239024419 3.843357828630484
endloop
endfacet
facet normal 0.8724783368762778 -0.48865279256503186 0
outer loop
vertex 14.327618284868498 41.442470689794774 0
vertex 14.327618284868498 41.442470689794774 3.843357828630484
vertex 14.049131551653382 40.945239024419 3.843357828630484
endloop
endfacet
facet normal 0.8613132018586391 -0.5080743728077803 0
outer loop
vertex 14.327618284868498 41.442470689794774 0
vertex 14.638622232454368 41.96970020622466 0
vertex 14.327618284868498 41.442470689794774 3.843357828630484
endloop
endfacet
facet normal 0.8613132018586391 -0.5080743728077803 0
outer loop
vertex 14.638622232454368 41.96970020622466 0
vertex 14.638622232454368 41.96970020622466 3.843357828630484
vertex 14.327618284868498 41.442470689794774 3.843357828630484
endloop
endfacet
facet normal 0.902531572954112 -0.430623687018 0
outer loop
vertex 14.638622232454368 41.96970020622466 0
vertex 15.406067648468513 43.578166575708686 0
vertex 14.638622232454368 41.96970020622466 3.843357828630484
endloop
endfacet
facet normal 0.902531572954112 -0.430623687018 0
outer loop
vertex 15.406067648468513 43.578166575708686 0
vertex 15.406067648468513 43.578166575708686 3.843357828630484
vertex 14.638622232454368 41.96970020622466 3.843357828630484
endloop
endfacet
facet normal 0.9397704670964149 -0.3418061865639446 0
outer loop
vertex 15.406067648468513 43.578166575708686 0
vertex 15.600488692097532 44.11271264938086 0
vertex 15.406067648468513 43.578166575708686 3.843357828630484
endloop
endfacet
facet normal 0.9397704670964149 -0.3418061865639446 0
outer loop
vertex 15.600488692097532 44.11271264938086 0
vertex 15.600488692097532 44.11271264938086 3.843357828630484
vertex 15.406067648468513 43.578166575708686 3.843357828630484
endloop
endfacet
facet normal 0.9473236827915161 -0.32027775449181434 0
outer loop
vertex 15.600488692097532 44.11271264938086 0
vertex 16.114425216619097 45.63284395510751 0
vertex 15.600488692097532 44.11271264938086 3.843357828630484
endloop
endfacet
facet normal 0.9473236827915161 -0.32027775449181434 0
outer loop
vertex 16.114425216619097 45.63284395510751 0
vertex 16.114425216619097 45.63284395510751 3.843357828630484
vertex 15.600488692097532 44.11271264938086 3.843357828630484
endloop
endfacet
facet normal 0.9668824393140626 -0.25522215528062664 0
outer loop
vertex 16.114425216619097 45.63284395510751 0
vertex 16.25711049611116 46.17339221173438 0
vertex 16.114425216619097 45.63284395510751 3.843357828630484
endloop
endfacet
facet normal 0.9668824393140626 -0.25522215528062664 0
outer loop
vertex 16.25711049611116 46.17339221173438 0
vertex 16.25711049611116 46.17339221173438 3.843357828630484
vertex 16.114425216619097 45.63284395510751 3.843357828630484
endloop
endfacet
facet normal 0.993555919713168 -0.11334299450306075 0
outer loop
vertex 16.25711049611116 46.17339221173438 0
vertex 16.319400416793943 46.71942083665457 0
vertex 16.25711049611116 46.17339221173438 3.843357828630484
endloop
endfacet
facet normal 0.993555919713168 -0.11334299450306075 0
outer loop
vertex 16.319400416793943 46.71942083665457 0
vertex 16.319400416793943 46.71942083665457 3.843357828630484
vertex 16.25711049611116 46.17339221173438 3.843357828630484
endloop
endfacet
facet normal 0.9914625514303202 -0.13039175246648038 0
outer loop
vertex 16.319400416793943 46.71942083665457 0
vertex 16.52318399765325 48.26893440017779 0
vertex 16.319400416793943 46.71942083665457 3.843357828630484
endloop
endfacet
facet normal 0.9914625514303202 -0.13039175246648038 0
outer loop
vertex 16.52318399765325 48.26893440017779 0
vertex 16.52318399765325 48.26893440017779 3.843357828630484
vertex 16.319400416793943 46.71942083665457 3.843357828630484
endloop
endfacet
facet normal 0.9935184842997201 -0.11367067060058539 0
outer loop
vertex 16.52318399765325 48.26893440017779 0
vertex 16.58156425619953 48.779196771970554 0
vertex 16.52318399765325 48.26893440017779 3.843357828630484
endloop
endfacet
facet normal 0.9935184842997201 -0.11367067060058539 0
outer loop
vertex 16.58156425619953 48.779196771970554 0
vertex 16.58156425619953 48.779196771970554 3.843357828630484
vertex 16.52318399765325 48.26893440017779 3.843357828630484
endloop
endfacet
facet normal 0.9972832843443199 0.0736617320418575 0
outer loop
vertex 16.58156425619953 48.779196771970554 0
vertex 16.49487748305772 49.95282203751482 0
vertex 16.58156425619953 48.779196771970554 3.843357828630484
endloop
endfacet
facet normal 0.9972832843443199 0.0736617320418575 0
outer loop
vertex 16.49487748305772 49.95282203751482 0
vertex 16.49487748305772 49.95282203751482 3.843357828630484
vertex 16.58156425619953 48.779196771970554 3.843357828630484
endloop
endfacet
facet normal 0.9987102481380359 -0.05077243606586928 0
outer loop
vertex 16.49487748305772 49.95282203751482 0
vertex 16.51949087824309 50.436975486075156 0
vertex 16.49487748305772 49.95282203751482 3.843357828630484
endloop
endfacet
facet normal 0.9987102481380359 -0.05077243606586928 0
outer loop
vertex 16.51949087824309 50.436975486075156 0
vertex 16.51949087824309 50.436975486075156 3.843357828630484
vertex 16.49487748305772 49.95282203751482 3.843357828630484
endloop
endfacet
facet normal 0.9786911332879793 0.20533793030877392 0
outer loop
vertex 16.51949087824309 50.436975486075156 0
vertex 16.35485409522501 51.22167493011141 0
vertex 16.51949087824309 50.436975486075156 3.843357828630484
endloop
endfacet
facet normal 0.9786911332879793 0.20533793030877392 0
outer loop
vertex 16.35485409522501 51.22167493011141 0
vertex 16.35485409522501 51.22167493011141 3.843357828630484
vertex 16.51949087824309 50.436975486075156 3.843357828630484
endloop
endfacet
facet normal 0.9223234031298924 0.38641886604938674 0
outer loop
vertex 16.35485409522501 51.22167493011141 0
vertex 15.978633195021727 52.119657330794034 0
vertex 16.35485409522501 51.22167493011141 3.843357828630484
endloop
endfacet
facet normal 0.9223234031298924 0.38641886604938674 0
outer loop
vertex 15.978633195021727 52.119657330794034 0
vertex 15.978633195021727 52.119657330794034 3.843357828630484
vertex 16.35485409522501 51.22167493011141 3.843357828630484
endloop
endfacet
facet normal 0.9639175479302687 0.2662009781952313 0
outer loop
vertex 15.978633195021727 52.119657330794034 0
vertex 15.750264218818117 52.946584658627096 0
vertex 15.978633195021727 52.119657330794034 3.843357828630484
endloop
endfacet
facet normal 0.9639175479302687 0.2662009781952313 0
outer loop
vertex 15.750264218818117 52.946584658627096 0
vertex 15.750264218818117 52.946584658627096 3.843357828630484
vertex 15.978633195021727 52.119657330794034 3.843357828630484
endloop
endfacet
facet normal 0.9907676345315001 0.13557099381820417 0
outer loop
vertex 15.750264218818117 52.946584658627096 0
vertex 15.608297393968135 53.98409372511059 0
vertex 15.750264218818117 52.946584658627096 3.843357828630484
endloop
endfacet
facet normal 0.9907676345315001 0.13557099381820417 0
outer loop
vertex 15.608297393968135 53.98409372511059 0
vertex 15.608297393968135 53.98409372511059 3.843357828630484
vertex 15.750264218818117 52.946584658627096 3.843357828630484
endloop
endfacet
facet normal 0.8299410195591963 0.5578511486526149 0
outer loop
vertex 15.608297393968135 53.98409372511059 0
vertex 14.796499924127891 55.1918424613498 0
vertex 15.608297393968135 53.98409372511059 3.843357828630484
endloop
endfacet
facet normal 0.8299410195591963 0.5578511486526149 0
outer loop
vertex 14.796499924127891 55.1918424613498 0
vertex 14.796499924127891 55.1918424613498 3.843357828630484
vertex 15.608297393968135 53.98409372511059 3.843357828630484
endloop
endfacet
facet normal 0.9114029209243224 0.4115151464170099 0
outer loop
vertex 14.796499924127891 55.1918424613498 0
vertex 14.445535934464958 55.969139744580076 0
vertex 14.796499924127891 55.1918424613498 3.843357828630484
endloop
endfacet
facet normal 0.9114029209243224 0.4115151464170099 0
outer loop
vertex 14.445535934464958 55.969139744580076 0
vertex 14.445535934464958 55.969139744580076 3.843357828630484
vertex 14.796499924127891 55.1918424613498 3.843357828630484
endloop
endfacet
facet normal 0.9124505169443473 0.40918706495684 0
outer loop
vertex 14.445535934464958 55.969139744580076 0
vertex 14.15082578369296 56.626316992959175 0
vertex 14.445535934464958 55.969139744580076 3.843357828630484
endloop
endfacet
facet normal 0.9124505169443473 0.40918706495684 0
outer loop
vertex 14.15082578369296 56.626316992959175 0
vertex 14.15082578369296 56.626316992959175 3.843357828630484
vertex 14.445535934464958 55.969139744580076 3.843357828630484
endloop
endfacet
facet normal 0.736656900439261 0.6762666715395788 0
outer loop
vertex 14.15082578369296 56.626316992959175 0
vertex 13.439488961890339 57.401175788121265 0
vertex 14.15082578369296 56.626316992959175 3.843357828630484
endloop
endfacet
facet normal 0.736656900439261 0.6762666715395788 0
outer loop
vertex 13.439488961890339 57.401175788121265 0
vertex 13.439488961890339 57.401175788121265 3.843357828630484
vertex 14.15082578369296 56.626316992959175 3.843357828630484
endloop
endfacet
facet normal 0.7530212740255764 0.6579961708588417 0
outer loop
vertex 13.439488961890339 57.401175788121265 0
vertex 13.118937761998046 57.76801967509748 0
vertex 13.439488961890339 57.401175788121265 3.843357828630484
endloop
endfacet
facet normal 0.7530212740255764 0.6579961708588417 0
outer loop
vertex 13.118937761998046 57.76801967509748 0
vertex 13.118937761998046 57.76801967509748 3.843357828630484
vertex 13.439488961890339 57.401175788121265 3.843357828630484
endloop
endfacet
facet normal 0.8220033847677758 0.56948260327276 0
outer loop
vertex 13.118937761998046 57.76801967509748 0
vertex 12.855488821179948 58.1482875179103 0
vertex 13.118937761998046 57.76801967509748 3.843357828630484
endloop
endfacet
facet normal 0.8220033847677758 0.56948260327276 0
outer loop
vertex 12.855488821179948 58.1482875179103 0
vertex 12.855488821179948 58.1482875179103 3.843357828630484
vertex 13.118937761998046 57.76801967509748 3.843357828630484
endloop
endfacet
facet normal 0.6562625815195218 0.7545325865046075 0
outer loop
vertex 12.855488821179948 58.1482875179103 0
vertex 11.896174471582873 58.98266117229647 0
vertex 12.855488821179948 58.1482875179103 3.843357828630484
endloop
endfacet
facet normal 0.6562625815195218 0.7545325865046075 0
outer loop
vertex 11.896174471582873 58.98266117229647 0
vertex 11.896174471582873 58.98266117229647 3.843357828630484
vertex 12.855488821179948 58.1482875179103 3.843357828630484
endloop
endfacet
facet normal 0.4805478753306586 0.8769684940265471 0
outer loop
vertex 11.896174471582873 58.98266117229647 0
vertex 10.771440942510356 59.59897556829869 0
vertex 11.896174471582873 58.98266117229647 3.843357828630484
endloop
endfacet
facet normal 0.4805478753306586 0.8769684940265471 0
outer loop
vertex 10.771440942510356 59.59897556829869 0
vertex 10.771440942510356 59.59897556829869 3.843357828630484
vertex 11.896174471582873 58.98266117229647 3.843357828630484
endloop
endfacet
facet normal 0.3906684529730332 0.9205314551125653 0
outer loop
vertex 10.771440942510356 59.59897556829869 0
vertex 10.193083861427489 59.84442711140214 0
vertex 10.771440942510356 59.59897556829869 3.843357828630484
endloop
endfacet
facet normal 0.3906684529730332 0.9205314551125653 0
outer loop
vertex 10.193083861427489 59.84442711140214 0
vertex 10.193083861427489 59.84442711140214 3.843357828630484
vertex 10.771440942510356 59.59897556829869 3.843357828630484
endloop
endfacet
facet normal 0.21460747463669652 0.9767003797634459 0
outer loop
vertex 10.193083861427489 59.84442711140214 0
vertex 8.78548838662018 60.153713885951774 0
vertex 10.193083861427489 59.84442711140214 3.843357828630484
endloop
endfacet
facet normal 0.21460747463669652 0.9767003797634459 0
outer loop
vertex 8.78548838662018 60.153713885951774 0
vertex 8.78548838662018 60.153713885951774 3.843357828630484
vertex 10.193083861427489 59.84442711140214 3.843357828630484
endloop
endfacet
facet normal -0.09615445438473703 0.9953664254444057 0
outer loop
vertex 8.78548838662018 60.153713885951774 0
vertex 8.30236116847367 60.107042797926525 0
vertex 8.78548838662018 60.153713885951774 3.843357828630484
endloop
endfacet
facet normal -0.09615445438473703 0.9953664254444057 0
outer loop
vertex 8.30236116847367 60.107042797926525 0
vertex 8.30236116847367 60.107042797926525 3.843357828630484
vertex 8.78548838662018 60.153713885951774 3.843357828630484
endloop
endfacet
facet normal 0.030669271526655162 0.9995295872479335 0
outer loop
vertex 8.30236116847367 60.107042797926525 0
vertex 6.829639876532326 60.15223134438066 0
vertex 8.30236116847367 60.107042797926525 3.843357828630484
endloop
endfacet
facet normal 0.030669271526655162 0.9995295872479335 0
outer loop
vertex 6.829639876532326 60.15223134438066 0
vertex 6.829639876532326 60.15223134438066 3.843357828630484
vertex 8.30236116847367 60.107042797926525 3.843357828630484
endloop
endfacet
facet normal -0.1493796202949504 0.9887799194161138 0
outer loop
vertex 6.829639876532326 60.15223134438066 0
vertex 6.231535085587902 60.06187284820425 0
vertex 6.829639876532326 60.15223134438066 3.843357828630484
endloop
endfacet
facet normal -0.1493796202949504 0.9887799194161138 0
outer loop
vertex 6.231535085587902 60.06187284820425 0
vertex 6.231535085587902 60.06187284820425 3.843357828630484
vertex 6.829639876532326 60.15223134438066 3.843357828630484
endloop
endfacet
facet normal -0.20474514071696326 0.9788153183071825 0
outer loop
vertex 6.231535085587902 60.06187284820425 0
vertex 4.966129432169657 59.79717975061232 0
vertex 6.231535085587902 60.06187284820425 3.843357828630484
endloop
endfacet
facet normal -0.20474514071696326 0.9788153183071825 0
outer loop
vertex 4.966129432169657 59.79717975061232 0
vertex 4.966129432169657 59.79717975061232 3.843357828630484
vertex 6.231535085587902 60.06187284820425 3.843357828630484
endloop
endfacet
facet normal -0.2700754635993479 0.9628391578875453 0
outer loop
vertex 4.966129432169657 59.79717975061232 0
vertex 3.8246514403984824 59.476996264834256 0
vertex 4.966129432169657 59.79717975061232 3.843357828630484
endloop
endfacet
facet normal -0.2700754635993479 0.9628391578875453 0
outer loop
vertex 3.8246514403984824 59.476996264834256 0
vertex 3.8246514403984824 59.476996264834256 3.843357828630484
vertex 4.966129432169657 59.79717975061232 3.843357828630484
endloop
endfacet
facet normal -0.28246086157198225 0.959278823742093 0
outer loop
vertex 3.8246514403984824 59.476996264834256 0
vertex 3.0346515887293797 59.24437981045062 0
vertex 3.8246514403984824 59.476996264834256 3.843357828630484
endloop
endfacet
facet normal -0.28246086157198225 0.959278823742093 0
outer loop
vertex 3.0346515887293797 59.24437981045062 0
vertex 3.0346515887293797 59.24437981045062 3.843357828630484
vertex 3.8246514403984824 59.476996264834256 3.843357828630484
endloop
endfacet
facet normal -0.4181295141025586 0.9083874225441249 0
outer loop
vertex 3.0346515887293797 59.24437981045062 0
vertex 1.648921360722613 58.606530042241666 0
vertex 3.0346515887293797 59.24437981045062 3.843357828630484
endloop
endfacet
facet normal -0.4181295141025586 0.9083874225441249 0
outer loop
vertex 1.648921360722613 58.606530042241666 0
vertex 1.648921360722613 58.606530042241666 3.843357828630484
vertex 3.0346515887293797 59.24437981045062 3.843357828630484
endloop
endfacet
facet normal -0.39830579947575806 0.9172526860707345 0
outer loop
vertex 1.648921360722613 58.606530042241666 0
vertex 0.9054391528529584 58.28368195501493 0
vertex 1.648921360722613 58.606530042241666 3.843357828630484
endloop
endfacet
facet normal -0.39830579947575806 0.9172526860707345 0
outer loop
vertex 0.9054391528529584 58.28368195501493 0
vertex 0.9054391528529584 58.28368195501493 3.843357828630484
vertex 1.648921360722613 58.606530042241666 3.843357828630484
endloop
endfacet
facet normal 0 0 1
outer loop
vertex 2.3684590439600615 40.99152859591906 3.843357828630484
vertex 3.8229024347458496 38.81426466179764 3.843357828630484
vertex 5.041700492843429 41.39381636056226 3.843357828630484
endloop
endfacet
facet normal 0 0 1
outer loop
vertex 3.8246514403984824 59.476996264834256 3.843357828630484
vertex 1.648921360722613 58.606530042241666 3.843357828630484
vertex 2.2688821821562226 56.855668901099 3.843357828630484
endloop
endfacet
facet normal 0 0 1
outer loop
vertex 12.485127118860266 54.089257239561825 3.843357828630484
vertex 14.796499924127891 55.1918424613498 3.843357828630484
vertex 13.439488961890339 57.401175788121265 3.843357828630484
endloop
endfacet
facet normal 0 0 1
outer loop
vertex 15.978633195021727 52.119657330794034 3.843357828630484
vertex 14.796499924127891 55.1918424613498 3.843357828630484
vertex 12.485127118860266 54.089257239561825 3.843357828630484
endloop
endfacet
facet normal 0 0 1
outer loop
vertex 14.872634726429867 49.528305368415474 3.843357828630484
vertex 16.49487748305772 49.95282203751482 3.843357828630484
vertex 15.978633195021727 52.119657330794034 3.843357828630484
endloop
endfacet
facet normal 0 0 1
outer loop
vertex 16.319400416793943 46.71942083665457 3.843357828630484
vertex 16.49487748305772 49.95282203751482 3.843357828630484
vertex 14.872634726429867 49.528305368415474 3.843357828630484
endloop
endfacet
facet normal 0 0 0.9999999999999999
outer loop
vertex 12.624474604692715 47.85489482277237 3.843357828630484
vertex 16.319400416793943 46.71942083665457 3.843357828630484
vertex 14.872634726429867 49.528305368415474 3.843357828630484
endloop
endfacet
facet normal 0 0 1
outer loop
vertex 6.443933225173482 38.87926938760508 3.843357828630484
vertex 7.332020408080428 35.93445607731068 3.843357828630484
vertex 9.235222168055246 38.645198788109546 3.843357828630484
endloop
endfacet
facet normal 0 0 1
outer loop
vertex 3.8229024347458496 38.81426466179764 3.843357828630484
vertex 6.443933225173482 38.87926938760508 3.843357828630484
vertex 5.041700492843429 41.39381636056226 3.843357828630484
endloop
endfacet
facet normal 0 0 1
outer loop
vertex 9.235222168055246 38.645198788109546 3.843357828630484
vertex 10.8440354468172 37.27295054297281 3.843357828630484
vertex 11.67282612145168 37.892346867866316 3.843357828630484
endloop
endfacet
facet normal 0 0 1
outer loop
vertex 7.332020408080428 35.93445607731068 3.843357828630484
vertex 10.8440354468172 37.27295054297281 3.843357828630484
vertex 9.235222168055246 38.645198788109546 3.843357828630484
endloop
endfacet
facet normal 0 0 0.9999999999999999
outer loop
vertex 4.98260868389074 37.01353380333016 3.843357828630484
vertex 4.4987017525275625 35.43166854056683 3.843357828630484
vertex 7.332020408080428 35.93445607731068 3.843357828630484
endloop
endfacet
facet normal 0 0 0.9999999999999999
outer loop
vertex 2.8016713533849176 36.01701081544872 3.843357828630484
vertex 4.4987017525275625 35.43166854056683 3.843357828630484
vertex 4.98260868389074 37.01353380333016 3.843357828630484
endloop
endfacet
facet normal 0 0 1
outer loop
vertex 3.8229024347458496 38.81426466179764 3.843357828630484
vertex 2.8016713533849176 36.01701081544872 3.843357828630484
vertex 4.98260868389074 37.01353380333016 3.843357828630484
endloop
endfacet
facet normal 0 0 1
outer loop
vertex 0.4496078528514326 50.77652505798129 3.843357828630484
vertex -2.9469866612925397 50.83145359055319 3.843357828630484
vertex -1.5797505303575075 48.55887980348827 3.843357828630484
endloop
endfacet
facet normal 0 0 1
outer loop
vertex 7.414747620662301 55.67240062910793 3.843357828630484
vertex 4.567802174513352 54.81958957779353 3.843357828630484
vertex 6.834529852327785 52.93117908167024 3.843357828630484
endloop
endfacet
facet normal 0 0 1
outer loop
vertex 7.414747620662301 55.67240062910793 3.843357828630484
vertex 6.834529852327785 52.93117908167024 3.843357828630484
vertex 9.410960067394328 53.91156166960397 3.843357828630484
endloop
endfacet
facet normal 0 0 0.9999999999999999
outer loop
vertex -2.2738036031618587 45.87842659751718 3.843357828630484
vertex -2.244867005195009 42.77117707129288 3.843357828630484
vertex 1.1172589618553102 43.77890377028364 3.843357828630484
endloop
endfacet
facet normal 0 0 0.9999999999999999
outer loop
vertex -2.2738036031618587 45.87842659751718 3.843357828630484
vertex 1.1172589618553102 43.77890377028364 3.843357828630484
vertex 0.6203373971947672 46.993082992761686 3.843357828630484
endloop
endfacet
facet normal 0 0 0.9999999999999999
outer loop
vertex 13.417030985891856 44.62303050427893 3.843357828630484
vertex 16.319400416793943 46.71942083665457 3.843357828630484
vertex 12.624474604692715 47.85489482277237 3.843357828630484
endloop
endfacet
facet normal 0 0 1
outer loop
vertex 13.417030985891856 44.62303050427893 3.843357828630484
vertex 12.624474604692715 47.85489482277237 3.843357828630484
vertex 10.939167296610941 45.58069973040965 3.843357828630484
endloop
endfacet
facet normal 0 0 0.9999999999999999
outer loop
vertex 8.0025184358258 44.83091719490254 3.7937129512639727
vertex 8.174283696030527 41.45368216361595 3.843357828630484
vertex 10.952269521277874 42.989651039639405 3.843357828630484
endloop
endfacet
facet normal 0 0 1
outer loop
vertex 10.939167296610941 45.58069973040965 3.843357828630484
vertex 8.0025184358258 44.83091719490254 3.7937129512639727
vertex 10.952269521277874 42.989651039639405 3.843357828630484
endloop
endfacet
facet normal 0 0 1
outer loop
vertex 12.485127118860266 54.089257239561825 3.843357828630484
vertex 13.439488961890339 57.401175788121265 3.843357828630484
vertex 10.110125041412143 56.83774470307252 3.843357828630484
endloop
endfacet
facet normal 0 0 1
outer loop
vertex 9.410960067394328 53.91156166960397 3.843357828630484
vertex 12.485127118860266 54.089257239561825 3.843357828630484
vertex 10.110125041412143 56.83774470307252 3.843357828630484
endloop
endfacet
facet normal 0 0 1
outer loop
vertex 5.771672223151091 57.814781440072615 3.843357828630484
vertex 3.8246514403984824 59.476996264834256 3.843357828630484
vertex 2.2688821821562226 56.855668901099 3.843357828630484
endloop
endfacet
facet normal 0 0 1
outer loop
vertex 5.771672223151091 57.814781440072615 3.843357828630484
vertex 2.2688821821562226 56.855668901099 3.843357828630484
vertex 4.567802174513352 54.81958957779353 3.843357828630484
endloop
endfacet
facet normal 0 0 0.9999999999999999
outer loop
vertex 1.1172589618553102 43.77890377028364 3.843357828630484
vertex -0.3178870991438957 40.809770166850456 3.843357828630484
vertex 2.3684590439600615 40.99152859591906 3.843357828630484
endloop
endfacet
facet normal 0 0 0.9999999999999999
outer loop
vertex -2.244867005195009 42.77117707129288 3.843357828630484
vertex -0.3178870991438957 40.809770166850456 3.843357828630484
vertex 1.1172589618553102 43.77890377028364 3.843357828630484
endloop
endfacet
facet normal 0 0 1
outer loop
vertex 1.3070221483285405 38.60654560625347 3.843357828630484
vertex 2.8016713533849176 36.01701081544872 3.843357828630484
vertex 3.8229024347458496 38.81426466179764 3.843357828630484
endloop
endfacet
facet normal 0 0 1
outer loop
vertex 1.3070221483285405 38.60654560625347 3.843357828630484
vertex 3.8229024347458496 38.81426466179764 3.843357828630484
vertex 2.3684590439600615 40.99152859591906 3.843357828630484
endloop
endfacet
facet normal 0 0 1
outer loop
vertex -4.270203012102407 44.25650647709104 3.843357828630484
vertex -5.7784104482149665 44.00768171390957 3.843357828630484
vertex -5.045941149685165 41.545147747660195 3.843357828630484
endloop
endfacet
facet normal 0 0 1
outer loop
vertex -5.945941532755783 47.04751136537609 3.843357828630484
vertex -5.7784104482149665 44.00768171390957 3.843357828630484
vertex -4.270203012102407 44.25650647709104 3.843357828630484
endloop
endfacet
facet normal 0 0 1
outer loop
vertex -4.270203012102407 44.25650647709104 3.843357828630484
vertex -5.045941149685165 41.545147747660195 3.843357828630484
vertex -2.244867005195009 42.77117707129288 3.843357828630484
endloop
endfacet
facet normal 0 0 1
outer loop
vertex 4.567802174513352 54.81958957779353 3.843357828630484
vertex 3.8460141944376756 51.786791692183876 3.843357828630484
vertex 6.834529852327785 52.93117908167024 3.843357828630484
endloop
endfacet
facet normal 0 0 0.9999999999999999
outer loop
vertex 4.646091705031702 44.06432599736714 3.8214273574864537
vertex 1.1172589618553102 43.77890377028364 3.843357828630484
vertex 3.2864077090076718 42.56245237815094 3.843357828630484
endloop
endfacet
facet normal 0 0 0.9999999999999999
outer loop
vertex 4.646091705031702 44.06432599736714 3.8214273574864537
vertex 3.2864077090076718 42.56245237815094 3.843357828630484
vertex 5.041700492843429 41.39381636056226 3.843357828630484
endloop
endfacet
facet normal 0 0 0.9999999999999999
outer loop
vertex 3.2864077090076718 42.56245237815094 3.843357828630484
vertex 2.3684590439600615 40.99152859591906 3.843357828630484
vertex 5.041700492843429 41.39381636056226 3.843357828630484
endloop
endfacet
facet normal 0 0 0.9999999999999999
outer loop
vertex 1.1172589618553102 43.77890377028364 3.843357828630484
vertex 2.3684590439600615 40.99152859591906 3.843357828630484
vertex 3.2864077090076718 42.56245237815094 3.843357828630484
endloop
endfacet
facet normal 0 0 1
outer loop
vertex 10.280105376885949 49.97576303468948 3.843357828630484
vertex 6.930811854525433 49.58843900754804 3.7516064116468133
vertex 9.438251154283266 47.52015590768063 3.796240819532894
endloop
endfacet
facet normal 0 0 1
outer loop
vertex 9.438251154283266 47.52015590768063 3.796240819532894
vertex 8.0025184358258 44.83091719490254 3.7937129512639727
vertex 10.939167296610941 45.58069973040965 3.843357828630484
endloop
endfacet
facet normal 0 0 1
outer loop
vertex 4.567802174513352 54.81958957779353 3.843357828630484
vertex 2.2688821821562226 56.855668901099 3.843357828630484
vertex 1.3662570781191676 53.74969363938079 3.843357828630484
endloop
endfacet
facet normal 0 0 0.9999999999999999
outer loop
vertex 2.973896114788481 46.08411992147984 3.8187744087112634
vertex 1.1172589618553102 43.77890377028364 3.843357828630484
vertex 4.646091705031702 44.06432599736714 3.8214273574864537
endloop
endfacet
facet normal 0 0 0.9999999999999999
outer loop
vertex 0.6203373971947672 46.993082992761686 3.843357828630484
vertex 1.1172589618553102 43.77890377028364 3.843357828630484
vertex 2.973896114788481 46.08411992147984 3.8187744087112634
endloop
endfacet
facet normal 0 0 1
outer loop
vertex 10.845259906929385 40.39717968201473 3.843357828630484
vertex 11.67282612145168 37.892346867866316 3.843357828630484
vertex 14.049131551653382 40.945239024419 3.843357828630484
endloop
endfacet
facet normal 0 0 1
outer loop
vertex 9.235222168055246 38.645198788109546 3.843357828630484
vertex 11.67282612145168 37.892346867866316 3.843357828630484
vertex 10.845259906929385 40.39717968201473 3.843357828630484
endloop
endfacet
facet normal 0 0 1
outer loop
vertex 8.174283696030527 41.45368216361595 3.843357828630484
vertex 9.235222168055246 38.645198788109546 3.843357828630484
vertex 10.845259906929385 40.39717968201473 3.843357828630484
endloop
endfacet
facet normal 0 0 0.9999999999999999
outer loop
vertex 5.529479943051253 46.76184120948805 3.7194954775511775
vertex 4.646091705031702 44.06432599736714 3.8214273574864537
vertex 8.0025184358258 44.83091719490254 3.7937129512639727
endloop
endfacet
facet normal 0 0 1
outer loop
vertex 6.930811854525433 49.58843900754804 3.7516064116468133
vertex 2.9881504835249553 48.707285821273196 3.8390259388172074
vertex 5.529479943051253 46.76184120948805 3.7194954775511775
endloop
endfacet
facet normal 0 0 0.9999999999999999
outer loop
vertex -2.9469866612925397 50.83145359055319 3.843357828630484
vertex -4.00028646094826 52.150874599239195 3.843357828630484
vertex -5.57375571548943 49.988290539932876 3.843357828630484
endloop
endfacet
facet normal 0 0 0.9999999999999999
outer loop
vertex -2.7058157054169767 53.914712753194266 3.843357828630484
vertex -4.00028646094826 52.150874599239195 3.843357828630484
vertex -2.9469866612925397 50.83145359055319 3.843357828630484
endloop
endfacet
facet normal 0 0 1
outer loop
vertex 2.2688821821562226 56.855668901099 3.843357828630484
vertex 0.6090514952458437 58.10509137958192 3.843357828630484
vertex -1.8363144280644454 55.3427086839252 3.843357828630484
endloop
endfacet
facet normal 0 0 1
outer loop
vertex 1.648921360722613 58.606530042241666 3.843357828630484
vertex 0.6090514952458437 58.10509137958192 3.843357828630484
vertex 2.2688821821562226 56.855668901099 3.843357828630484
endloop
endfacet
facet normal 0 0 0.9999999999999999
outer loop
vertex 4.646091705031702 44.06432599736714 3.8214273574864537
vertex 5.041700492843429 41.39381636056226 3.843357828630484
vertex 6.491284675260031 42.950311214017965 3.837710061626556
endloop
endfacet
facet normal 0 0 0.9999999999999999
outer loop
vertex 4.646091705031702 44.06432599736714 3.8214273574864537
vertex 6.491284675260031 42.950311214017965 3.837710061626556
vertex 8.0025184358258 44.83091719490254 3.7937129512639727
endloop
endfacet
facet normal 0 0 0.9999999999999999
outer loop
vertex 8.0025184358258 44.83091719490254 3.7937129512639727
vertex 6.491284675260031 42.950311214017965 3.837710061626556
vertex 8.174283696030527 41.45368216361595 3.843357828630484
endloop
endfacet
facet normal 0 0 0.9999999999999999
outer loop
vertex 6.491284675260031 42.950311214017965 3.837710061626556
vertex 5.041700492843429 41.39381636056226 3.843357828630484
vertex 8.174283696030527 41.45368216361595 3.843357828630484
endloop
endfacet
facet normal 0 0 1
outer loop
vertex 8.85851006536051 51.720389866935136 3.843357828630484
vertex 6.930811854525433 49.58843900754804 3.7516064116468133
vertex 10.280105376885949 49.97576303468948 3.843357828630484
endloop
endfacet
facet normal 0 0 1
outer loop
vertex 6.834529852327785 52.93117908167024 3.843357828630484
vertex 6.930811854525433 49.58843900754804 3.7516064116468133
vertex 8.85851006536051 51.720389866935136 3.843357828630484
endloop
endfacet
facet normal 0 0 1
outer loop
vertex 9.410960067394328 53.91156166960397 3.843357828630484
vertex 6.834529852327785 52.93117908167024 3.843357828630484
vertex 8.85851006536051 51.720389866935136 3.843357828630484
endloop
endfacet
facet normal 0 0 1
outer loop
vertex 12.624474604692715 47.85489482277237 3.843357828630484
vertex 14.872634726429867 49.528305368415474 3.843357828630484
vertex 12.856476775896159 50.95975962425385 3.843357828630484
endloop
endfacet
facet normal 0 0 1
outer loop
vertex 14.872634726429867 49.528305368415474 3.843357828630484
vertex 15.978633195021727 52.119657330794034 3.843357828630484
vertex 12.856476775896159 50.95975962425385 3.843357828630484
endloop
endfacet
facet normal 0 0 1
outer loop
vertex 10.792161094516644 52.14303945030222 3.843357828630484
vertex 12.856476775896159 50.95975962425385 3.843357828630484
vertex 12.485127118860266 54.089257239561825 3.843357828630484
endloop
endfacet
facet normal 0 0 1
outer loop
vertex 10.280105376885949 49.97576303468948 3.843357828630484
vertex 12.856476775896159 50.95975962425385 3.843357828630484
vertex 10.792161094516644 52.14303945030222 3.843357828630484
endloop
endfacet
facet normal 0 0 1
outer loop
vertex 10.792161094516644 52.14303945030222 3.843357828630484
vertex 12.485127118860266 54.089257239561825 3.843357828630484
vertex 9.410960067394328 53.91156166960397 3.843357828630484
endloop
endfacet
facet normal 0 0 1
outer loop
vertex -2.5955887966811253 40.334980781129744 3.843357828630484
vertex -2.162054169987844 38.6412730952224 3.843357828630484
vertex -1.766930667595679 38.40081937691695 3.843357828630484
endloop
endfacet
facet normal 0 0 1
outer loop
vertex -2.244867005195009 42.77117707129288 3.843357828630484
vertex -5.045941149685165 41.545147747660195 3.843357828630484
vertex -2.5955887966811253 40.334980781129744 3.843357828630484
endloop
endfacet
facet normal 0 0 1
outer loop
vertex 12.856476775896159 50.95975962425385 3.843357828630484
vertex 15.978633195021727 52.119657330794034 3.843357828630484
vertex 12.485127118860266 54.089257239561825 3.843357828630484
endloop
endfacet
facet normal 0 0 1
outer loop
vertex 5.041700492843429 41.39381636056226 3.843357828630484
vertex 6.443933225173482 38.87926938760508 3.843357828630484
vertex 8.174283696030527 41.45368216361595 3.843357828630484
endloop
endfacet
facet normal 0 0 1
outer loop
vertex 6.443933225173482 38.87926938760508 3.843357828630484
vertex 9.235222168055246 38.645198788109546 3.843357828630484
vertex 8.174283696030527 41.45368216361595 3.843357828630484
endloop
endfacet
facet normal 0 0 1
outer loop
vertex 12.624474604692715 47.85489482277237 3.843357828630484
vertex 12.856476775896159 50.95975962425385 3.843357828630484
vertex 10.280105376885949 49.97576303468948 3.843357828630484
endloop
endfacet
facet normal 0 0 1
outer loop
vertex 3.8229024347458496 38.81426466179764 3.843357828630484
vertex 4.98260868389074 37.01353380333016 3.843357828630484
vertex 6.443933225173482 38.87926938760508 3.843357828630484
endloop
endfacet
facet normal 0 0 1
outer loop
vertex 4.98260868389074 37.01353380333016 3.843357828630484
vertex 7.332020408080428 35.93445607731068 3.843357828630484
vertex 6.443933225173482 38.87926938760508 3.843357828630484
endloop
endfacet
facet normal 0 0 1
outer loop
vertex 5.771672223151091 57.814781440072615 3.843357828630484
vertex 4.567802174513352 54.81958957779353 3.843357828630484
vertex 7.414747620662301 55.67240062910793 3.843357828630484
endloop
endfacet
facet normal 0 0 1
outer loop
vertex 10.110125041412143 56.83774470307252 3.843357828630484
vertex 7.414747620662301 55.67240062910793 3.843357828630484
vertex 9.410960067394328 53.91156166960397 3.843357828630484
endloop
endfacet
facet normal 0 0 1
outer loop
vertex 13.417030985891856 44.62303050427893 3.843357828630484
vertex 15.406067648468513 43.578166575708686 3.843357828630484
vertex 16.319400416793943 46.71942083665457 3.843357828630484
endloop
endfacet
facet normal 0 0 1
outer loop
vertex 14.049131551653382 40.945239024419 3.843357828630484
vertex 15.406067648468513 43.578166575708686 3.843357828630484
vertex 13.417030985891856 44.62303050427893 3.843357828630484
endloop
endfacet
facet normal 0 0 0.9999999999999999
outer loop
vertex 10.110125041412143 56.83774470307252 3.843357828630484
vertex 11.896174471582873 58.98266117229647 3.843357828630484
vertex 8.30236116847367 60.107042797926525 3.843357828630484
endloop
endfacet
facet normal 0 0 0.9999999999999999
outer loop
vertex 13.439488961890339 57.401175788121265 3.843357828630484
vertex 11.896174471582873 58.98266117229647 3.843357828630484
vertex 10.110125041412143 56.83774470307252 3.843357828630484
endloop
endfacet
facet normal 0 0 1
outer loop
vertex -1.5797505303575075 48.55887980348827 3.843357828630484
vertex -2.2738036031618587 45.87842659751718 3.843357828630484
vertex 0.6203373971947672 46.993082992761686 3.843357828630484
endloop
endfacet
facet normal 0 0 1
outer loop
vertex 10.952269521277874 42.989651039639405 3.843357828630484
vertex 13.417030985891856 44.62303050427893 3.843357828630484
vertex 10.939167296610941 45.58069973040965 3.843357828630484
endloop
endfacet
facet normal 0 0 1
outer loop
vertex 14.049131551653382 40.945239024419 3.843357828630484
vertex 13.417030985891856 44.62303050427893 3.843357828630484
vertex 10.952269521277874 42.989651039639405 3.843357828630484
endloop
endfacet
facet normal 0 0 0.9999999999999999
outer loop
vertex -5.945941532755783 47.04751136537609 3.843357828630484
vertex -4.270203012102407 44.25650647709104 3.843357828630484
vertex -2.2738036031618587 45.87842659751718 3.843357828630484
endloop
endfacet
facet normal 0 0 0.9999999999999999
outer loop
vertex -4.270203012102407 44.25650647709104 3.843357828630484
vertex -2.244867005195009 42.77117707129288 3.843357828630484
vertex -2.2738036031618587 45.87842659751718 3.843357828630484
endloop
endfacet
facet normal 0 0 1
outer loop
vertex -3.911778635437219 48.82467556130468 3.843357828630484
vertex -5.57375571548943 49.988290539932876 3.843357828630484
vertex -5.945941532755783 47.04751136537609 3.843357828630484
endloop
endfacet
facet normal 0 0 1
outer loop
vertex -2.9469866612925397 50.83145359055319 3.843357828630484
vertex -5.57375571548943 49.988290539932876 3.843357828630484
vertex -3.911778635437219 48.82467556130468 3.843357828630484
endloop
endfacet
facet normal 0 0 1
outer loop
vertex -1.5797505303575075 48.55887980348827 3.843357828630484
vertex -2.9469866612925397 50.83145359055319 3.843357828630484
vertex -3.911778635437219 48.82467556130468 3.843357828630484
endloop
endfacet
facet normal 0 0 0.9999999999999999
outer loop
vertex 1.3070221483285405 38.60654560625347 3.843357828630484
vertex 0.9760607607593106 36.64401669725264 3.843357828630484
vertex 2.8016713533849176 36.01701081544872 3.843357828630484
endloop
endfacet
facet normal 0 0 0.9999999999999999
outer loop
vertex -1.766930667595679 38.40081937691695 3.843357828630484
vertex 0.9760607607593106 36.64401669725264 3.843357828630484
vertex 1.3070221483285405 38.60654560625347 3.843357828630484
endloop
endfacet
facet normal 0 0 0.9999999999999999
outer loop
vertex 10.952269521277874 42.989651039639405 3.843357828630484
vertex 8.174283696030527 41.45368216361595 3.843357828630484
vertex 10.845259906929385 40.39717968201473 3.843357828630484
endloop
endfacet
facet normal 0 0 0.9999999999999999
outer loop
vertex 10.952269521277874 42.989651039639405 3.843357828630484
vertex 10.845259906929385 40.39717968201473 3.843357828630484
vertex 14.049131551653382 40.945239024419 3.843357828630484
endloop
endfacet
facet normal 0 0 1
outer loop
vertex 3.8460141944376756 51.786791692183876 3.843357828630484
vertex 1.3662570781191676 53.74969363938079 3.843357828630484
vertex 0.4496078528514326 50.77652505798129 3.843357828630484
endloop
endfacet
facet normal 0 0 1
outer loop
vertex 4.567802174513352 54.81958957779353 3.843357828630484
vertex 1.3662570781191676 53.74969363938079 3.843357828630484
vertex 3.8460141944376756 51.786791692183876 3.843357828630484
endloop
endfacet
facet normal 0 0 1
outer loop
vertex 5.771672223151091 57.814781440072615 3.843357828630484
vertex 6.231535085587902 60.06187284820425 3.843357828630484
vertex 3.8246514403984824 59.476996264834256 3.843357828630484
endloop
endfacet
facet normal 0 0 1
outer loop
vertex 8.30236116847367 60.107042797926525 3.843357828630484
vertex 6.231535085587902 60.06187284820425 3.843357828630484
vertex 5.771672223151091 57.814781440072615 3.843357828630484
endloop
endfacet
facet normal 0 0 1
outer loop
vertex 0.4496078528514326 50.77652505798129 3.843357828630484
vertex 0.5989758036490966 48.79206330593119 3.843357828630484
vertex 2.9881504835249553 48.707285821273196 3.8390259388172074
endloop
endfacet
facet normal 0 0 1
outer loop
vertex 0.5989758036490966 48.79206330593119 3.843357828630484
vertex 0.6203373971947672 46.993082992761686 3.843357828630484
vertex 2.9881504835249553 48.707285821273196 3.8390259388172074
endloop
endfacet
facet normal 0 0 1
outer loop
vertex 0.5989758036490966 48.79206330593119 3.843357828630484
vertex -1.5797505303575075 48.55887980348827 3.843357828630484
vertex 0.6203373971947672 46.993082992761686 3.843357828630484
endloop
endfacet
facet normal 0 0 1
outer loop
vertex 0.4496078528514326 50.77652505798129 3.843357828630484
vertex -1.5797505303575075 48.55887980348827 3.843357828630484
vertex 0.5989758036490966 48.79206330593119 3.843357828630484
endloop
endfacet
facet normal 0 0 0.9999999999999999
outer loop
vertex 0.6203373971947672 46.993082992761686 3.843357828630484
vertex 2.973896114788481 46.08411992147984 3.8187744087112634
vertex 2.9881504835249553 48.707285821273196 3.8390259388172074
endloop
endfacet
facet normal 0 0 1
outer loop
vertex 0.4496078528514326 50.77652505798129 3.843357828630484
vertex -1.0318761815384812 52.80921007543124 3.843357828630484
vertex -2.9469866612925397 50.83145359055319 3.843357828630484
endloop
endfacet
facet normal 0 0 1
outer loop
vertex 1.3662570781191676 53.74969363938079 3.843357828630484
vertex -1.8363144280644454 55.3427086839252 3.843357828630484
vertex -1.0318761815384812 52.80921007543124 3.843357828630484
endloop
endfacet
facet normal 0 0 1
outer loop
vertex 1.3662570781191676 53.74969363938079 3.843357828630484
vertex -1.0318761815384812 52.80921007543124 3.843357828630484
vertex 0.4496078528514326 50.77652505798129 3.843357828630484
endloop
endfacet
facet normal 0 0 0.9999999999999999
outer loop
vertex -2.244867005195009 42.77117707129288 3.843357828630484
vertex -2.5955887966811253 40.334980781129744 3.843357828630484
vertex -0.3178870991438957 40.809770166850456 3.843357828630484
endloop
endfacet
facet normal 0 0 0.9999999999999999
outer loop
vertex -2.5955887966811253 40.334980781129744 3.843357828630484
vertex -1.766930667595679 38.40081937691695 3.843357828630484
vertex -0.3178870991438957 40.809770166850456 3.843357828630484
endloop
endfacet
facet normal 0 0 1
outer loop
vertex 3.8460141944376756 51.786791692183876 3.843357828630484
vertex 0.4496078528514326 50.77652505798129 3.843357828630484
vertex 2.9881504835249553 48.707285821273196 3.8390259388172074
endloop
endfacet
facet normal 0 0 1
outer loop
vertex 6.834529852327785 52.93117908167024 3.843357828630484
vertex 3.8460141944376756 51.786791692183876 3.843357828630484
vertex 6.930811854525433 49.58843900754804 3.7516064116468133
endloop
endfacet
facet normal 0 0 1
outer loop
vertex 3.8460141944376756 51.786791692183876 3.843357828630484
vertex 2.9881504835249553 48.707285821273196 3.8390259388172074
vertex 6.930811854525433 49.58843900754804 3.7516064116468133
endloop
endfacet
facet normal 0 0 1
outer loop
vertex 9.438251154283266 47.52015590768063 3.796240819532894
vertex 12.624474604692715 47.85489482277237 3.843357828630484
vertex 10.280105376885949 49.97576303468948 3.843357828630484
endloop
endfacet
facet normal 0 0 1
outer loop
vertex 10.939167296610941 45.58069973040965 3.843357828630484
vertex 12.624474604692715 47.85489482277237 3.843357828630484
vertex 9.438251154283266 47.52015590768063 3.796240819532894
endloop
endfacet
facet normal 0 0 1
outer loop
vertex 2.2688821821562226 56.855668901099 3.843357828630484
vertex -1.8363144280644454 55.3427086839252 3.843357828630484
vertex 1.3662570781191676 53.74969363938079 3.843357828630484
endloop
endfacet
facet normal 0 0 1
outer loop
vertex -0.3178870991438957 40.809770166850456 3.843357828630484
vertex 1.3070221483285405 38.60654560625347 3.843357828630484
vertex 2.3684590439600615 40.99152859591906 3.843357828630484
endloop
endfacet
facet normal 0 0 1
outer loop
vertex -1.766930667595679 38.40081937691695 3.843357828630484
vertex 1.3070221483285405 38.60654560625347 3.843357828630484
vertex -0.3178870991438957 40.809770166850456 3.843357828630484
endloop
endfacet
facet normal 0 0 1
outer loop
vertex 10.792161094516644 52.14303945030222 3.843357828630484
vertex 8.85851006536051 51.720389866935136 3.843357828630484
vertex 10.280105376885949 49.97576303468948 3.843357828630484
endloop
endfacet
facet normal 0 0 1
outer loop
vertex 9.410960067394328 53.91156166960397 3.843357828630484
vertex 8.85851006536051 51.720389866935136 3.843357828630484
vertex 10.792161094516644 52.14303945030222 3.843357828630484
endloop
endfacet
facet normal 0 0 0.9999999999999999
outer loop
vertex 2.9881504835249553 48.707285821273196 3.8390259388172074
vertex 2.973896114788481 46.08411992147984 3.8187744087112634
vertex 5.529479943051253 46.76184120948805 3.7194954775511775
endloop
endfacet
facet normal 0 0 0.9999999999999999
outer loop
vertex 2.973896114788481 46.08411992147984 3.8187744087112634
vertex 4.646091705031702 44.06432599736714 3.8214273574864537
vertex 5.529479943051253 46.76184120948805 3.7194954775511775
endloop
endfacet
facet normal 0 0 1
outer loop
vertex -2.5955887966811253 40.334980781129744 3.843357828630484
vertex -3.9906968270071017 39.85495910911328 3.843357828630484
vertex -2.162054169987844 38.6412730952224 3.843357828630484
endloop
endfacet
facet normal 0 0 1
outer loop
vertex -5.045941149685165 41.545147747660195 3.843357828630484
vertex -3.9906968270071017 39.85495910911328 3.843357828630484
vertex -2.5955887966811253 40.334980781129744 3.843357828630484
endloop
endfacet
facet normal 0 0 1
outer loop
vertex 8.30236116847367 60.107042797926525 3.843357828630484
vertex 7.885815782316429 57.621497295040854 3.843357828630484
vertex 10.110125041412143 56.83774470307252 3.843357828630484
endloop
endfacet
facet normal 0 0 1
outer loop
vertex 7.885815782316429 57.621497295040854 3.843357828630484
vertex 7.414747620662301 55.67240062910793 3.843357828630484
vertex 10.110125041412143 56.83774470307252 3.843357828630484
endloop
endfacet
facet normal 0 0 1
outer loop
vertex 7.885815782316429 57.621497295040854 3.843357828630484
vertex 5.771672223151091 57.814781440072615 3.843357828630484
vertex 7.414747620662301 55.67240062910793 3.843357828630484
endloop
endfacet
facet normal 0 0 1
outer loop
vertex 8.30236116847367 60.107042797926525 3.843357828630484
vertex 5.771672223151091 57.814781440072615 3.843357828630484
vertex 7.885815782316429 57.621497295040854 3.843357828630484
endloop
endfacet
facet normal 0 0 1
outer loop
vertex -3.4450026412794554 47.60070666674625 3.843357828630484
vertex -3.911778635437219 48.82467556130468 3.843357828630484
vertex -5.945941532755783 47.04751136537609 3.843357828630484
endloop
endfacet
facet normal 0 0 1
outer loop
vertex -1.5797505303575075 48.55887980348827 3.843357828630484
vertex -3.911778635437219 48.82467556130468 3.843357828630484
vertex -3.4450026412794554 47.60070666674625 3.843357828630484
endloop
endfacet
facet normal 0 0 1
outer loop
vertex -1.5797505303575075 48.55887980348827 3.843357828630484
vertex -3.4450026412794554 47.60070666674625 3.843357828630484
vertex -2.2738036031618587 45.87842659751718 3.843357828630484
endloop
endfacet
facet normal 0 0 1
outer loop
vertex -3.4450026412794554 47.60070666674625 3.843357828630484
vertex -5.945941532755783 47.04751136537609 3.843357828630484
vertex -2.2738036031618587 45.87842659751718 3.843357828630484
endloop
endfacet
facet normal 0 0 0.9999999999999999
outer loop
vertex -2.1345916616026 53.23681303180085 3.843357828630484
vertex -2.7058157054169767 53.914712753194266 3.843357828630484
vertex -2.9469866612925397 50.83145359055319 3.843357828630484
endloop
endfacet
facet normal 0 0 0.9999999999999999
outer loop
vertex -1.8363144280644454 55.3427086839252 3.843357828630484
vertex -2.7058157054169767 53.914712753194266 3.843357828630484
vertex -2.1345916616026 53.23681303180085 3.843357828630484
endloop
endfacet
facet normal 0 0 1
outer loop
vertex -1.0318761815384812 52.80921007543124 3.843357828630484
vertex -1.8363144280644454 55.3427086839252 3.843357828630484
vertex -2.1345916616026 53.23681303180085 3.843357828630484
endloop
endfacet
facet normal 0 0 1
outer loop
vertex -1.0318761815384812 52.80921007543124 3.843357828630484
vertex -2.1345916616026 53.23681303180085 3.843357828630484
vertex -2.9469866612925397 50.83145359055319 3.843357828630484
endloop
endfacet
facet normal 0 0 1
outer loop
vertex 7.516695496265035 47.190267375825115 3.724630204257018
vertex 5.529479943051253 46.76184120948805 3.7194954775511775
vertex 8.0025184358258 44.83091719490254 3.7937129512639727
endloop
endfacet
facet normal 0 0 1
outer loop
vertex 6.930811854525433 49.58843900754804 3.7516064116468133
vertex 5.529479943051253 46.76184120948805 3.7194954775511775
vertex 7.516695496265035 47.190267375825115 3.724630204257018
endloop
endfacet
facet normal 0 0 1
outer loop
vertex 9.438251154283266 47.52015590768063 3.796240819532894
vertex 6.930811854525433 49.58843900754804 3.7516064116468133
vertex 7.516695496265035 47.190267375825115 3.724630204257018
endloop
endfacet
facet normal 0 0 1
outer loop
vertex 9.438251154283266 47.52015590768063 3.796240819532894
vertex 7.516695496265035 47.190267375825115 3.724630204257018
vertex 8.0025184358258 44.83091719490254 3.7937129512639727
endloop
endfacet
endsolid insock
