999
DXF generated by GENSOLE
  0
SECTION
  2
HEADER
  0
ENDSEC
  0
SECTION
  2
TABLES
  0
TABLE
  2
LTYPE
  70
1
  0
LTYPE
  2
CONTINUOUS
  3
Solid Line
  72
65
  73
0
  40
0.0
  0
ENDTAB
  0
TABLE
  2
LAYER
  70
1
  0
LAYER
  2
ShapeRegion
  62
7
  6
Continuous
  0
ENDTAB
  0
TABLE
  2
STYLE
  70
0
  0
ENDTAB
  0
TABLE
  2
VIEW
  70
0
  0
ENDTAB
  0
ENDSEC
  0
SECTION
  2
BLOCKS
  0
ENDSEC
  0
SECTION
  2
ENTITIES
  0
LWPOLYLINE
  8
ShapeRegion
  90
381
  70
1
 10
20.52160778327201
 20
261.33402697345497
 30
0.0
 10
20.29150914648578
 20
261.69314172671574
 30
0.0
 10
20.039211583308816
 20
262.2982437452749
 30
0.0
 10
19.41863569609818
 20
263.58032527417464
 30
0.0
 10
18.94293684130574
 20
264.26875983587837
 30
0.0
 10
18.68398630173106
 20
264.69071341088113
 30
0.0
 10
17.587275108820116
 20
266.4620073370987
 30
0.0
 10
17.221712283742633
 20
267.0242597959798
 30
0.0
 10
15.63635990655332
 20
269.9815124287908
 30
0.0
 10
14.303789273946037
 20
272.02187662146855
 30
0.0
 10
13.750076135791826
 20
272.7940815339523
 30
0.0
 10
12.812859697250047
 20
273.6413987070493
 30
0.0
 10
11.77102089819585
 20
274.7391188123831
 30
0.0
 10
11.21424018895706
 20
275.3214752130217
 30
0.0
 10
10.13933837674994
 20
276.639610804418
 30
0.0
 10
9.90588390251862
 20
277.0413492741371
 30
0.0
 10
10.221963390184648
 20
279.9237214897198
 30
0.0
 10
11.30724066630327
 20
281.6413917985143
 30
0.0
 10
11.74650898613262
 20
282.26468085394805
 30
0.0
 10
12.291700580006822
 20
283.35465943127707
 30
0.0
 10
12.858896120050904
 20
284.20354136388374
 30
0.0
 10
13.624482881511314
 20
285.935266352565
 30
0.0
 10
11.76921284689278
 20
286.439795197863
 30
0.0
 10
10.878037764748974
 20
286.092361060901
 30
0.0
 10
9.869106535410888
 20
285.846932055858
 30
0.0
 10
8.079228516126086
 20
285.54481016387416
 30
0.0
 10
6.08199873944825
 20
283.95318945475475
 30
0.0
 10
4.204774880330925
 20
282.5779820108372
 30
0.0
 10
3.841478433864648
 20
282.23710244443487
 30
0.0
 10
3.49144343157891
 20
282.1102642713962
 30
0.0
 10
1.519167084311658
 20
281.03800561735954
 30
0.0
 10
-0.420176836233221
 20
280.66278975389133
 30
0.0
 10
-1.0768895215144922
 20
280.48187278213777
 30
0.0
 10
-1.4635568241282395
 20
280.6603813505502
 30
0.0
 10
-3.2982699608416537
 20
280.93778595189593
 30
0.0
 10
-4.675288514351844
 20
280.90093034651807
 30
0.0
 10
-5.951122561110046
 20
279.83277295315344
 30
0.0
 10
-6.512450730403586
 20
279.2865715493848
 30
0.0
 10
-7.43438351820966
 20
278.93700097712804
 30
0.0
 10
-8.47308510675278
 20
278.27061272520757
 30
0.0
 10
-9.656572720011251
 20
277.81707718982017
 30
0.0
 10
-11.395307375683702
 20
277.3683109188569
 30
0.0
 10
-13.181396417211717
 20
276.43323012928823
 30
0.0
 10
-13.888361091499327
 20
276.12117773032213
 30
0.0
 10
-15.063932027845505
 20
275.50528382558576
 30
0.0
 10
-16.652532705742615
 20
274.5027621275921
 30
0.0
 10
-17.74898264887808
 20
273.6644650645949
 30
0.0
 10
-18.011391630389173
 20
273.4535719521566
 30
0.0
 10
-18.68722099847211
 20
272.9707994058016
 30
0.0
 10
-19.74113408098261
 20
272.09169777540683
 30
0.0
 10
-20.25543556263395
 20
271.88308244576746
 30
0.0
 10
-21.394195833200953
 20
270.7025630259317
 30
0.0
 10
-21.70701005376937
 20
270.0770716987303
 30
0.0
 10
-22.41550868020502
 20
269.0517371190618
 30
0.0
 10
-23.59596853640325
 20
267.70007063808606
 30
0.0
 10
-25.465908912237573
 20
265.912775555502
 30
0.0
 10
-25.94194048069718
 20
265.4332134450052
 30
0.0
 10
-26.905625607960737
 20
264.42075260362276
 30
0.0
 10
-27.22097618607286
 20
264.07837586600095
 30
0.0
 10
-27.72220981776566
 20
263.35835352329474
 30
0.0
 10
-28.20954758929682
 20
262.6787128330988
 30
0.0
 10
-28.651389646270616
 20
262.04037559993793
 30
0.0
 10
-29.76189107233232
 20
261.4810022405355
 30
0.0
 10
-31.26568417383369
 20
260.8104091113392
 30
0.0
 10
-32.09792053329317
 20
260.46089107797616
 30
0.0
 10
-32.8972041445095
 20
259.96893481777954
 30
0.0
 10
-32.95375767362906
 20
259.30936279561763
 30
0.0
 10
-33.122222171987666
 20
258.6429091008331
 30
0.0
 10
-33.442218233129935
 20
257.12655799425517
 30
0.0
 10
-33.4876991187524
 20
256.76023661893726
 30
0.0
 10
-33.22449758733146
 20
255.31097104804826
 30
0.0
 10
-32.89675292149127
 20
254.1746283119283
 30
0.0
 10
-32.77658757282144
 20
253.82961551096437
 30
0.0
 10
-32.815196759028716
 20
252.75625832513816
 30
0.0
 10
-32.83961276303617
 20
251.61530886194535
 30
0.0
 10
-33.00382755386897
 20
251.08459372537297
 30
0.0
 10
-33.49480183509013
 20
249.96655646837152
 30
0.0
 10
-33.668682771203464
 20
249.54410850522794
 30
0.0
 10
-33.84432341944896
 20
248.69251216174027
 30
0.0
 10
-33.99122913853631
 20
247.98447720161002
 30
0.0
 10
-34.24953514076717
 20
247.10051427208523
 30
0.0
 10
-34.703780874123694
 20
245.63413542828127
 30
0.0
 10
-35.02707350104035
 20
245.2320588593945
 30
0.0
 10
-35.3989501837621
 20
244.49461365539437
 30
0.0
 10
-35.388004288107865
 20
243.79971945513722
 30
0.0
 10
-35.903933475188985
 20
243.1576866114896
 30
0.0
 10
-36.19959230220161
 20
242.15459332221522
 30
0.0
 10
-36.462901406993694
 20
241.78964327347305
 30
0.0
 10
-36.858035196513
 20
240.80002951044005
 30
0.0
 10
-37.58899550365131
 20
240.57257704836033
 30
0.0
 10
-38.12011536874362
 20
240.32948491393307
 30
0.0
 10
-39.382248325172505
 20
239.94427336372854
 30
0.0
 10
-40.225501249471755
 20
239.61415859248868
 30
0.0
 10
-40.901423219797614
 20
238.9385935906235
 30
0.0
 10
-42.37385867024374
 20
238.3617116534225
 30
0.0
 10
-42.78234945557326
 20
238.0035094797474
 30
0.0
 10
-44.447026045086155
 20
236.43743522785098
 30
0.0
 10
-44.65964442633491
 20
236.2017690298749
 30
0.0
 10
-44.94783776824391
 20
235.90356563190198
 30
0.0
 10
-46.48206971186237
 20
234.56096947501288
 30
0.0
 10
-47.21220215600615
 20
233.5134189496486
 30
0.0
 10
-48.06849321988512
 20
232.55134394057032
 30
0.0
 10
-48.2739139241588
 20
231.56466339360935
 30
0.0
 10
-49.5914772227811
 20
230.86118012524992
 30
0.0
 10
-48.9838630579303
 20
229.46839016665604
 30
0.0
 10
-49.61821865440758
 20
228.50524928932643
 30
0.0
 10
-49.661258112465106
 20
227.59296300888442
 30
0.0
 10
-49.28369527315717
 20
226.65153873827268
 30
0.0
 10
-48.80592010273439
 20
225.65977133977364
 30
0.0
 10
-48.95475994146125
 20
224.619540132911
 30
0.0
 10
-49.02317834695907
 20
224.2533754438571
 30
0.0
 10
-49.21942729966389
 20
223.16283751781268
 30
0.0
 10
-49.32103986621125
 20
222.6352336149484
 30
0.0
 10
-49.37936769643079
 20
221.99365635894952
 30
0.0
 10
-49.72812803311857
 20
220.55011861532319
 30
0.0
 10
-49.928264747580016
 20
219.84774942341517
 30
0.0
 10
-50.126865850058905
 20
218.914560416158
 30
0.0
 10
-50.26932483419032
 20
218.170122775415
 30
0.0
 10
-50.51797036611045
 20
217.255113841168
 30
0.0
 10
-50.720269821301514
 20
216.1448316682381
 30
0.0
 10
-50.77182989786521
 20
215.7653521694502
 30
0.0
 10
-51.00044571080397
 20
214.73249629656667
 30
0.0
 10
-51.09253564884781
 20
213.71136634043552
 30
0.0
 10
-51.07436255288175
 20
213.30344296798035
 30
0.0
 10
-51.230642676143844
 20
212.82837084440047
 30
0.0
 10
-51.368443965486115
 20
211.94951696491904
 30
0.0
 10
-51.378110581865556
 20
211.29661791813146
 30
0.0
 10
-51.322989747121966
 20
210.51910225940776
 30
0.0
 10
-51.666094741029276
 20
209.57547371235702
 30
0.0
 10
-51.74789791674402
 20
209.24445865125276
 30
0.0
 10
-51.79776972621529
 20
207.74760124629347
 30
0.0
 10
-52.319851260964214
 20
206.59170983672024
 30
0.0
 10
-52.33049338553434
 20
205.06604333803352
 30
0.0
 10
-52.85357600290008
 20
204.20129885136225
 30
0.0
 10
-53.04505397199066
 20
203.4933283937196
 30
0.0
 10
-53.071818369772
 20
202.50460698700343
 30
0.0
 10
-53.45427102138293
 20
201.86572623152927
 30
0.0
 10
-53.764534425799404
 20
200.57788888555024
 30
0.0
 10
-53.7764763373931
 20
199.95724335461492
 30
0.0
 10
-53.86640769604042
 20
199.49255071149005
 30
0.0
 10
-53.98297284869259
 20
197.4859370836301
 30
0.0
 10
-54.08716496029008
 20
196.27205592582732
 30
0.0
 10
-54.04552158762162
 20
194.65815709259138
 30
0.0
 10
-54.04972741954763
 20
194.144770075581
 30
0.0
 10
-53.83426598062462
 20
192.32286559310742
 30
0.0
 10
-53.760515503766186
 20
191.54459218593166
 30
0.0
 10
-53.69352792760097
 20
191.0647624649163
 30
0.0
 10
-53.561768527352484
 20
188.8483429846773
 30
0.0
 10
-53.63900616542519
 20
186.607823218839
 30
0.0
 10
-53.60440759889118
 20
186.1736821711846
 30
0.0
 10
-53.57408623038773
 20
185.46173792926325
 30
0.0
 10
-53.47510730952923
 20
184.07233217754944
 30
0.0
 10
-53.16348818981336
 20
182.58267842406826
 30
0.0
 10
-52.70847464606359
 20
180.588905834792
 30
0.0
 10
-52.465853586935545
 20
178.73544345981566
 30
0.0
 10
-51.55791002530143
 20
176.0089946956642
 30
0.0
 10
-51.423432349064626
 20
175.4945822257002
 30
0.0
 10
-51.286824317787826
 20
175.08298865157334
 30
0.0
 10
-50.75547220041226
 20
173.5819915212854
 30
0.0
 10
-50.3342852888567
 20
172.15865998713355
 30
0.0
 10
-50.10916133330535
 20
171.26200482467758
 30
0.0
 10
-49.952462084170705
 20
170.70778762018696
 30
0.0
 10
-49.774690610911044
 20
170.14227471156238
 30
0.0
 10
-49.323951225306814
 20
168.81111048284956
 30
0.0
 10
-49.032674482336354
 20
167.63900873782904
 30
0.0
 10
-48.721584673481196
 20
166.9792038870917
 30
0.0
 10
-48.428356997906164
 20
166.09515763755692
 30
0.0
 10
-48.12967151232767
 20
165.00504493654884
 30
0.0
 10
-47.91449770928674
 20
164.17965436342084
 30
0.0
 10
-47.446879363423925
 20
163.1204861056712
 30
0.0
 10
-47.06272293859767
 20
162.25971476762152
 30
0.0
 10
-46.69190652769029
 20
161.24914121825813
 30
0.0
 10
-46.235855414888306
 20
160.10166201321357
 30
0.0
 10
-45.4063798553363
 20
158.16208791377628
 30
0.0
 10
-45.26499580377461
 20
157.84251953212163
 30
0.0
 10
-44.787750034893186
 20
156.67194607471603
 30
0.0
 10
-44.32972842540463
 20
155.55240112290613
 30
0.0
 10
-44.200951635842905
 20
155.2300331165364
 30
0.0
 10
-43.67169927710001
 20
153.9838732229909
 30
0.0
 10
-43.099725094607976
 20
152.5570320355287
 30
0.0
 10
-42.026482188859646
 20
150.17065743428827
 30
0.0
 10
-40.93616119258863
 20
147.4037387736863
 30
0.0
 10
-40.79562379674987
 20
147.0227964476512
 30
0.0
 10
-40.64418103932262
 20
146.55529098136046
 30
0.0
 10
-39.943780575071344
 20
144.62730487339556
 30
0.0
 10
-39.755268253736844
 20
144.12869347484002
 30
0.0
 10
-39.552119719665086
 20
143.48560172302044
 30
0.0
 10
-38.778584430266086
 20
141.5954729036545
 30
0.0
 10
-38.56821051076644
 20
141.05564697736477
 30
0.0
 10
-38.34347173510898
 20
140.38068704914414
 30
0.0
 10
-37.47302409380696
 20
138.38653236263633
 30
0.0
 10
-37.33199077392001
 20
137.97854083093085
 30
0.0
 10
-37.14770628317491
 20
137.43912443896664
 30
0.0
 10
-36.355490039697806
 20
135.53618310484882
 30
0.0
 10
-36.15813217666481
 20
135.08307995564905
 30
0.0
 10
-35.84739310209799
 20
134.14158578479805
 30
0.0
 10
-35.24066540065425
 20
132.93465562660387
 30
0.0
 10
-34.9299959869807
 20
132.1570867633496
 30
0.0
 10
-34.394188495810596
 20
130.48969788298405
 30
0.0
 10
-34.052833638544946
 20
129.9912120211953
 30
0.0
 10
-33.76935127164425
 20
129.2948381643405
 30
0.0
 10
-33.050783269549186
 20
127.75985539569868
 30
0.0
 10
-32.51182249847294
 20
127.24837167919691
 30
0.0
 10
-31.92235580076594
 20
126.19334373713632
 30
0.0
 10
-31.600389330997906
 20
125.71908442684438
 30
0.0
 10
-30.474976122840445
 20
124.89425517654853
 30
0.0
 10
-29.97435384074638
 20
124.32067092326885
 30
0.0
 10
-28.50851171701789
 20
124.12268878162025
 30
0.0
 10
-27.89788934574462
 20
123.98626422003441
 30
0.0
 10
-26.92776227555383
 20
124.14428472694301
 30
0.0
 10
-26.068018527820712
 20
124.57869418053384
 30
0.0
 10
-25.413909452821418
 20
124.99472035084324
 30
0.0
 10
-24.820837703884155
 20
125.26139786528313
 30
0.0
 10
-23.63906963688103
 20
126.01798426461667
 30
0.0
 10
-22.175778060966966
 20
127.1569647381273
 30
0.0
 10
-20.85205022194877
 20
127.90216814798605
 30
0.0
 10
-19.545549852794082
 20
128.43492596709265
 30
0.0
 10
-18.855461355755434
 20
128.86645573919128
 30
0.0
 10
-18.48458723216649
 20
129.21376450137504
 30
0.0
 10
-17.33663073687664
 20
130.0759668353805
 30
0.0
 10
-16.36983064791335
 20
131.07289762017592
 30
0.0
 10
-15.067502335530426
 20
132.19202326377987
 30
0.0
 10
-14.814423570847037
 20
132.4403513333772
 30
0.0
 10
-14.04904526699703
 20
133.46182918211554
 30
0.0
 10
-13.787739044683779
 20
133.8977299385072
 30
0.0
 10
-12.993691884856108
 20
135.1178341074975
 30
0.0
 10
-12.681134590235262
 20
135.64496815501136
 30
0.0
 10
-11.667238360361917
 20
136.93744426171736
 30
0.0
 10
-11.194854497492724
 20
137.55570536852565
 30
0.0
 10
-10.329654461855077
 20
138.32269122599683
 30
0.0
 10
-9.308466534165941
 20
139.19669888898943
 30
0.0
 10
-8.832117761260822
 20
139.65065409008295
 30
0.0
 10
-7.292260928966493
 20
140.97072210479257
 30
0.0
 10
-6.3530711855568
 20
141.9131432158452
 30
0.0
 10
-5.444604961117156
 20
142.8093280760632
 30
0.0
 10
-4.52489586565826
 20
144.1972501082123
 30
0.0
 10
-4.04939761855999
 20
144.87472679160584
 30
0.0
 10
-3.456852863933177
 20
146.15051336877428
 30
0.0
 10
-2.954270088245766
 20
147.18139981624083
 30
0.0
 10
-2.503132869127638
 20
147.85225600320325
 30
0.0
 10
-1.469371832909399
 20
149.32787631149074
 30
0.0
 10
-0.696691638532792
 20
150.2072871131911
 30
0.0
 10
0.22747977726127266
 20
151.25167030094738
 30
0.0
 10
1.1212168644555933
 20
152.5642671722174
 30
0.0
 10
1.6539295516112136
 20
153.35460066675924
 30
0.0
 10
2.2158380762190446
 20
153.82517756337995
 30
0.0
 10
4.158378692937785
 20
155.1426768387287
 30
0.0
 10
4.695258823586913
 20
155.52636819920832
 30
0.0
 10
6.142176502540642
 20
156.43185076220996
 30
0.0
 10
6.7709537342002255
 20
156.83355502724774
 30
0.0
 10
9.17361903711823
 20
158.30367755198372
 30
0.0
 10
11.796031142907871
 20
160.3024454870915
 30
0.0
 10
12.437142506864479
 20
160.90840299892741
 30
0.0
 10
13.680152651005438
 20
162.05071484578082
 30
0.0
 10
14.117055975331738
 20
162.32233135551147
 30
0.0
 10
15.684376150355561
 20
163.26771513285573
 30
0.0
 10
16.050696608464882
 20
163.5302319642902
 30
0.0
 10
16.372433389511045
 20
163.71346224600356
 30
0.0
 10
18.245597830032313
 20
165.01228273520772
 30
0.0
 10
18.78344946592133
 20
165.38516619839126
 30
0.0
 10
20.994366142523145
 20
166.71115399736993
 30
0.0
 10
21.543975987583046
 20
167.08276583274346
 30
0.0
 10
22.01631151959139
 20
167.44448272125646
 30
0.0
 10
23.070328825718292
 20
168.16739392747957
 30
0.0
 10
23.942071794191136
 20
168.23580354739232
 30
0.0
 10
24.775883367508218
 20
168.29092210147303
 30
0.0
 10
25.192855399096306
 20
168.37794843345068
 30
0.0
 10
26.37368308570785
 20
168.69872910013285
 30
0.0
 10
27.34226770156681
 20
168.93027916877557
 30
0.0
 10
28.13828157934333
 20
169.40437303760518
 30
0.0
 10
28.816755283825447
 20
169.91249076206546
 30
0.0
 10
29.210192843148747
 20
170.13602911333058
 30
0.0
 10
29.652416712268618
 20
170.4944839743199
 30
0.0
 10
30.231432976599326
 20
171.021211710563
 30
0.0
 10
31.040099178033834
 20
171.65666532100227
 30
0.0
 10
31.395320051626655
 20
171.94286126721337
 30
0.0
 10
32.347889856398375
 20
172.8979860961334
 30
0.0
 10
32.59034074420067
 20
173.17805425869736
 30
0.0
 10
33.566244031979146
 20
174.21488298069022
 30
0.0
 10
34.406139521417145
 20
175.1296326264825
 30
0.0
 10
35.00251489638958
 20
175.90069070584727
 30
0.0
 10
35.43880838588195
 20
176.53199878192416
 30
0.0
 10
36.559749635207936
 20
178.05573021412837
 30
0.0
 10
37.145862906321476
 20
178.86902136816656
 30
0.0
 10
37.449354297028016
 20
179.29412538270023
 30
0.0
 10
37.97514008652763
 20
180.1110131932227
 30
0.0
 10
38.39981529211125
 20
180.76095224202822
 30
0.0
 10
39.31567871325595
 20
182.17009902896493
 30
0.0
 10
40.512728427410245
 20
183.75123955748688
 30
0.0
 10
40.69068762299094
 20
184.0261644701073
 30
0.0
 10
40.87525505764673
 20
184.36649935628364
 30
0.0
 10
41.932217637966446
 20
186.24665652822742
 30
0.0
 10
42.612503534587795
 20
187.5779677731208
 30
0.0
 10
43.01544695897001
 20
188.4431607881778
 30
0.0
 10
43.88045067758368
 20
190.20966353813043
 30
0.0
 10
44.63613518603739
 20
191.9727721772611
 30
0.0
 10
44.9216392295717
 20
193.09303084597096
 30
0.0
 10
45.450679129895015
 20
194.24879618048607
 30
0.0
 10
45.734247009369156
 20
195.14475886621693
 30
0.0
 10
45.8238859167492
 20
196.09910402052003
 30
0.0
 10
45.89918299796407
 20
196.72217060022948
 30
0.0
 10
46.006228066056096
 20
197.4027048112512
 30
0.0
 10
46.066982883871646
 20
198.57290741888863
 30
0.0
 10
46.499023740774675
 20
199.32440768959387
 30
0.0
 10
46.69695372432461
 20
199.9405373011522
 30
0.0
 10
46.66732592766735
 20
200.93058478397103
 30
0.0
 10
47.239478059624304
 20
202.04476109074247
 30
0.0
 10
47.333272314343624
 20
202.4475242014497
 30
0.0
 10
47.36041525804022
 20
203.64703000504915
 30
0.0
 10
47.357085844094925
 20
204.6675760837719
 30
0.0
 10
47.42199074737724
 20
205.08916474644133
 30
0.0
 10
47.545410189881814
 20
205.95263753246763
 30
0.0
 10
47.659995944184224
 20
207.13853285739623
 30
0.0
 10
47.60602963844325
 20
207.8489348340418
 30
0.0
 10
47.66712405531298
 20
208.46559806316668
 30
0.0
 10
47.57681599389782
 20
209.73448221065883
 30
0.0
 10
47.21773743272678
 20
211.41559406229678
 30
0.0
 10
47.148720421616666
 20
211.86380811860485
 30
0.0
 10
47.10180857945891
 20
212.1903358122483
 30
0.0
 10
47.067267973550734
 20
214.06168721755955
 30
0.0
 10
47.0398375503146
 20
214.51357086651637
 30
0.0
 10
47.01627672266738
 20
215.0978495828883
 30
0.0
 10
47.00214667487152
 20
216.11736161461718
 30
0.0
 10
47.0367936260643
 20
217.28707083325162
 30
0.0
 10
47.03838299586467
 20
218.67360162110134
 30
0.0
 10
46.90669654491077
 20
219.94603686592416
 30
0.0
 10
46.873666496691314
 20
221.6442007450754
 30
0.0
 10
46.7804885307223
 20
222.64538334431302
 30
0.0
 10
46.776121742086595
 20
223.07458700223077
 30
0.0
 10
46.7864855129499
 20
223.7673022933968
 30
0.0
 10
46.807514356838276
 20
224.35648849883137
 30
0.0
 10
46.34274602702078
 20
225.48455220963857
 30
0.0
 10
45.314667171067384
 20
226.2404998711396
 30
0.0
 10
44.86557115218517
 20
226.28081012117548
 30
0.0
 10
43.37940588135882
 20
226.45589971363685
 30
0.0
 10
42.887956241491935
 20
226.49516386626058
 30
0.0
 10
42.04865349254312
 20
226.59007162717813
 30
0.0
 10
41.23518757818964
 20
226.72397335830723
 30
0.0
 10
40.189581984568015
 20
226.8531956764446
 30
0.0
 10
39.60093084744686
 20
226.9425734392872
 30
0.0
 10
39.281680333108575
 20
226.97209780360993
 30
0.0
 10
37.463569368485444
 20
227.2618433521166
 30
0.0
 10
35.508730587213
 20
227.65871386973805
 30
0.0
 10
34.26200237608319
 20
227.9465976567763
 30
0.0
 10
33.59689209615937
 20
228.11538718899132
 30
0.0
 10
31.82292770567508
 20
228.72881672565148
 30
0.0
 10
31.37473451232376
 20
228.90225877132772
 30
0.0
 10
29.936841151218843
 20
229.41759680501136
 30
0.0
 10
29.111052732076477
 20
229.73656478945549
 30
0.0
 10
27.989828477597037
 20
230.18514492172852
 30
0.0
 10
26.9122541511011
 20
230.5711928093885
 30
0.0
 10
26.200883333858833
 20
230.85742008259723
 30
0.0
 10
24.83414931014741
 20
231.2756903664386
 30
0.0
 10
24.433596991626533
 20
231.42300364413018
 30
0.0
 10
22.754095408921273
 20
231.9836496468636
 30
0.0
 10
21.111257375884353
 20
232.8968468442193
 30
0.0
 10
20.236857076232834
 20
233.97868158882483
 30
0.0
 10
20.260917361326072
 20
234.6070055409656
 30
0.0
 10
20.590232694887092
 20
236.1199561650187
 30
0.0
 10
21.465865835838223
 20
238.21710383668375
 30
0.0
 10
21.095537347556974
 20
240.64649827613215
 30
0.0
 10
20.478789448788056
 20
242.11611758768598
 30
0.0
 10
20.33784876612784
 20
243.01543283319626
 30
0.0
 10
20.24439474334085
 20
243.72822852436826
 30
0.0
 10
20.276297020189617
 20
245.0098027687086
 30
0.0
 10
20.34042374089376
 20
246.06876794146
 30
0.0
 10
20.39245779609156
 20
246.89018510071102
 30
0.0
 10
20.439584451333538
 20
247.62257750086334
 30
0.0
 10
20.462626031936395
 20
247.98081038142453
 30
0.0
 10
20.531317215768198
 20
249.04854707798896
 30
0.0
 10
20.641102000216023
 20
250.7540550234296
 30
0.0
 10
20.68600908328853
 20
251.4518857882533
 30
0.0
 10
20.752162573496953
 20
252.48013823162927
 30
0.0
 10
20.851152011219018
 20
254.01870643930462
 30
0.0
 10
20.975040206646486
 20
255.94344516131576
 30
0.0
 10
21.060080574225672
 20
257.3246196167282
 30
0.0
 10
21.07443460754239
 20
258.0936407361265
 30
0.0
 10
21.090813494095137
 20
258.6760083335648
 30
0.0
 10
20.913884744813735
 20
259.79137245761854
 30
0.0
 10
20.871609910043745
 20
260.25492982515874
 30
0.0
 10
20.52160778327201
 20
261.33402697345497
 30
0.0
  0
ENDSEC
  0
EOF
